Scada-Medium.ufo
<glyph name="numbersign" format="2">
  <advance width="662"/>
  <unicode hex="0023"/>
  <outline>
    <contour>
      <point x="184" y="0" type="line"/>
      <point x="226.333" y="176.667" type="line"/>
      <point x="353" y="176.667" type="line"/>
      <point x="310.667" y="0" type="line"/>
      <point x="420.667" y="0" type="line"/>
      <point x="463" y="176.667" type="line"/>
      <point x="585" y="176.667" type="line"/>
      <point x="585" y="253.333" type="line"/>
      <point x="482" y="253.333" type="line"/>
      <point x="527.667" y="446.667" type="line"/>
      <point x="644" y="446.667" type="line"/>
      <point x="644" y="523.333" type="line"/>
      <point x="545" y="523.333" type="line"/>
      <point x="587.333" y="700" type="line"/>
      <point x="477.333" y="700" type="line"/>
      <point x="435" y="523.333" type="line"/>
      <point x="308.333" y="523.333" type="line"/>
      <point x="350.667" y="700" type="line"/>
      <point x="240.667" y="700" type="line"/>
      <point x="198.333" y="523.333" type="line"/>
      <point x="77.3333" y="523.333" type="line"/>
      <point x="77.3333" y="446.667" type="line"/>
      <point x="181" y="446.667" type="line"/>
      <point x="135.333" y="253.333" type="line"/>
      <point x="18.3333" y="253.333" type="line"/>
      <point x="18.3333" y="176.667" type="line"/>
      <point x="116.333" y="176.667" type="line"/>
      <point x="74" y="0" type="line"/>
    </contour>
    <contour>
      <point x="291" y="446.667" type="line"/>
      <point x="417.667" y="446.667" type="line"/>
      <point x="372" y="253.333" type="line"/>
      <point x="245.333" y="253.333" type="line"/>
    </contour>
  </outline>
</glyph>
<glyph name="dollar" format="2">
  <advance width="508"/>
  <unicode hex="0024"/>
  <outline>
    <contour>
      <point x="306.667" y="-70" type="line"/>
      <point x="306.667" y="-3.33333" type="line"/>
      <point x="418.333" y="17.6667"/>
      <point x="476.667" y="88.6667"/>
      <point x="476.667" y="190" type="curve" smooth="yes"/>
      <point x="476.667" y="411.667"/>
      <point x="153.333" y="377"/>
      <point x="153.333" y="530" type="curve" smooth="yes"/>
      <point x="153.333" y="584.333"/>
      <point x="201.667" y="633.333"/>
      <point x="271.667" y="633.333" type="curve" smooth="yes"/>
      <point x="317.333" y="633.333"/>
      <point x="352.667" y="621.333"/>
      <point x="376.333" y="610.333" type="curve"/>
      <point x="390" y="603.333"/>
      <point x="402" y="596.333"/>
      <point x="411.667" y="588.333" type="curve"/>
      <point x="421.667" y="588.333" type="line"/>
      <point x="460" y="655" type="line"/>
      <point x="449" y="662.667"/>
      <point x="436.333" y="670.333"/>
      <point x="421.333" y="677.333" type="curve" smooth="yes"/>
      <point x="395" y="689"/>
      <point x="357.667" y="702"/>
      <point x="306.667" y="707" type="curve"/>
      <point x="306.667" y="770" type="line"/>
      <point x="191.667" y="770" type="line"/>
      <point x="191.667" y="702" type="line"/>
      <point x="94.3333" y="678.333"/>
      <point x="40" y="609.333"/>
      <point x="40" y="520" type="curve" smooth="yes"/>
      <point x="40" y="298.333"/>
      <point x="363.333" y="333"/>
      <point x="363.333" y="180" type="curve" smooth="yes"/>
      <point x="363.333" y="112.667"/>
      <point x="317.333" y="66.6667"/>
      <point x="230" y="66.6667" type="curve" smooth="yes"/>
      <point x="182.333" y="66.6667"/>
      <point x="145.333" y="77.6667"/>
      <point x="119.333" y="88.6667" type="curve"/>
      <point x="104.667" y="95.6667"/>
      <point x="91.3333" y="102.667"/>
      <point x="80" y="111.667" type="curve"/>
      <point x="70" y="111.667" type="line"/>
      <point x="31.6667" y="45" type="line"/>
      <point x="43.3333" y="38"/>
      <point x="57" y="30.3333"/>
      <point x="72.6667" y="23.3333" type="curve" smooth="yes"/>
      <point x="99.6667" y="11.6667"/>
      <point x="139" y="-1.33333"/>
      <point x="191.667" y="-6.33333" type="curve"/>
      <point x="191.667" y="-70" type="line"/>
    </contour>
  </outline>
</glyph>
<glyph name="percent" format="2">
  <advance width="817"/>
  <unicode hex="0025"/>
  <outline>
    <contour>
      <point x="235" y="0" type="line"/>
      <point x="705" y="700" type="line"/>
      <point x="581.667" y="700" type="line"/>
      <point x="111.667" y="0" type="line"/>
    </contour>
    <contour>
      <point x="191.667" y="350" type="curve" smooth="yes"/>
      <point x="289" y="350"/>
      <point x="356.667" y="418"/>
      <point x="356.667" y="530" type="curve" smooth="yes"/>
      <point x="356.667" y="642"/>
      <point x="289" y="710"/>
      <point x="191.667" y="710" type="curve" smooth="yes"/>
      <point x="94.3333" y="710"/>
      <point x="26.6667" y="642"/>
      <point x="26.6667" y="530" type="curve" smooth="yes"/>
      <point x="26.6667" y="418"/>
      <point x="94.3333" y="350"/>
    </contour>
    <contour>
      <point x="191.667" y="416.667" type="curve" smooth="yes"/>
      <point x="154.667" y="416.667"/>
      <point x="126.667" y="444.333"/>
      <point x="126.667" y="530" type="curve" smooth="yes"/>
      <point x="126.667" y="614.333"/>
      <point x="154.667" y="643.333"/>
      <point x="191.667" y="643.333" type="curve" smooth="yes"/>
      <point x="228" y="643.333"/>
      <point x="256.667" y="614.333"/>
      <point x="256.667" y="530" type="curve" smooth="yes"/>
      <point x="256.667" y="444.333"/>
      <point x="228" y="416.667"/>
    </contour>
    <contour>
      <point x="625" y="-10" type="curve" smooth="yes"/>
      <point x="722.333" y="-10"/>
      <point x="790" y="58"/>
      <point x="790" y="170" type="curve" smooth="yes"/>
      <point x="790" y="282"/>
      <point x="722.333" y="350"/>
      <point x="625" y="350" type="curve" smooth="yes"/>
      <point x="527.667" y="350"/>
      <point x="460" y="282"/>
      <point x="460" y="170" type="curve" smooth="yes"/>
      <point x="460" y="58"/>
      <point x="527.667" y="-10"/>
    </contour>
    <contour>
      <point x="625" y="56.6667" type="curve" smooth="yes"/>
      <point x="588" y="56.6667"/>
      <point x="560" y="84.3333"/>
      <point x="560" y="170" type="curve" smooth="yes"/>
      <point x="560" y="254.333"/>
      <point x="588" y="283.333"/>
      <point x="625" y="283.333" type="curve" smooth="yes"/>
      <point x="661.333" y="283.333"/>
      <point x="690" y="254.333"/>
      <point x="690" y="170" type="curve" smooth="yes"/>
      <point x="690" y="84.3333"/>
      <point x="661.333" y="56.6667"/>
    </contour>
  </outline>
</glyph>
<glyph name="quotesingle" format="2">
  <advance width="192"/>
  <unicode hex="0027"/>
  <outline>
    <contour>
      <point x="131.667" y="458.333" type="line"/>
      <point x="153.333" y="700" type="line"/>
      <point x="38.3333" y="700" type="line"/>
      <point x="60" y="458.333" type="line"/>
    </contour>
  </outline>
</glyph>
<glyph name="parenright" format="2">
  <advance width="297"/>
  <unicode hex="0029"/>
  <outline>
    <contour>
      <point x="45" y="-178.333" type="line"/>
      <point x="170" y="-67"/>
      <point x="241.667" y="103"/>
      <point x="241.667" y="280" type="curve" smooth="yes"/>
      <point x="241.667" y="457"/>
      <point x="170" y="627"/>
      <point x="45" y="738.333" type="curve"/>
      <point x="0" y="693.333" type="line"/>
      <point x="80" y="581"/>
      <point x="128.333" y="454"/>
      <point x="128.333" y="280" type="curve" smooth="yes"/>
      <point x="128.333" y="106"/>
      <point x="80" y="-21"/>
      <point x="0" y="-133.333" type="curve"/>
    </contour>
  </outline>
</glyph>
<glyph name="plus" format="2">
  <advance width="477"/>
  <unicode hex="002B"/>
  <outline>
    <contour>
      <point x="281.667" y="121.667" type="line"/>
      <point x="281.667" y="286.667" type="line"/>
      <point x="446.667" y="286.667" type="line"/>
      <point x="446.667" y="373.333" type="line"/>
      <point x="281.667" y="373.333" type="line"/>
      <point x="281.667" y="538.333" type="line"/>
      <point x="195" y="538.333" type="line"/>
      <point x="195" y="373.333" type="line"/>
      <point x="30" y="373.333" type="line"/>
      <point x="30" y="286.667" type="line"/>
      <point x="195" y="286.667" type="line"/>
      <point x="195" y="121.667" type="line"/>
    </contour>
  </outline>
</glyph>
<glyph name="period" format="2">
  <advance width="207"/>
  <unicode hex="002E"/>
  <outline>
    <contour>
      <point x="103.333" y="-10" type="curve" smooth="yes"/>
      <point x="140" y="-10"/>
      <point x="168.333" y="18.3333"/>
      <point x="168.333" y="55" type="curve" smooth="yes"/>
      <point x="168.333" y="91.6667"/>
      <point x="140" y="120"/>
      <point x="103.333" y="120" type="curve" smooth="yes"/>
      <point x="66.6667" y="120"/>
      <point x="38.3333" y="91.6667"/>
      <point x="38.3333" y="55" type="curve" smooth="yes"/>
      <point x="38.3333" y="18.3333"/>
      <point x="66.6667" y="-10"/>
    </contour>
  </outline>
</glyph>
<glyph name="zero" format="2">
  <advance width="590"/>
  <unicode hex="0030"/>
  <outline>
    <contour>
      <point x="295" y="-10" type="curve" smooth="yes"/>
      <point x="435.333" y="-10"/>
      <point x="536.667" y="91.6667"/>
      <point x="536.667" y="350" type="curve" smooth="yes"/>
      <point x="536.667" y="608.333"/>
      <point x="435.333" y="710"/>
      <point x="295" y="710" type="curve" smooth="yes"/>
      <point x="154.333" y="710"/>
      <point x="53.3333" y="608.333"/>
      <point x="53.3333" y="350" type="curve" smooth="yes"/>
      <point x="53.3333" y="91.6667"/>
      <point x="154.333" y="-10"/>
    </contour>
    <contour>
      <point x="295" y="66.6667" type="curve" smooth="yes"/>
      <point x="225" y="66.6667"/>
      <point x="166.667" y="125.667"/>
      <point x="166.667" y="350" type="curve" smooth="yes"/>
      <point x="166.667" y="574.333"/>
      <point x="225" y="633.333"/>
      <point x="295" y="633.333" type="curve" smooth="yes"/>
      <point x="365" y="633.333"/>
      <point x="423.333" y="574.333"/>
      <point x="423.333" y="350" type="curve" smooth="yes"/>
      <point x="423.333" y="125.667"/>
      <point x="365" y="66.6667"/>
    </contour>
  </outline>
</glyph>
<glyph name="one" format="2">
  <advance width="397"/>
  <unicode hex="0031"/>
  <outline>
    <contour>
      <point x="376.667" y="0" type="line"/>
      <point x="376.667" y="76.6667" type="line"/>
      <point x="270" y="76.6667" type="line"/>
      <point x="270" y="700" type="line"/>
      <point x="166.667" y="700" type="line"/>
      <point x="18.3333" y="580" type="line"/>
      <point x="63.3333" y="518.333" type="line"/>
      <point x="156.667" y="580" type="line"/>
      <point x="156.667" y="76.6667" type="line"/>
      <point x="50" y="76.6667" type="line"/>
      <point x="50" y="0" type="line"/>
    </contour>
  </outline>
</glyph>
<glyph name="three" format="2">
  <advance width="507"/>
  <unicode hex="0033"/>
  <outline>
    <contour>
      <point x="210" y="-10" type="curve" smooth="yes"/>
      <point x="387" y="-10"/>
      <point x="468.333" y="71"/>
      <point x="468.333" y="200" type="curve" smooth="yes"/>
      <point x="468.333" y="327.333"/>
      <point x="386.333" y="413.333"/>
      <point x="221.667" y="413.333" type="curve"/>
      <point x="445" y="623.333" type="line"/>
      <point x="445" y="700" type="line"/>
      <point x="26.6667" y="700" type="line"/>
      <point x="26.6667" y="623.333" type="line"/>
      <point x="311.667" y="623.333" type="line"/>
      <point x="91.6667" y="413.333" type="line"/>
      <point x="91.6667" y="336.667" type="line"/>
      <point x="200" y="336.667" type="line" smooth="yes"/>
      <point x="307.333" y="336.667"/>
      <point x="355" y="289"/>
      <point x="355" y="200" type="curve" smooth="yes"/>
      <point x="355" y="114"/>
      <point x="307.333" y="66.6667"/>
      <point x="200" y="66.6667" type="curve" smooth="yes"/>
      <point x="154" y="66.6667"/>
      <point x="119" y="77.6667"/>
      <point x="95.3333" y="88.6667" type="curve"/>
      <point x="81.6667" y="95.6667"/>
      <point x="69.6667" y="102.667"/>
      <point x="60" y="111.667" type="curve"/>
      <point x="50" y="111.667" type="line"/>
      <point x="11.6667" y="45" type="line"/>
      <point x="25.3333" y="34"/>
      <point x="42.3333" y="25"/>
      <point x="61.6667" y="17" type="curve"/>
      <point x="94.6667" y="2"/>
      <point x="144" y="-10"/>
    </contour>
  </outline>
</glyph>
<glyph name="five" format="2">
  <advance width="517"/>
  <unicode hex="0035"/>
  <outline>
    <contour>
      <point x="226.667" y="-10" type="curve" smooth="yes"/>
      <point x="398" y="-10"/>
      <point x="478.333" y="71"/>
      <point x="478.333" y="211.667" type="curve" smooth="yes"/>
      <point x="478.333" y="352.667"/>
      <point x="397.667" y="433.333"/>
      <point x="231.667" y="433.333" type="curve" smooth="yes"/>
      <point x="175" y="433.333" type="line"/>
      <point x="175" y="626.667" type="line"/>
      <point x="449" y="626.667" type="line"/>
      <point x="449" y="700" type="line"/>
      <point x="61.6667" y="700" type="line"/>
      <point x="61.6667" y="390.333" type="line"/>
      <point x="94.6667" y="356.667" type="line"/>
      <point x="216.667" y="356.667" type="line" smooth="yes"/>
      <point x="315.333" y="356.667"/>
      <point x="365" y="308.333"/>
      <point x="365" y="211.667" type="curve" smooth="yes"/>
      <point x="365" y="115"/>
      <point x="315.333" y="66.6667"/>
      <point x="216.667" y="66.6667" type="curve" smooth="yes"/>
      <point x="170.667" y="66.6667"/>
      <point x="135.667" y="77.6667"/>
      <point x="112" y="88.6667" type="curve"/>
      <point x="98.3333" y="95.6667"/>
      <point x="86.3333" y="102.667"/>
      <point x="76.6667" y="111.667" type="curve"/>
      <point x="66.6667" y="111.667" type="line"/>
      <point x="28.3333" y="45" type="line"/>
      <point x="42" y="34"/>
      <point x="59" y="25"/>
      <point x="78.3333" y="17" type="curve"/>
      <point x="111.333" y="2"/>
      <point x="160.667" y="-10"/>
    </contour>
  </outline>
</glyph>
<glyph name="six" format="2">
  <advance width="543"/>
  <unicode hex="0036"/>
  <outline>
    <contour>
      <point x="284.333" y="-10" type="curve" smooth="yes"/>
      <point x="424" y="-10"/>
      <point x="505" y="70.6667"/>
      <point x="505" y="230" type="curve" smooth="yes"/>
      <point x="505" y="372.333"/>
      <point x="424.333" y="453.333"/>
      <point x="290" y="453.333" type="curve" smooth="yes"/>
      <point x="251.667" y="453.333"/>
      <point x="220.667" y="444.667"/>
      <point x="198.667" y="435" type="curve" smooth="yes"/>
      <point x="186" y="429.333"/>
      <point x="174.667" y="423"/>
      <point x="165" y="416.667" type="curve"/>
      <point x="165" y="577.333"/>
      <point x="221.667" y="633.333"/>
      <point x="303.333" y="633.333" type="curve" smooth="yes"/>
      <point x="342.333" y="633.333"/>
      <point x="373.333" y="621.333"/>
      <point x="396.333" y="610.333" type="curve"/>
      <point x="409.333" y="603.333"/>
      <point x="420.333" y="596.333"/>
      <point x="430.333" y="588.333" type="curve"/>
      <point x="440.333" y="588.333" type="line"/>
      <point x="478.667" y="655" type="line"/>
      <point x="465" y="665"/>
      <point x="448.667" y="674"/>
      <point x="430.333" y="682" type="curve"/>
      <point x="398.667" y="697"/>
      <point x="352.333" y="710"/>
      <point x="293.333" y="710" type="curve" smooth="yes"/>
      <point x="145" y="710"/>
      <point x="51.6667" y="616"/>
      <point x="51.6667" y="416.667" type="curve" smooth="yes"/>
      <point x="51.6667" y="230" type="line" smooth="yes"/>
      <point x="51.6667" y="70.6667"/>
      <point x="132.667" y="-10"/>
    </contour>
    <contour>
      <point x="283.333" y="66.6667" type="curve" smooth="yes"/>
      <point x="213.333" y="66.6667"/>
      <point x="165" y="115"/>
      <point x="165" y="230" type="curve" smooth="yes"/>
      <point x="165" y="340" type="line"/>
      <point x="171.638" y="345.42"/>
      <point x="184.128" y="353.446"/>
      <point x="193" y="358.333" type="curve" smooth="yes"/>
      <point x="211" y="368"/>
      <point x="236.667" y="376.667"/>
      <point x="268.333" y="376.667" type="curve" smooth="yes"/>
      <point x="343.333" y="376.667"/>
      <point x="391.667" y="328.667"/>
      <point x="391.667" y="230" type="curve" smooth="yes"/>
      <point x="391.667" y="115"/>
      <point x="343.333" y="66.6667"/>
    </contour>
  </outline>
</glyph>
<glyph name="seven" format="2">
  <advance width="453"/>
  <unicode hex="0037"/>
  <outline>
    <contour>
      <point x="256.667" y="0" type="line"/>
      <point x="256.667" y="90" type="line" smooth="yes"/>
      <point x="256.667" y="319.333"/>
      <point x="352.667" y="514"/>
      <point x="443.333" y="623.333" type="curve"/>
      <point x="443.333" y="700" type="line"/>
      <point x="3.33333" y="700" type="line"/>
      <point x="3.33333" y="623.333" type="line"/>
      <point x="323.333" y="623.333" type="line"/>
      <point x="233.333" y="514.667"/>
      <point x="143.333" y="318.667"/>
      <point x="143.333" y="90" type="curve" smooth="yes"/>
      <point x="143.333" y="0" type="line"/>
    </contour>
  </outline>
</glyph>
<glyph name="eight" format="2">
  <advance width="560"/>
  <unicode hex="0038"/>
  <outline>
    <contour>
      <point x="280" y="-10" type="curve" smooth="yes"/>
      <point x="436" y="-10"/>
      <point x="525" y="78.3333"/>
      <point x="525" y="180" type="curve" smooth="yes"/>
      <point x="525" y="257.667"/>
      <point x="486.333" y="304.333"/>
      <point x="446.333" y="333" type="curve" smooth="yes"/>
      <point x="423.333" y="350"/>
      <point x="397.667" y="362"/>
      <point x="368.333" y="370" type="curve"/>
      <point x="392" y="377.667"/>
      <point x="413.333" y="388.667"/>
      <point x="432" y="403.333" type="curve" smooth="yes"/>
      <point x="464.333" y="428"/>
      <point x="496.667" y="469"/>
      <point x="496.667" y="535" type="curve" smooth="yes"/>
      <point x="496.667" y="628.667"/>
      <point x="415.667" y="710"/>
      <point x="280" y="710" type="curve" smooth="yes"/>
      <point x="144.333" y="710"/>
      <point x="63.3333" y="628.667"/>
      <point x="63.3333" y="535" type="curve" smooth="yes"/>
      <point x="63.3333" y="469"/>
      <point x="94.6667" y="428"/>
      <point x="127" y="403.333" type="curve" smooth="yes"/>
      <point x="145.667" y="388.667"/>
      <point x="167.333" y="377.667"/>
      <point x="191.667" y="370" type="curve"/>
      <point x="162.333" y="362"/>
      <point x="136" y="350"/>
      <point x="113" y="333" type="curve" smooth="yes"/>
      <point x="73.6667" y="305"/>
      <point x="35" y="257"/>
      <point x="35" y="180" type="curve" smooth="yes"/>
      <point x="35" y="78.3333"/>
      <point x="124" y="-10"/>
    </contour>
    <contour>
      <point x="280" y="66.6667" type="curve" smooth="yes"/>
      <point x="194" y="66.6667"/>
      <point x="148.333" y="112.667"/>
      <point x="148.333" y="180" type="curve" smooth="yes"/>
      <point x="148.333" y="260"/>
      <point x="208.667" y="297.667"/>
      <point x="280" y="325" type="curve"/>
      <point x="351.333" y="297.667"/>
      <point x="411.667" y="260"/>
      <point x="411.667" y="180" type="curve" smooth="yes"/>
      <point x="411.667" y="112.667"/>
      <point x="366" y="66.6667"/>
    </contour>
    <contour>
      <point x="280" y="415" type="curve"/>
      <point x="221" y="434.333"/>
      <point x="176.667" y="468"/>
      <point x="176.667" y="535" type="curve" smooth="yes"/>
      <point x="176.667" y="587.333"/>
      <point x="222.333" y="633.333"/>
      <point x="280" y="633.333" type="curve" smooth="yes"/>
      <point x="336.333" y="633.333"/>
      <point x="383.333" y="587.333"/>
      <point x="383.333" y="535" type="curve" smooth="yes"/>
      <point x="383.333" y="468"/>
      <point x="337.667" y="434.333"/>
    </contour>
  </outline>
</glyph>
<glyph name="nine" format="2">
  <advance width="543"/>
  <unicode hex="0039"/>
  <outline>
    <contour>
      <point x="250" y="-10" type="curve" smooth="yes"/>
      <point x="397.667" y="-10"/>
      <point x="491.667" y="83.3333"/>
      <point x="491.667" y="283.333" type="curve" smooth="yes"/>
      <point x="491.667" y="470" type="line" smooth="yes"/>
      <point x="491.667" y="629.333"/>
      <point x="410.667" y="710"/>
      <point x="259" y="710" type="curve" smooth="yes"/>
      <point x="119.333" y="710"/>
      <point x="38.3333" y="629.333"/>
      <point x="38.3333" y="470" type="curve" smooth="yes"/>
      <point x="38.3333" y="327.667"/>
      <point x="119" y="246.667"/>
      <point x="253.333" y="246.667" type="curve" smooth="yes"/>
      <point x="291.667" y="246.667"/>
      <point x="322.667" y="255"/>
      <point x="344.667" y="265" type="curve"/>
      <point x="357.333" y="270.333"/>
      <point x="368" y="276.667"/>
      <point x="378.333" y="283.333" type="curve"/>
      <point x="378.333" y="122.667"/>
      <point x="321.667" y="66.6667"/>
      <point x="240" y="66.6667" type="curve" smooth="yes"/>
      <point x="199.667" y="66.6667"/>
      <point x="170" y="77.6667"/>
      <point x="147" y="88.6667" type="curve"/>
      <point x="134" y="95.6667"/>
      <point x="123" y="102.667"/>
      <point x="113" y="111.667" type="curve"/>
      <point x="103" y="111.667" type="line"/>
      <point x="64.6667" y="45" type="line"/>
      <point x="78.3333" y="34"/>
      <point x="94.6667" y="25"/>
      <point x="113" y="17" type="curve"/>
      <point x="144.667" y="2"/>
      <point x="189.333" y="-10"/>
    </contour>
    <contour>
      <point x="275" y="323.333" type="curve" smooth="yes"/>
      <point x="200" y="323.333"/>
      <point x="151.667" y="371.333"/>
      <point x="151.667" y="470" type="curve" smooth="yes"/>
      <point x="151.667" y="585"/>
      <point x="200" y="633.333"/>
      <point x="260" y="633.333" type="curve" smooth="yes"/>
      <point x="330" y="633.333"/>
      <point x="378.333" y="585"/>
      <point x="378.333" y="470" type="curve" smooth="yes"/>
      <point x="378.333" y="360" type="line"/>
      <point x="370.333" y="353.333"/>
      <point x="360.667" y="347"/>
      <point x="350.333" y="341.667" type="curve"/>
      <point x="332.333" y="331.667"/>
      <point x="306.667" y="323.333"/>
    </contour>
  </outline>
</glyph>
<glyph name="less" format="2">
  <advance width="465"/>
  <unicode hex="003C"/>
  <outline>
    <contour>
      <point x="426.667" y="103.333" type="line"/>
      <point x="156.667" y="250" type="line"/>
      <point x="426.667" y="396.667" type="line"/>
      <point x="426.667" y="500" type="line"/>
      <point x="33.3333" y="286.667" type="line"/>
      <point x="33.3333" y="213.333" type="line"/>
      <point x="426.667" y="0" type="line"/>
    </contour>
  </outline>
</glyph>
<glyph name="question" format="2">
  <advance width="470"/>
  <unicode hex="003F"/>
  <outline>
    <contour>
      <point x="237.333" y="186.667" type="line"/>
      <point x="237.333" y="223.333" type="line" smooth="yes"/>
      <point x="237.333" y="346.667"/>
      <point x="431.667" y="346"/>
      <point x="431.667" y="520" type="curve" smooth="yes"/>
      <point x="431.667" y="630"/>
      <point x="351.333" y="710"/>
      <point x="198.333" y="710" type="curve" smooth="yes"/>
      <point x="132.333" y="710"/>
      <point x="83" y="697"/>
      <point x="50" y="682" type="curve"/>
      <point x="30.6667" y="674"/>
      <point x="13.6667" y="665"/>
      <point x="0" y="655" type="curve"/>
      <point x="38.3333" y="588.333" type="line"/>
      <point x="48.3333" y="588.333" type="line"/>
      <point x="58" y="596.333"/>
      <point x="70" y="603.333"/>
      <point x="83.6667" y="610.333" type="curve"/>
      <point x="107.333" y="621.333"/>
      <point x="142.333" y="633.333"/>
      <point x="188.333" y="633.333" type="curve" smooth="yes"/>
      <point x="271.667" y="633.333"/>
      <point x="318.333" y="587"/>
      <point x="318.333" y="530" type="curve" smooth="yes"/>
      <point x="318.333" y="393"/>
      <point x="134" y="393.333"/>
      <point x="134" y="223.333" type="curve" smooth="yes"/>
      <point x="134" y="186.667" type="line"/>
    </contour>
    <contour>
      <point x="185.667" y="-10" type="curve" smooth="yes"/>
      <point x="222.333" y="-10"/>
      <point x="250.667" y="18.3333"/>
      <point x="250.667" y="55" type="curve" smooth="yes"/>
      <point x="250.667" y="91.6667"/>
      <point x="222.333" y="120"/>
      <point x="185.667" y="120" type="curve" smooth="yes"/>
      <point x="149" y="120"/>
      <point x="120.667" y="91.6667"/>
      <point x="120.667" y="55" type="curve" smooth="yes"/>
      <point x="120.667" y="18.3333"/>
      <point x="149" y="-10"/>
    </contour>
  </outline>
</glyph>
<glyph name="A" format="2">
  <advance width="580"/>
  <unicode hex="0041"/>
  <outline>
    <contour>
      <point x="128.333" y="0" type="line"/>
      <point x="180" y="173.333" type="line"/>
      <point x="400" y="173.333" type="line"/>
      <point x="451.667" y="0" type="line"/>
      <point x="565" y="0" type="line"/>
      <point x="360" y="700" type="line"/>
      <point x="220" y="700" type="line"/>
      <point x="15" y="0" type="line"/>
    </contour>
    <contour>
      <point x="275" y="503.333" type="line" smooth="yes"/>
      <point x="279" y="518.333"/>
      <point x="281.667" y="535.333"/>
      <point x="284.667" y="550.333" type="curve"/>
      <point x="288" y="575" type="line"/>
      <point x="292" y="575" type="line"/>
      <point x="295" y="551" type="line"/>
      <point x="298" y="536"/>
      <point x="300" y="518.667"/>
      <point x="305" y="503.333" type="curve"/>
      <point x="378.333" y="250" type="line"/>
      <point x="201.667" y="250" type="line"/>
    </contour>
  </outline>
</glyph>
<glyph name="B" format="2">
  <advance width="587"/>
  <unicode hex="0042"/>
  <outline>
    <contour>
      <point x="285" y="0" type="line" smooth="yes"/>
      <point x="461.667" y="0"/>
      <point x="536.667" y="75"/>
      <point x="536.667" y="191.667" type="curve" smooth="yes"/>
      <point x="536.667" y="268.667"/>
      <point x="500.667" y="313"/>
      <point x="465" y="339" type="curve"/>
      <point x="443.667" y="353.667"/>
      <point x="420" y="364.333"/>
      <point x="393.333" y="370" type="curve"/>
      <point x="415" y="375.667"/>
      <point x="434.667" y="385.333"/>
      <point x="452" y="398" type="curve" smooth="yes"/>
      <point x="481.667" y="420.333"/>
      <point x="511.667" y="458.333"/>
      <point x="511.667" y="523.333" type="curve" smooth="yes"/>
      <point x="511.667" y="624.667"/>
      <point x="436.333" y="700"/>
      <point x="285" y="700" type="curve" smooth="yes"/>
      <point x="88.3333" y="700" type="line"/>
      <point x="88.3333" y="0" type="line"/>
    </contour>
    <contour>
      <point x="201.667" y="326.667" type="line"/>
      <point x="285" y="326.667" type="line" smooth="yes"/>
      <point x="379.333" y="326.667"/>
      <point x="423.333" y="284"/>
      <point x="423.333" y="201.667" type="curve" smooth="yes"/>
      <point x="423.333" y="119.333"/>
      <point x="379.333" y="76.6667"/>
      <point x="285" y="76.6667" type="curve" smooth="yes"/>
      <point x="201.667" y="76.6667" type="line"/>
    </contour>
    <contour>
      <point x="201.667" y="623.333" type="line"/>
      <point x="285" y="623.333" type="line" smooth="yes"/>
      <point x="355.667" y="623.333"/>
      <point x="398.333" y="580.667"/>
      <point x="398.333" y="513.333" type="curve" smooth="yes"/>
      <point x="398.333" y="446"/>
      <point x="355.667" y="403.333"/>
      <point x="285" y="403.333" type="curve" smooth="yes"/>
      <point x="201.667" y="403.333" type="line"/>
    </contour>
  </outline>
</glyph>
<glyph name="E" format="2">
  <advance width="517"/>
  <unicode hex="0045"/>
  <outline>
    <contour>
      <point x="488.333" y="0" type="line"/>
      <point x="488.333" y="76.6667" type="line"/>
      <point x="201.667" y="76.6667" type="line"/>
      <point x="201.667" y="326.667" type="line"/>
      <point x="428.333" y="326.667" type="line"/>
      <point x="428.333" y="403.333" type="line"/>
      <point x="201.667" y="403.333" type="line"/>
      <point x="201.667" y="623.333" type="line"/>
      <point x="488.333" y="623.333" type="line"/>
      <point x="488.333" y="700" type="line"/>
      <point x="88.3333" y="700" type="line"/>
      <point x="88.3333" y="0" type="line"/>
    </contour>
  </outline>
</glyph>
<glyph name="H" format="2">
  <advance width="640"/>
  <unicode hex="0048"/>
  <outline>
    <contour>
      <point x="201.667" y="0" type="line"/>
      <point x="201.667" y="316.667" type="line"/>
      <point x="438.333" y="316.667" type="line"/>
      <point x="438.333" y="0" type="line"/>
      <point x="551.667" y="0" type="line"/>
      <point x="551.667" y="700" type="line"/>
      <point x="438.333" y="700" type="line"/>
      <point x="438.333" y="393.333" type="line"/>
      <point x="201.667" y="393.333" type="line"/>
      <point x="201.667" y="700" type="line"/>
      <point x="88.3333" y="700" type="line"/>
      <point x="88.3333" y="0" type="line"/>
    </contour>
  </outline>
</glyph>
<glyph name="I" format="2">
  <advance width="290"/>
  <unicode hex="0049"/>
  <anchor x="145" y="0" name="bottom"/>
  <anchor x="201.667" y="0" name="ogonek"/>
  <anchor x="145" y="700" name="top"/>
  <anchor x="20" y="700" name="topleft"/>
  <outline>
    <contour>
      <point x="201.667" y="0" type="line"/>
      <point x="201.667" y="700" type="line"/>
      <point x="88.3333" y="700" type="line"/>
      <point x="88.3333" y="0" type="line"/>
    </contour>
  </outline>
</glyph>
<glyph name="J" format="2">
  <advance width="433"/>
  <unicode hex="004A"/>
  <outline>
    <contour>
      <point x="140" y="-10" type="curve" smooth="yes"/>
      <point x="279" y="-10"/>
      <point x="351.667" y="62.6667"/>
      <point x="351.667" y="190" type="curve" smooth="yes"/>
      <point x="351.667" y="700" type="line"/>
      <point x="238.333" y="700" type="line"/>
      <point x="238.333" y="190" type="line" smooth="yes"/>
      <point x="238.333" y="104"/>
      <point x="200.667" y="66.6667"/>
      <point x="130" y="66.6667" type="curve" smooth="yes"/>
      <point x="107" y="66.6667"/>
      <point x="86.3333" y="75.6667"/>
      <point x="70" y="86.6667" type="curve" smooth="yes"/>
      <point x="60.6667" y="92.6667"/>
      <point x="51.6667" y="99.6667"/>
      <point x="43.3333" y="106.667" type="curve"/>
      <point x="33.3333" y="106.667" type="line"/>
      <point x="0" y="35" type="line"/>
      <point x="11.6667" y="26"/>
      <point x="24.6667" y="19"/>
      <point x="39.6667" y="12" type="curve" smooth="yes"/>
      <point x="64.6667" y="1"/>
      <point x="100" y="-10"/>
    </contour>
  </outline>
</glyph>
<glyph name="L" format="2">
  <advance width="495"/>
  <unicode hex="004C"/>
  <outline>
    <contour>
      <point x="485" y="0" type="line"/>
      <point x="485" y="76.6667" type="line"/>
      <point x="201.667" y="76.6667" type="line"/>
      <point x="201.667" y="700" type="line"/>
      <point x="88.3333" y="700" type="line"/>
      <point x="88.3333" y="0" type="line"/>
    </contour>
  </outline>
</glyph>
<glyph name="M" format="2">
  <advance width="850"/>
  <unicode hex="004D"/>
  <outline>
    <contour>
      <point x="201.667" y="0" type="line"/>
      <point x="201.667" y="428.333" type="line" smooth="yes"/>
      <point x="201.667" y="443.333"/>
      <point x="200.333" y="462"/>
      <point x="199.333" y="479" type="curve" smooth="yes"/>
      <point x="197.333" y="507" type="line"/>
      <point x="201.333" y="507" type="line"/>
      <point x="202.945" y="501.412"/>
      <point x="207.678" y="484.738"/>
      <point x="209.667" y="479" type="curve" smooth="yes"/>
      <point x="216" y="462"/>
      <point x="222.333" y="443.333"/>
      <point x="230" y="428.333" type="curve" smooth="yes"/>
      <point x="385" y="121.667" type="line"/>
      <point x="461.667" y="121.667" type="line"/>
      <point x="620" y="431.667" type="line" smooth="yes"/>
      <point x="628" y="446.667"/>
      <point x="634" y="465.333"/>
      <point x="640.333" y="482.333" type="curve" smooth="yes"/>
      <point x="642.322" y="488.071"/>
      <point x="647.055" y="504.745"/>
      <point x="648.667" y="510.333" type="curve"/>
      <point x="652.667" y="510.333" type="line"/>
      <point x="650.333" y="482.333" type="line" smooth="yes"/>
      <point x="649" y="465.333"/>
      <point x="648.333" y="446.667"/>
      <point x="648.333" y="431.667" type="curve" smooth="yes"/>
      <point x="648.333" y="0" type="line"/>
      <point x="761.667" y="0" type="line"/>
      <point x="761.667" y="700" type="line"/>
      <point x="650" y="700" type="line"/>
      <point x="445" y="285" type="line"/>
      <point x="440" y="276"/>
      <point x="435" y="264.333"/>
      <point x="432" y="253.333" type="curve" smooth="yes"/>
      <point x="430.358" y="247.618"/>
      <point x="427.924" y="239.876"/>
      <point x="427" y="235" type="curve"/>
      <point x="423" y="235" type="line"/>
      <point x="422.076" y="239.876"/>
      <point x="419.642" y="247.618"/>
      <point x="418" y="253.333" type="curve" smooth="yes"/>
      <point x="415" y="264.333"/>
      <point x="410" y="276"/>
      <point x="405" y="285" type="curve"/>
      <point x="200" y="700" type="line"/>
      <point x="88.3333" y="700" type="line"/>
      <point x="88.3333" y="0" type="line"/>
    </contour>
  </outline>
</glyph>
<glyph name="N" format="2">
  <advance width="640"/>
  <unicode hex="004E"/>
  <outline>
    <contour>
      <point x="201.667" y="0" type="line"/>
      <point x="201.667" y="450" type="line" smooth="yes"/>
      <point x="201.667" y="465"/>
      <point x="200.333" y="483.667"/>
      <point x="199.333" y="500.667" type="curve" smooth="yes"/>
      <point x="197.333" y="528.333" type="line"/>
      <point x="201.333" y="528.333" type="line"/>
      <point x="203.8" y="519.776"/>
      <point x="208.24" y="508.454"/>
      <point x="210.667" y="500.667" type="curve" smooth="yes"/>
      <point x="216.333" y="483.667"/>
      <point x="223.333" y="465"/>
      <point x="230" y="450" type="curve" smooth="yes"/>
      <point x="428.333" y="0" type="line"/>
      <point x="551.667" y="0" type="line"/>
      <point x="551.667" y="700" type="line"/>
      <point x="438.333" y="700" type="line"/>
      <point x="438.333" y="250" type="line" smooth="yes"/>
      <point x="438.333" y="235"/>
      <point x="439" y="214.667"/>
      <point x="440.333" y="199.333" type="curve" smooth="yes"/>
      <point x="442.667" y="171.667" type="line"/>
      <point x="438.667" y="171.667" type="line"/>
      <point x="436.24" y="179.454"/>
      <point x="431.8" y="190.776"/>
      <point x="429.333" y="199.333" type="curve"/>
      <point x="423" y="214.667"/>
      <point x="416.667" y="235"/>
      <point x="410" y="250" type="curve" smooth="yes"/>
      <point x="211.667" y="700" type="line"/>
      <point x="88.3333" y="700" type="line"/>
      <point x="88.3333" y="0" type="line"/>
    </contour>
  </outline>
</glyph>
<glyph name="P" format="2">
  <advance width="575"/>
  <unicode hex="0050"/>
  <outline>
    <contour>
      <point x="201.667" y="0" type="line"/>
      <point x="201.667" y="236.667" type="line"/>
      <point x="275" y="236.667" type="line" smooth="yes"/>
      <point x="452.667" y="236.667"/>
      <point x="531.667" y="315.667"/>
      <point x="531.667" y="468.333" type="curve" smooth="yes"/>
      <point x="531.667" y="621"/>
      <point x="452.667" y="700"/>
      <point x="275" y="700" type="curve" smooth="yes"/>
      <point x="88.3333" y="700" type="line"/>
      <point x="88.3333" y="0" type="line"/>
    </contour>
    <contour>
      <point x="201.667" y="623.333" type="line"/>
      <point x="275" y="623.333" type="line" smooth="yes"/>
      <point x="372" y="623.333"/>
      <point x="418.333" y="577.333"/>
      <point x="418.333" y="468.333" type="curve" smooth="yes"/>
      <point x="418.333" y="359.333"/>
      <point x="372" y="313.333"/>
      <point x="275" y="313.333" type="curve" smooth="yes"/>
      <point x="201.667" y="313.333" type="line"/>
    </contour>
  </outline>
</glyph>
<glyph name="R" format="2">
  <advance width="583"/>
  <unicode hex="0052"/>
  <outline>
    <contour>
      <point x="201.667" y="0" type="line"/>
      <point x="201.667" y="256.667" type="line"/>
      <point x="273.333" y="256.667" type="line"/>
      <point x="425" y="0" type="line"/>
      <point x="555" y="0" type="line"/>
      <point x="387" y="275" type="line"/>
      <point x="476.667" y="304.667"/>
      <point x="521.667" y="377"/>
      <point x="521.667" y="478.333" type="curve" smooth="yes"/>
      <point x="521.667" y="620.667"/>
      <point x="442" y="700"/>
      <point x="265" y="700" type="curve" smooth="yes"/>
      <point x="88.3333" y="700" type="line"/>
      <point x="88.3333" y="0" type="line"/>
    </contour>
    <contour>
      <point x="201.667" y="623.333" type="line"/>
      <point x="265" y="623.333" type="line" smooth="yes"/>
      <point x="362" y="623.333"/>
      <point x="408.333" y="577"/>
      <point x="408.333" y="478.333" type="curve" smooth="yes"/>
      <point x="408.333" y="379.667"/>
      <point x="362" y="333.333"/>
      <point x="265" y="333.333" type="curve" smooth="yes"/>
      <point x="201.667" y="333.333" type="line"/>
    </contour>
  </outline>
</glyph>
<glyph name="T" format="2">
  <advance width="490"/>
  <unicode hex="0054"/>
  <outline>
    <contour>
      <point x="301.667" y="0" type="line"/>
      <point x="301.667" y="623.333" type="line"/>
      <point x="480" y="623.333" type="line"/>
      <point x="480" y="700" type="line"/>
      <point x="10" y="700" type="line"/>
      <point x="10" y="623.333" type="line"/>
      <point x="188.333" y="623.333" type="line"/>
      <point x="188.333" y="0" type="line"/>
    </contour>
  </outline>
</glyph>
<glyph name="U" format="2">
  <advance width="627"/>
  <unicode hex="0055"/>
  <outline>
    <contour>
      <point x="313.333" y="-10" type="curve" smooth="yes"/>
      <point x="462" y="-10"/>
      <point x="545" y="72.3333"/>
      <point x="545" y="223.333" type="curve" smooth="yes"/>
      <point x="545" y="700" type="line"/>
      <point x="431.667" y="700" type="line"/>
      <point x="431.667" y="223.333" type="line" smooth="yes"/>
      <point x="431.667" y="114.333"/>
      <point x="384" y="66.6667"/>
      <point x="313.333" y="66.6667" type="curve" smooth="yes"/>
      <point x="242.667" y="66.6667"/>
      <point x="195" y="114.333"/>
      <point x="195" y="223.333" type="curve" smooth="yes"/>
      <point x="195" y="700" type="line"/>
      <point x="81.6667" y="700" type="line"/>
      <point x="81.6667" y="223.333" type="line" smooth="yes"/>
      <point x="81.6667" y="72.3333"/>
      <point x="164.667" y="-10"/>
    </contour>
  </outline>
</glyph>
<glyph name="V" format="2">
  <advance width="545"/>
  <unicode hex="0056"/>
  <outline>
    <contour>
      <point x="327.667" y="0" type="line"/>
      <point x="524.333" y="700" type="line"/>
      <point x="428.333" y="700" type="line"/>
      <point x="290" y="196.667" type="line" smooth="yes"/>
      <point x="285.667" y="181.333"/>
      <point x="283" y="164.333"/>
      <point x="280" y="149.333" type="curve"/>
      <point x="277" y="125" type="line"/>
      <point x="273" y="125" type="line"/>
      <point x="269" y="149.667" type="line"/>
      <point x="266" y="164.667"/>
      <point x="264" y="181.333"/>
      <point x="260" y="196.667" type="curve" smooth="yes"/>
      <point x="121.667" y="700" type="line"/>
      <point x="19" y="700" type="line"/>
      <point x="215.667" y="0" type="line"/>
    </contour>
  </outline>
</glyph>
<glyph name="bracketleft" format="2">
  <advance width="318"/>
  <unicode hex="005B"/>
  <outline>
    <contour>
      <point x="301.667" y="-170" type="line"/>
      <point x="301.667" y="-93.3333" type="line"/>
      <point x="201.667" y="-93.3333" type="line"/>
      <point x="201.667" y="653.333" type="line"/>
      <point x="301.667" y="653.333" type="line"/>
      <point x="301.667" y="730" type="line"/>
      <point x="88.3333" y="730" type="line"/>
      <point x="88.3333" y="-170" type="line"/>
    </contour>
  </outline>
</glyph>
<glyph name="backslash" format="2">
  <advance width="423"/>
  <unicode hex="005C"/>
  <outline>
    <contour>
      <point x="423.333" y="0" type="line"/>
      <point x="113.333" y="700" type="line"/>
      <point x="0" y="700" type="line"/>
      <point x="310" y="0" type="line"/>
    </contour>
  </outline>
</glyph>
<glyph name="underscore" format="2">
  <advance width="383"/>
  <unicode hex="005F"/>
  <outline>
    <contour>
      <point x="383.333" y="-133.333" type="line"/>
      <point x="383.333" y="-46.6667" type="line"/>
      <point x="0" y="-46.6667" type="line"/>
      <point x="0" y="-133.333" type="line"/>
    </contour>
  </outline>
</glyph>
<glyph name="d" format="2">
  <advance width="543"/>
  <unicode hex="0064"/>
  <outline>
    <contour>
      <point x="233.333" y="-10" type="curve" smooth="yes"/>
      <point x="282.333" y="-10"/>
      <point x="316.667" y="6"/>
      <point x="340.333" y="25" type="curve"/>
      <point x="354" y="35"/>
      <point x="365.667" y="47"/>
      <point x="375" y="60" type="curve"/>
      <point x="380" y="60" type="line"/>
      <point x="390" y="0" type="line"/>
      <point x="470" y="0" type="line"/>
      <point x="470" y="700" type="line"/>
      <point x="390" y="700" type="line"/>
      <point x="356.667" y="666.667" type="line"/>
      <point x="356.667" y="480" type="line"/>
      <point x="325.333" y="495" type="line"/>
      <point x="305.667" y="502"/>
      <point x="281" y="510"/>
      <point x="250" y="510" type="curve" smooth="yes"/>
      <point x="131.667" y="510"/>
      <point x="46.6667" y="425"/>
      <point x="46.6667" y="250" type="curve" smooth="yes"/>
      <point x="46.6667" y="75"/>
      <point x="131.667" y="-10"/>
    </contour>
    <contour>
      <point x="258.333" y="71.6667" type="curve" smooth="yes"/>
      <point x="206" y="71.6667"/>
      <point x="160" y="118.333"/>
      <point x="160" y="250" type="curve" smooth="yes"/>
      <point x="160" y="386.667"/>
      <point x="207.333" y="433.333"/>
      <point x="268.333" y="433.333" type="curve" smooth="yes"/>
      <point x="294" y="433.333"/>
      <point x="316" y="427.333"/>
      <point x="331.667" y="421.667" type="curve" smooth="yes"/>
      <point x="339.601" y="418.761"/>
      <point x="350.248" y="413.442"/>
      <point x="356.667" y="410" type="curve"/>
      <point x="356.667" y="131.667" type="line"/>
      <point x="348.333" y="120.667"/>
      <point x="339.333" y="110.667"/>
      <point x="329.333" y="101.667" type="curve"/>
      <point x="311.667" y="86.6667"/>
      <point x="288" y="71.6667"/>
    </contour>
  </outline>
</glyph>
<glyph name="l" format="2">
  <advance width="260"/>
  <unicode hex="006C"/>
  <outline>
    <contour>
      <point x="186.667" y="0" type="line"/>
      <point x="186.667" y="700" type="line"/>
      <point x="106.667" y="700" type="line"/>
      <point x="73.3333" y="666.667" type="line"/>
      <point x="73.3333" y="0" type="line"/>
    </contour>
  </outline>
</glyph>
<glyph name="m" format="2">
  <advance width="815"/>
  <unicode hex="006D"/>
  <outline>
    <contour>
      <point x="186.667" y="0" type="line"/>
      <point x="186.667" y="368.333" type="line"/>
      <point x="194.333" y="379.333"/>
      <point x="202.667" y="389.333"/>
      <point x="212.333" y="398.333" type="curve" smooth="yes"/>
      <point x="227.667" y="413.333"/>
      <point x="250" y="428.333"/>
      <point x="275" y="428.333" type="curve" smooth="yes"/>
      <point x="316.667" y="428.333"/>
      <point x="353.333" y="392.333"/>
      <point x="353.333" y="333.333" type="curve" smooth="yes"/>
      <point x="353.333" y="0" type="line"/>
      <point x="466.667" y="0" type="line"/>
      <point x="466.667" y="378.333" type="line"/>
      <point x="475" y="387.333"/>
      <point x="483.333" y="396.333"/>
      <point x="493" y="403.333" type="curve"/>
      <point x="508.667" y="415.333"/>
      <point x="530.667" y="428.333"/>
      <point x="555" y="428.333" type="curve" smooth="yes"/>
      <point x="596.667" y="428.333"/>
      <point x="633.333" y="392.333"/>
      <point x="633.333" y="333.333" type="curve" smooth="yes"/>
      <point x="633.333" y="0" type="line"/>
      <point x="746.667" y="0" type="line"/>
      <point x="746.667" y="333.333" type="line" smooth="yes"/>
      <point x="746.667" y="440.333"/>
      <point x="677" y="510"/>
      <point x="580" y="510" type="curve" smooth="yes"/>
      <point x="534" y="510"/>
      <point x="497.333" y="492"/>
      <point x="470.333" y="475" type="curve"/>
      <point x="455.333" y="464"/>
      <point x="441.667" y="453"/>
      <point x="430" y="440" type="curve"/>
      <point x="423" y="453"/>
      <point x="413.333" y="464"/>
      <point x="401.333" y="475" type="curve"/>
      <point x="380.667" y="492"/>
      <point x="348.333" y="510"/>
      <point x="300" y="510" type="curve" smooth="yes"/>
      <point x="258" y="510"/>
      <point x="225.333" y="492"/>
      <point x="203" y="475" type="curve"/>
      <point x="190.333" y="464"/>
      <point x="178.667" y="453"/>
      <point x="168.333" y="440" type="curve"/>
      <point x="163.333" y="440" type="line"/>
      <point x="153.333" y="500" type="line"/>
      <point x="73.3333" y="500" type="line"/>
      <point x="73.3333" y="0" type="line"/>
    </contour>
  </outline>
</glyph>
<glyph name="n" format="2">
  <advance width="555"/>
  <unicode hex="006E"/>
  <outline>
    <contour>
      <point x="186.667" y="0" type="line"/>
      <point x="186.667" y="368.333" type="line"/>
      <point x="195" y="379.333"/>
      <point x="204" y="389.333"/>
      <point x="214" y="398.333" type="curve"/>
      <point x="231.667" y="413.333"/>
      <point x="255" y="428.333"/>
      <point x="285" y="428.333" type="curve" smooth="yes"/>
      <point x="337.333" y="428.333"/>
      <point x="373.333" y="392.333"/>
      <point x="373.333" y="333.333" type="curve" smooth="yes"/>
      <point x="373.333" y="0" type="line"/>
      <point x="486.667" y="0" type="line"/>
      <point x="486.667" y="333.333" type="line" smooth="yes"/>
      <point x="486.667" y="440.333"/>
      <point x="417" y="510"/>
      <point x="310" y="510" type="curve" smooth="yes"/>
      <point x="261" y="510"/>
      <point x="226.667" y="492"/>
      <point x="203" y="475" type="curve"/>
      <point x="189.333" y="464"/>
      <point x="177.333" y="453"/>
      <point x="168.333" y="440" type="curve"/>
      <point x="163.333" y="440" type="line"/>
      <point x="153.333" y="500" type="line"/>
      <point x="73.3333" y="500" type="line"/>
      <point x="73.3333" y="0" type="line"/>
    </contour>
  </outline>
</glyph>
<glyph name="q" format="2">
  <advance width="543"/>
  <unicode hex="0071"/>
  <outline>
    <contour>
      <point x="470" y="-200" type="line"/>
      <point x="470" y="500" type="line"/>
      <point x="390" y="500" type="line"/>
      <point x="380" y="440" type="line"/>
      <point x="375" y="440" type="line"/>
      <point x="365.667" y="453"/>
      <point x="354" y="464"/>
      <point x="340.333" y="475" type="curve"/>
      <point x="316.667" y="492"/>
      <point x="282.333" y="510"/>
      <point x="233.333" y="510" type="curve" smooth="yes"/>
      <point x="131.667" y="510"/>
      <point x="46.6667" y="425"/>
      <point x="46.6667" y="250" type="curve" smooth="yes"/>
      <point x="46.6667" y="75"/>
      <point x="131.667" y="-10"/>
      <point x="250" y="-10" type="curve" smooth="yes"/>
      <point x="281" y="-10"/>
      <point x="305.667" y="-3"/>
      <point x="325.333" y="5" type="curve"/>
      <point x="336.667" y="9"/>
      <point x="347" y="14"/>
      <point x="356.667" y="20" type="curve"/>
      <point x="356.667" y="-166.667" type="line"/>
      <point x="390" y="-200" type="line"/>
    </contour>
    <contour>
      <point x="268.333" y="66.6667" type="curve" smooth="yes"/>
      <point x="207.333" y="66.6667"/>
      <point x="160" y="113.333"/>
      <point x="160" y="250" type="curve" smooth="yes"/>
      <point x="160" y="381.667"/>
      <point x="206" y="428.333"/>
      <point x="258.333" y="428.333" type="curve" smooth="yes"/>
      <point x="288" y="428.333"/>
      <point x="311.667" y="413.333"/>
      <point x="329.333" y="398.333" type="curve"/>
      <point x="339.333" y="389.333"/>
      <point x="348.333" y="379.333"/>
      <point x="356.667" y="368.333" type="curve"/>
      <point x="356.667" y="90" type="line"/>
      <point x="349" y="85.3333"/>
      <point x="340.667" y="81.6667"/>
      <point x="331.667" y="78.3333" type="curve" smooth="yes"/>
      <point x="316" y="72.3333"/>
      <point x="294" y="66.6667"/>
    </contour>
  </outline>
</glyph>
<glyph name="w" format="2">
  <advance width="714"/>
  <unicode hex="0077"/>
  <outline>
    <contour>
      <point x="252.333" y="0" type="line"/>
      <point x="335.667" y="308.333" type="line" smooth="yes"/>
      <point x="338.667" y="320"/>
      <point x="342" y="335.667"/>
      <point x="343.667" y="349.333" type="curve" smooth="yes"/>
      <point x="347" y="373.333" type="line"/>
      <point x="351" y="373.333" type="line"/>
      <point x="354.333" y="349.333" type="line" smooth="yes"/>
      <point x="356" y="335.667"/>
      <point x="358.667" y="320"/>
      <point x="362.333" y="308.333" type="curve"/>
      <point x="445.667" y="0" type="line"/>
      <point x="553.667" y="0" type="line"/>
      <point x="685.333" y="500" type="line"/>
      <point x="578.667" y="500" type="line"/>
      <point x="502" y="205" type="line" smooth="yes"/>
      <point x="498.333" y="190.667"/>
      <point x="496.333" y="176.333"/>
      <point x="494.667" y="164" type="curve" smooth="yes"/>
      <point x="493.888" y="158.217"/>
      <point x="492.777" y="149.105"/>
      <point x="492.667" y="143.333" type="curve"/>
      <point x="488.667" y="143.333" type="line"/>
      <point x="486" y="164" type="line"/>
      <point x="483.667" y="175.667"/>
      <point x="482.333" y="191.333"/>
      <point x="478.667" y="205" type="curve" smooth="yes"/>
      <point x="401" y="500" type="line"/>
      <point x="302.333" y="500" type="line"/>
      <point x="221.667" y="205" type="line" smooth="yes"/>
      <point x="218" y="191.333"/>
      <point x="216" y="175.667"/>
      <point x="213.667" y="164" type="curve"/>
      <point x="212.888" y="158.217"/>
      <point x="211.777" y="149.105"/>
      <point x="211.667" y="143.333" type="curve"/>
      <point x="207.667" y="143.333" type="line"/>
      <point x="205.667" y="164" type="line"/>
      <point x="203.333" y="175.667"/>
      <point x="202" y="191.333"/>
      <point x="198.333" y="205" type="curve" smooth="yes"/>
      <point x="121.667" y="500" type="line"/>
      <point x="15" y="500" type="line"/>
      <point x="146.667" y="0" type="line"/>
    </contour>
  </outline>
</glyph>
<glyph name="z" format="2">
  <advance width="450"/>
  <unicode hex="007A"/>
  <outline>
    <contour>
      <point x="415" y="0" type="line"/>
      <point x="415" y="76.6667" type="line"/>
      <point x="155" y="76.6667" type="line"/>
      <point x="410" y="418.333" type="line"/>
      <point x="410" y="500" type="line"/>
      <point x="35" y="500" type="line"/>
      <point x="35" y="423.333" type="line"/>
      <point x="286.667" y="423.333" type="line"/>
      <point x="35" y="81.6667" type="line"/>
      <point x="35" y="0" type="line"/>
    </contour>
  </outline>
</glyph>
<glyph name="braceleft" format="2">
  <advance width="328"/>
  <unicode hex="007B"/>
  <outline>
    <contour>
      <point x="318.333" y="-170" type="line"/>
      <point x="318.333" y="-93.3333" type="line"/>
      <point x="283.333" y="-93.3333" type="line" smooth="yes"/>
      <point x="246.333" y="-93.3333"/>
      <point x="221.667" y="-68.3333"/>
      <point x="221.667" y="-26.6667" type="curve" smooth="yes"/>
      <point x="221.667" y="150" type="line" smooth="yes"/>
      <point x="221.667" y="210"/>
      <point x="201" y="241"/>
      <point x="180" y="260" type="curve"/>
      <point x="167.667" y="270"/>
      <point x="154" y="277"/>
      <point x="138.333" y="280" type="curve"/>
      <point x="154" y="283"/>
      <point x="167.667" y="289"/>
      <point x="180" y="300" type="curve"/>
      <point x="201" y="317"/>
      <point x="221.667" y="350"/>
      <point x="221.667" y="410" type="curve" smooth="yes"/>
      <point x="221.667" y="586.667" type="line" smooth="yes"/>
      <point x="221.667" y="628.333"/>
      <point x="246.333" y="653.333"/>
      <point x="283.333" y="653.333" type="curve" smooth="yes"/>
      <point x="318.333" y="653.333" type="line"/>
      <point x="318.333" y="730" type="line"/>
      <point x="283.333" y="730" type="line" smooth="yes"/>
      <point x="168.333" y="730"/>
      <point x="108.333" y="670"/>
      <point x="108.333" y="586.667" type="curve" smooth="yes"/>
      <point x="108.333" y="410" type="line" smooth="yes"/>
      <point x="108.333" y="341"/>
      <point x="86" y="318.333"/>
      <point x="33.3333" y="318.333" type="curve"/>
      <point x="33.3333" y="241.667" type="line"/>
      <point x="86" y="241.667"/>
      <point x="108.333" y="219"/>
      <point x="108.333" y="150" type="curve" smooth="yes"/>
      <point x="108.333" y="-26.6667" type="line" smooth="yes"/>
      <point x="108.333" y="-110.333"/>
      <point x="168.333" y="-170"/>
      <point x="283.333" y="-170" type="curve" smooth="yes"/>
    </contour>
  </outline>
</glyph>
<glyph name="bar" format="2">
  <advance width="290"/>
  <unicode hex="007C"/>
  <outline>
    <contour>
      <point x="201.667" y="-200" type="line"/>
      <point x="201.667" y="700" type="line"/>
      <point x="88.3333" y="700" type="line"/>
      <point x="88.3333" y="-200" type="line"/>
    </contour>
  </outline>
</glyph>
<glyph name="braceright" format="2">
  <advance width="328"/>
  <unicode hex="007D"/>
  <outline>
    <contour>
      <point x="45" y="-170" type="line" smooth="yes"/>
      <point x="160" y="-170"/>
      <point x="220" y="-110.333"/>
      <point x="220" y="-26.6667" type="curve" smooth="yes"/>
      <point x="220" y="150" type="line" smooth="yes"/>
      <point x="220" y="219"/>
      <point x="242.333" y="241.667"/>
      <point x="295" y="241.667" type="curve"/>
      <point x="295" y="318.333" type="line"/>
      <point x="242.333" y="318.333"/>
      <point x="220" y="341"/>
      <point x="220" y="410" type="curve" smooth="yes"/>
      <point x="220" y="586.667" type="line" smooth="yes"/>
      <point x="220" y="670"/>
      <point x="160" y="730"/>
      <point x="45" y="730" type="curve" smooth="yes"/>
      <point x="10" y="730" type="line"/>
      <point x="10" y="653.333" type="line"/>
      <point x="45" y="653.333" type="line" smooth="yes"/>
      <point x="82" y="653.333"/>
      <point x="106.667" y="628.333"/>
      <point x="106.667" y="586.667" type="curve" smooth="yes"/>
      <point x="106.667" y="410" type="line" smooth="yes"/>
      <point x="106.667" y="350"/>
      <point x="127.333" y="317"/>
      <point x="148.333" y="300" type="curve"/>
      <point x="160.667" y="289"/>
      <point x="174.333" y="283"/>
      <point x="190" y="280" type="curve"/>
      <point x="174.333" y="277"/>
      <point x="160.667" y="270"/>
      <point x="148.333" y="260" type="curve"/>
      <point x="127.333" y="241"/>
      <point x="106.667" y="210"/>
      <point x="106.667" y="150" type="curve" smooth="yes"/>
      <point x="106.667" y="-26.6667" type="line" smooth="yes"/>
      <point x="106.667" y="-68.3333"/>
      <point x="82" y="-93.3333"/>
      <point x="45" y="-93.3333" type="curve" smooth="yes"/>
      <point x="10" y="-93.3333" type="line"/>
      <point x="10" y="-170" type="line"/>
    </contour>
  </outline>
</glyph>
<glyph name="cent" format="2">
  <advance width="462"/>
  <unicode hex="00A2"/>
  <outline>
    <contour>
      <point x="318.333" y="-70" type="line"/>
      <point x="318.333" y="-6.66667" type="line"/>
      <point x="356" y="-1.66667"/>
      <point x="385.333" y="10.6667"/>
      <point x="407.667" y="22.3333" type="curve" smooth="yes"/>
      <point x="420.333" y="29"/>
      <point x="431.333" y="36.3333"/>
      <point x="441.667" y="43.3333" type="curve"/>
      <point x="403.333" y="110" type="line"/>
      <point x="393.333" y="110" type="line"/>
      <point x="384" y="101.667"/>
      <point x="373.667" y="94.6667"/>
      <point x="362" y="88" type="curve" smooth="yes"/>
      <point x="342.333" y="77"/>
      <point x="316.333" y="66.6667"/>
      <point x="285" y="66.6667" type="curve" smooth="yes"/>
      <point x="206.667" y="66.6667"/>
      <point x="160" y="113.333"/>
      <point x="160" y="250" type="curve" smooth="yes"/>
      <point x="160" y="386.667"/>
      <point x="207.667" y="433.333"/>
      <point x="275" y="433.333" type="curve" smooth="yes"/>
      <point x="306.333" y="433.333"/>
      <point x="332.333" y="422.333"/>
      <point x="352" y="411.333" type="curve" smooth="yes"/>
      <point x="363.667" y="404.667"/>
      <point x="374" y="397.667"/>
      <point x="383.333" y="390" type="curve"/>
      <point x="393.333" y="390" type="line"/>
      <point x="431.667" y="456.667" type="line"/>
      <point x="422.667" y="463.333"/>
      <point x="412.333" y="469.333"/>
      <point x="400.667" y="475.667" type="curve" smooth="yes"/>
      <point x="381" y="486"/>
      <point x="352.333" y="497.667"/>
      <point x="318.333" y="505" type="curve"/>
      <point x="318.333" y="560" type="line"/>
      <point x="208.333" y="560" type="line"/>
      <point x="208.333" y="503.333" type="line"/>
      <point x="108.667" y="481"/>
      <point x="46.6667" y="399"/>
      <point x="46.6667" y="250" type="curve" smooth="yes"/>
      <point x="46.6667" y="102.333"/>
      <point x="104.667" y="21.6667"/>
      <point x="208.333" y="-2" type="curve"/>
      <point x="208.333" y="-70" type="line"/>
    </contour>
  </outline>
</glyph>
<glyph name="section" format="2">
  <advance width="520"/>
  <unicode hex="00A7"/>
  <outline>
    <contour>
      <point x="243.333" y="-210" type="curve" smooth="yes"/>
      <point x="394.667" y="-210"/>
      <point x="466.667" y="-138.667"/>
      <point x="466.667" y="-30" type="curve" smooth="yes"/>
      <point x="466.667" y="26.6667"/>
      <point x="439.667" y="66.6667"/>
      <point x="399.667" y="93" type="curve"/>
      <point x="450.667" y="121.667"/>
      <point x="476.667" y="176"/>
      <point x="476.667" y="240" type="curve" smooth="yes"/>
      <point x="476.667" y="450"/>
      <point x="166.667" y="410.667"/>
      <point x="166.667" y="543.333" type="curve" smooth="yes"/>
      <point x="166.667" y="595.667"/>
      <point x="204.667" y="633.333"/>
      <point x="276.667" y="633.333" type="curve" smooth="yes"/>
      <point x="322.667" y="633.333"/>
      <point x="363.333" y="615"/>
      <point x="400" y="588.333" type="curve"/>
      <point x="410" y="588.333" type="line"/>
      <point x="448.333" y="655" type="line"/>
      <point x="396.333" y="691.667"/>
      <point x="329.333" y="710"/>
      <point x="266.667" y="710" type="curve" smooth="yes"/>
      <point x="124.333" y="710"/>
      <point x="53.3333" y="638"/>
      <point x="53.3333" y="533.333" type="curve" smooth="yes"/>
      <point x="53.3333" y="476"/>
      <point x="80" y="435"/>
      <point x="121.667" y="409" type="curve"/>
      <point x="70" y="379.333"/>
      <point x="43.3333" y="326.667"/>
      <point x="43.3333" y="263.333" type="curve" smooth="yes"/>
      <point x="43.3333" y="53"/>
      <point x="353.333" y="93.3333"/>
      <point x="353.333" y="-40" type="curve" smooth="yes"/>
      <point x="353.333" y="-95"/>
      <point x="315.333" y="-133.333"/>
      <point x="233.333" y="-133.333" type="curve" smooth="yes"/>
      <point x="190.333" y="-133.333"/>
      <point x="138" y="-117.667"/>
      <point x="105" y="-88" type="curve"/>
      <point x="95" y="-88" type="line"/>
      <point x="56.6667" y="-154.667" type="line"/>
      <point x="106.333" y="-194"/>
      <point x="182.333" y="-210"/>
    </contour>
    <contour>
      <point x="306.667" y="145" type="curve"/>
      <point x="235" y="166"/>
      <point x="155" y="202.333"/>
      <point x="155" y="273.333" type="curve" smooth="yes"/>
      <point x="155" y="313.333"/>
      <point x="177" y="346.333"/>
      <point x="216.667" y="360" type="curve"/>
      <point x="286.333" y="339.333"/>
      <point x="368.333" y="301.333"/>
      <point x="368.333" y="231.667" type="curve" smooth="yes"/>
      <point x="368.333" y="192"/>
      <point x="346" y="158.667"/>
    </contour>
  </outline>
</glyph>
<glyph name="guillemetleft" format="2">
  <advance width="490"/>
  <unicode hex="00AB"/>
  <outline>
    <contour>
      <point x="298.667" y="63.3333" type="line"/>
      <point x="140" y="250" type="line"/>
      <point x="298.667" y="436.667" type="line"/>
      <point x="228.333" y="501.667" type="line"/>
      <point x="10" y="250" type="line"/>
      <point x="228.333" y="-1.66667" type="line"/>
    </contour>
    <contour>
      <point x="470" y="101.667" type="line"/>
      <point x="345" y="250" type="line"/>
      <point x="470" y="398.333" type="line"/>
      <point x="400" y="463.333" type="line"/>
      <point x="215" y="250" type="line"/>
      <point x="400" y="36.6667" type="line"/>
    </contour>
  </outline>
</glyph>
<glyph name="macron" format="2">
  <advance width="310"/>
  <unicode hex="00AF"/>
  <outline>
    <contour>
      <point x="293.333" y="583.333" type="line"/>
      <point x="293.333" y="660" type="line"/>
      <point x="16.6667" y="660" type="line"/>
      <point x="16.6667" y="583.333" type="line"/>
    </contour>
  </outline>
</glyph>
<glyph name="degree" format="2">
  <advance width="400"/>
  <unicode hex="00B0"/>
  <outline>
    <contour>
      <point x="200" y="370" type="curve" smooth="yes"/>
      <point x="305.333" y="370"/>
      <point x="375" y="440"/>
      <point x="375" y="540" type="curve" smooth="yes"/>
      <point x="375" y="640"/>
      <point x="305.333" y="710"/>
      <point x="200" y="710" type="curve" smooth="yes"/>
      <point x="94.6667" y="710"/>
      <point x="25" y="640"/>
      <point x="25" y="540" type="curve" smooth="yes"/>
      <point x="25" y="440"/>
      <point x="94.6667" y="370"/>
    </contour>
    <contour>
      <point x="200" y="440" type="curve" smooth="yes"/>
      <point x="156.667" y="440"/>
      <point x="123.333" y="472.667"/>
      <point x="123.333" y="540" type="curve" smooth="yes"/>
      <point x="123.333" y="607.333"/>
      <point x="156.667" y="640"/>
      <point x="200" y="640" type="curve" smooth="yes"/>
      <point x="243.333" y="640"/>
      <point x="276.667" y="607.333"/>
      <point x="276.667" y="540" type="curve" smooth="yes"/>
      <point x="276.667" y="472.667"/>
      <point x="243.333" y="440"/>
    </contour>
  </outline>
</glyph>
<glyph name="acute" format="2">
  <advance width="183"/>
  <unicode hex="00B4"/>
  <outline>
    <contour>
      <point x="80" y="550" type="line"/>
      <point x="173.333" y="700" type="line"/>
      <point x="55" y="700" type="line"/>
      <point x="10" y="550" type="line"/>
    </contour>
  </outline>
</glyph>
<glyph name="paragraph" format="2">
  <advance width="570"/>
  <unicode hex="00B6"/>
  <outline>
    <contour>
      <point x="323.333" y="-200" type="line"/>
      <point x="323.333" y="623.333" type="line"/>
      <point x="386.667" y="623.333" type="line"/>
      <point x="386.667" y="-200" type="line"/>
      <point x="486.667" y="-200" type="line"/>
      <point x="486.667" y="623.333" type="line"/>
      <point x="560" y="623.333" type="line"/>
      <point x="560" y="700" type="line"/>
      <point x="223.333" y="700" type="line" smooth="yes"/>
      <point x="110.667" y="700"/>
      <point x="20" y="610.333"/>
      <point x="20" y="488.333" type="curve" smooth="yes"/>
      <point x="20" y="366.333"/>
      <point x="110.667" y="276.667"/>
      <point x="223.333" y="276.667" type="curve"/>
      <point x="223.333" y="-200" type="line"/>
    </contour>
  </outline>
</glyph>
<glyph name="cedilla" format="2">
  <advance width="202"/>
  <unicode hex="00B8"/>
  <outline>
    <contour>
      <point x="91.6667" y="-191.667" type="curve" smooth="yes"/>
      <point x="155.333" y="-191.667"/>
      <point x="191.667" y="-155"/>
      <point x="191.667" y="-110" type="curve" smooth="yes"/>
      <point x="191.667" y="-65"/>
      <point x="156" y="-28.3333"/>
      <point x="100" y="-28.3333" type="curve"/>
      <point x="100" y="20" type="line"/>
      <point x="35" y="20" type="line"/>
      <point x="35" y="-76.6667" type="line"/>
      <point x="78.3333" y="-76.6667" type="line" smooth="yes"/>
      <point x="105.667" y="-76.6667"/>
      <point x="120" y="-90"/>
      <point x="120" y="-110" type="curve" smooth="yes"/>
      <point x="120" y="-130"/>
      <point x="105" y="-143.333"/>
      <point x="81.6667" y="-143.333" type="curve" smooth="yes"/>
      <point x="56.6667" y="-143.333"/>
      <point x="35.6667" y="-128.333"/>
      <point x="36.6667" y="-128.333" type="curve"/>
      <point x="27.6667" y="-128.333" type="line"/>
      <point x="10" y="-171.667" type="line"/>
      <point x="16.3333" y="-175.667"/>
      <point x="23.6667" y="-178.667"/>
      <point x="32" y="-181.667" type="curve" smooth="yes"/>
      <point x="47" y="-186.667"/>
      <point x="66.6667" y="-191.667"/>
    </contour>
  </outline>
</glyph>
<glyph name="onesuperior" format="2">
  <advance width="322"/>
  <unicode hex="00B9"/>
  <outline>
    <contour>
      <point x="291.667" y="360" type="line"/>
      <point x="291.667" y="426.667" type="line"/>
      <point x="218.333" y="426.667" type="line"/>
      <point x="218.333" y="700" type="line"/>
      <point x="125" y="700" type="line"/>
      <point x="30" y="620" type="line"/>
      <point x="61.6667" y="573.333" type="line"/>
      <point x="118.333" y="605" type="line"/>
      <point x="118.333" y="426.667" type="line"/>
      <point x="45" y="426.667" type="line"/>
      <point x="45" y="360" type="line"/>
    </contour>
  </outline>
</glyph>
<glyph name="ordmasculine" format="2">
  <advance width="400"/>
  <unicode hex="00BA"/>
  <outline>
    <contour>
      <point x="200" y="350" type="curve" smooth="yes"/>
      <point x="297.333" y="350"/>
      <point x="365" y="418"/>
      <point x="365" y="530" type="curve" smooth="yes"/>
      <point x="365" y="642"/>
      <point x="297.333" y="710"/>
      <point x="200" y="710" type="curve" smooth="yes"/>
      <point x="102.667" y="710"/>
      <point x="35" y="642"/>
      <point x="35" y="530" type="curve" smooth="yes"/>
      <point x="35" y="418"/>
      <point x="102.667" y="350"/>
    </contour>
    <contour>
      <point x="200" y="416.667" type="curve" smooth="yes"/>
      <point x="163" y="416.667"/>
      <point x="135" y="444.333"/>
      <point x="135" y="530" type="curve" smooth="yes"/>
      <point x="135" y="614.333"/>
      <point x="163" y="643.333"/>
      <point x="200" y="643.333" type="curve" smooth="yes"/>
      <point x="236.333" y="643.333"/>
      <point x="265" y="614.333"/>
      <point x="265" y="530" type="curve" smooth="yes"/>
      <point x="265" y="444.333"/>
      <point x="236.333" y="416.667"/>
    </contour>
  </outline>
</glyph>
<glyph name="guillemetright" format="2">
  <advance width="490"/>
  <unicode hex="00BB"/>
  <outline>
    <contour>
      <point x="480" y="250" type="line"/>
      <point x="261.667" y="501.667" type="line"/>
      <point x="191.333" y="436.667" type="line"/>
      <point x="350" y="250" type="line"/>
      <point x="191.333" y="63.3333" type="line"/>
      <point x="261.667" y="-1.66667" type="line"/>
    </contour>
    <contour>
      <point x="275" y="250" type="line"/>
      <point x="90" y="463.333" type="line"/>
      <point x="20" y="398.333" type="line"/>
      <point x="145" y="250" type="line"/>
      <point x="20" y="101.667" type="line"/>
      <point x="90" y="36.6667" type="line"/>
    </contour>
  </outline>
</glyph>
<glyph name="onequarter" format="2">
  <advance width="770"/>
  <unicode hex="00BC"/>
  <outline>
    <contour>
      <point x="228.333" y="0" type="line"/>
      <point x="698.333" y="700" type="line"/>
      <point x="575" y="700" type="line"/>
      <point x="105" y="0" type="line"/>
    </contour>
    <contour>
      <point x="293.333" y="360" type="line"/>
      <point x="293.333" y="426.667" type="line"/>
      <point x="220" y="426.667" type="line"/>
      <point x="220" y="700" type="line"/>
      <point x="130" y="700" type="line"/>
      <point x="31.6667" y="620" type="line"/>
      <point x="63.3333" y="573.333" type="line"/>
      <point x="120" y="605" type="line"/>
      <point x="120" y="426.667" type="line"/>
      <point x="46.6667" y="426.667" type="line"/>
      <point x="46.6667" y="360" type="line"/>
    </contour>
    <contour>
      <point x="570.333" y="214.667" type="line" smooth="yes"/>
      <point x="574.667" y="219.667"/>
      <point x="579.333" y="230.333"/>
      <point x="583" y="238.667" type="curve"/>
      <point x="585.667" y="243"/>
      <point x="587.333" y="248.333"/>
      <point x="588.333" y="253.667" type="curve"/>
      <point x="592.333" y="253.667" type="line"/>
      <point x="589.333" y="239.333" type="line" smooth="yes"/>
      <point x="587.667" y="231"/>
      <point x="586.667" y="222.667"/>
      <point x="586.667" y="215" type="curve" smooth="yes"/>
      <point x="586.667" y="133.333" type="line"/>
      <point x="503.333" y="133.333" type="line"/>
    </contour>
    <contour>
      <point x="686.667" y="0" type="line"/>
      <point x="686.667" y="66.6667" type="line"/>
      <point x="735" y="66.6667" type="line"/>
      <point x="735" y="133.333" type="line"/>
      <point x="686.667" y="133.333" type="line"/>
      <point x="686.667" y="340" type="line"/>
      <point x="588.333" y="340" type="line"/>
      <point x="418.333" y="133.333" type="line"/>
      <point x="418.333" y="66.6667" type="line"/>
      <point x="586.667" y="66.6667" type="line"/>
      <point x="586.667" y="0" type="line"/>
    </contour>
  </outline>
</glyph>
<glyph name="threequarters" format="2">
  <advance width="759"/>
  <unicode hex="00BE"/>
  <outline>
    <contour>
      <point x="217" y="0" type="line"/>
      <point x="687" y="700" type="line"/>
      <point x="563.667" y="700" type="line"/>
      <point x="93.6667" y="0" type="line"/>
    </contour>
    <contour>
      <point x="161.333" y="350" type="curve" smooth="yes"/>
      <point x="255.333" y="350"/>
      <point x="306" y="401.667"/>
      <point x="306" y="460" type="curve" smooth="yes"/>
      <point x="306" y="522"/>
      <point x="260.667" y="566.667"/>
      <point x="182" y="568.333" type="curve"/>
      <point x="287" y="628.333" type="line"/>
      <point x="287" y="700" type="line"/>
      <point x="47.6667" y="700" type="line"/>
      <point x="47.6667" y="633.333" type="line"/>
      <point x="188.667" y="633.333" type="line"/>
      <point x="73.6667" y="560" type="line"/>
      <point x="73.6667" y="506.667" type="line"/>
      <point x="139.667" y="506.667" type="line" smooth="yes"/>
      <point x="185.333" y="506.667"/>
      <point x="202.667" y="489"/>
      <point x="202.667" y="461.667" type="curve" smooth="yes"/>
      <point x="202.667" y="434.333"/>
      <point x="184.333" y="416.667"/>
      <point x="144.667" y="416.667" type="curve" smooth="yes"/>
      <point x="121.667" y="416.667"/>
      <point x="103.333" y="423.667"/>
      <point x="91" y="431.667" type="curve"/>
      <point x="84" y="435.667"/>
      <point x="76.6667" y="440.667"/>
      <point x="71" y="446.667" type="curve"/>
      <point x="61" y="446.667" type="line"/>
      <point x="31.6667" y="395" type="line"/>
      <point x="41.3333" y="386"/>
      <point x="53" y="379"/>
      <point x="66.3333" y="372" type="curve" smooth="yes"/>
      <point x="88.3333" y="361"/>
      <point x="121.333" y="350"/>
    </contour>
    <contour>
      <point x="559" y="214.667" type="line" smooth="yes"/>
      <point x="563.333" y="219.667"/>
      <point x="568" y="230.333"/>
      <point x="571.667" y="238.667" type="curve"/>
      <point x="574.333" y="243"/>
      <point x="576" y="248.333"/>
      <point x="577" y="253.667" type="curve"/>
      <point x="581" y="253.667" type="line"/>
      <point x="578" y="239.333" type="line" smooth="yes"/>
      <point x="576.333" y="231"/>
      <point x="575.333" y="222.667"/>
      <point x="575.333" y="215" type="curve" smooth="yes"/>
      <point x="575.333" y="133.333" type="line"/>
      <point x="492" y="133.333" type="line"/>
    </contour>
    <contour>
      <point x="675.333" y="0" type="line"/>
      <point x="675.333" y="66.6667" type="line"/>
      <point x="723.667" y="66.6667" type="line"/>
      <point x="723.667" y="133.333" type="line"/>
      <point x="675.333" y="133.333" type="line"/>
      <point x="675.333" y="340" type="line"/>
      <point x="577" y="340" type="line"/>
      <point x="407" y="133.333" type="line"/>
      <point x="407" y="66.6667" type="line"/>
      <point x="575.333" y="66.6667" type="line"/>
      <point x="575.333" y="0" type="line"/>
    </contour>
  </outline>
</glyph>
<glyph name="questiondown" format="2">
  <advance width="470"/>
  <unicode hex="00BF"/>
  <outline>
    <contour>
      <point x="271.667" y="-210" type="curve" smooth="yes"/>
      <point x="337.667" y="-210"/>
      <point x="386.333" y="-198"/>
      <point x="420" y="-183" type="curve"/>
      <point x="439.333" y="-175"/>
      <point x="455.667" y="-166"/>
      <point x="470" y="-155" type="curve"/>
      <point x="431.667" y="-88.3333" type="line"/>
      <point x="421.667" y="-88.3333" type="line"/>
      <point x="412" y="-97.3333"/>
      <point x="400" y="-104.333"/>
      <point x="386.333" y="-111.333" type="curve"/>
      <point x="362.667" y="-122.333"/>
      <point x="327.333" y="-133.333"/>
      <point x="281.667" y="-133.333" type="curve" smooth="yes"/>
      <point x="198.333" y="-133.333"/>
      <point x="151.667" y="-87"/>
      <point x="151.667" y="-30" type="curve" smooth="yes"/>
      <point x="151.667" y="106.667"/>
      <point x="336" y="106.333"/>
      <point x="336" y="276.667" type="curve" smooth="yes"/>
      <point x="336" y="313.333" type="line"/>
      <point x="232.667" y="313.333" type="line"/>
      <point x="232.667" y="276.667" type="line" smooth="yes"/>
      <point x="232.667" y="152.333"/>
      <point x="38.3333" y="153.667"/>
      <point x="38.3333" y="-20" type="curve" smooth="yes"/>
      <point x="38.3333" y="-130"/>
      <point x="118.667" y="-210"/>
    </contour>
    <contour>
      <point x="284.333" y="380" type="curve" smooth="yes"/>
      <point x="321" y="380"/>
      <point x="349.333" y="408.333"/>
      <point x="349.333" y="445" type="curve" smooth="yes"/>
      <point x="349.333" y="481.667"/>
      <point x="321" y="510"/>
      <point x="284.333" y="510" type="curve" smooth="yes"/>
      <point x="247.667" y="510"/>
      <point x="219.333" y="481.667"/>
      <point x="219.333" y="445" type="curve" smooth="yes"/>
      <point x="219.333" y="408.333"/>
      <point x="247.667" y="380"/>
    </contour>
  </outline>
</glyph>
<glyph name="Oslash" format="2">
  <advance width="610"/>
  <unicode hex="00D8"/>
  <outline>
    <contour>
      <point x="305" y="-10" type="curve" smooth="yes"/>
      <point x="455" y="-10"/>
      <point x="556.667" y="91.6667"/>
      <point x="556.667" y="350" type="curve" smooth="yes"/>
      <point x="556.667" y="465.667"/>
      <point x="536.333" y="550.333"/>
      <point x="500.333" y="608" type="curve"/>
      <point x="553.333" y="700" type="line"/>
      <point x="461.667" y="700" type="line"/>
      <point x="443.333" y="668.667" type="line"/>
      <point x="405.667" y="696.333"/>
      <point x="359.333" y="710"/>
      <point x="305" y="710" type="curve" smooth="yes"/>
      <point x="155" y="710"/>
      <point x="53.3333" y="608.333"/>
      <point x="53.3333" y="350" type="curve" smooth="yes"/>
      <point x="53.3333" y="233"/>
      <point x="73.3333" y="150.333"/>
      <point x="109.667" y="91.3333" type="curve"/>
      <point x="56.6667" y="0" type="line"/>
      <point x="148.333" y="0" type="line"/>
      <point x="166.333" y="31.3333" type="line"/>
      <point x="205.333" y="3"/>
      <point x="251" y="-10"/>
    </contour>
    <contour>
      <point x="305" y="66.6667" type="curve" smooth="yes"/>
      <point x="272" y="66.6667"/>
      <point x="241.333" y="79.6667"/>
      <point x="215.667" y="116" type="curve"/>
      <point x="430.667" y="487.667" type="line"/>
      <point x="439.333" y="451.333"/>
      <point x="443.333" y="405.667"/>
      <point x="443.333" y="350" type="curve" smooth="yes"/>
      <point x="443.333" y="133"/>
      <point x="376.667" y="66.6667"/>
    </contour>
    <contour>
      <point x="179.333" y="211.333" type="line"/>
      <point x="170.667" y="248.333"/>
      <point x="166.667" y="293.667"/>
      <point x="166.667" y="350" type="curve" smooth="yes"/>
      <point x="166.667" y="567"/>
      <point x="233.333" y="633.333"/>
      <point x="305" y="633.333" type="curve" smooth="yes"/>
      <point x="337.667" y="633.333"/>
      <point x="368.333" y="619.667"/>
      <point x="394" y="583.333" type="curve"/>
    </contour>
  </outline>
</glyph>
<glyph name="germandbls" format="2">
  <advance width="620"/>
  <unicode hex="00DF"/>
  <outline>
    <contour>
      <point x="388.333" y="-10" type="curve" smooth="yes"/>
      <point x="515.667" y="-10"/>
      <point x="590" y="64.6667"/>
      <point x="590" y="176.667" type="curve" smooth="yes"/>
      <point x="590" y="326.667"/>
      <point x="405" y="340"/>
      <point x="405" y="440" type="curve" smooth="yes"/>
      <point x="405" y="490.667"/>
      <point x="448.333" y="505.667"/>
      <point x="448.333" y="566.667" type="curve" smooth="yes"/>
      <point x="448.333" y="645"/>
      <point x="384" y="710"/>
      <point x="263.333" y="710" type="curve" smooth="yes"/>
      <point x="160.333" y="710"/>
      <point x="91.6667" y="642.333"/>
      <point x="91.6667" y="550" type="curve" smooth="yes"/>
      <point x="91.6667" y="493.333" type="line"/>
      <point x="30" y="493.333" type="line"/>
      <point x="30" y="416.667" type="line"/>
      <point x="91.6667" y="416.667" type="line"/>
      <point x="91.6667" y="0" type="line"/>
      <point x="205" y="0" type="line"/>
      <point x="205" y="550" type="line" smooth="yes"/>
      <point x="205" y="605"/>
      <point x="233" y="633.333"/>
      <point x="273.333" y="633.333" type="curve" smooth="yes"/>
      <point x="307" y="633.333"/>
      <point x="335" y="605"/>
      <point x="335" y="566.667" type="curve" smooth="yes"/>
      <point x="335" y="516"/>
      <point x="301.667" y="494"/>
      <point x="301.667" y="440" type="curve" smooth="yes"/>
      <point x="301.667" y="293.667"/>
      <point x="476.667" y="280.333"/>
      <point x="476.667" y="170" type="curve" smooth="yes"/>
      <point x="476.667" y="102.667"/>
      <point x="440.667" y="66.6667"/>
      <point x="378.333" y="66.6667" type="curve" smooth="yes"/>
      <point x="358.333" y="66.6667"/>
      <point x="341.333" y="71.6667"/>
      <point x="330.333" y="78.6667" type="curve"/>
      <point x="323.333" y="81.6667"/>
      <point x="318.333" y="86.6667"/>
      <point x="313.333" y="91.6667" type="curve"/>
      <point x="303.333" y="91.6667" type="line"/>
      <point x="275" y="20" type="line"/>
      <point x="284" y="14"/>
      <point x="294.333" y="9"/>
      <point x="305.667" y="5" type="curve"/>
      <point x="325.333" y="-3"/>
      <point x="353.333" y="-10"/>
    </contour>
  </outline>
</glyph>
<glyph name="iacute" format="2">
  <advance width="265"/>
  <unicode hex="00ED"/>
  <outline>
    <contour>
      <point x="186.667" y="0" type="line"/>
      <point x="186.667" y="500" type="line"/>
      <point x="73.3333" y="500" type="line"/>
      <point x="73.3333" y="0" type="line"/>
    </contour>
    <contour>
      <point x="157" y="550" type="line"/>
      <point x="250.333" y="700" type="line"/>
      <point x="132" y="700" type="line"/>
      <point x="87" y="550" type="line"/>
    </contour>
  </outline>
</glyph>
<glyph name="idieresis" format="2">
  <advance width="273"/>
  <unicode hex="00EF"/>
  <outline>
    <contour>
      <point x="193.333" y="0" type="line"/>
      <point x="193.333" y="500" type="line"/>
      <point x="80" y="500" type="line"/>
      <point x="80" y="0" type="line"/>
    </contour>
    <contour>
      <point x="43.3333" y="566.667" type="curve" smooth="yes"/>
      <point x="77" y="566.667"/>
      <point x="103.333" y="593"/>
      <point x="103.333" y="626.667" type="curve" smooth="yes"/>
      <point x="103.333" y="660.333"/>
      <point x="77" y="686.667"/>
      <point x="43.3333" y="686.667" type="curve" smooth="yes"/>
      <point x="9.66667" y="686.667"/>
      <point x="-16.6667" y="660.333"/>
      <point x="-16.6667" y="626.667" type="curve" smooth="yes"/>
      <point x="-16.6667" y="593"/>
      <point x="9.66667" y="566.667"/>
    </contour>
    <contour>
      <point x="225" y="566.667" type="curve" smooth="yes"/>
      <point x="258.667" y="566.667"/>
      <point x="285" y="593"/>
      <point x="285" y="626.667" type="curve" smooth="yes"/>
      <point x="285" y="660.333"/>
      <point x="258.667" y="686.667"/>
      <point x="225" y="686.667" type="curve" smooth="yes"/>
      <point x="191.333" y="686.667"/>
      <point x="165" y="660.333"/>
      <point x="165" y="626.667" type="curve" smooth="yes"/>
      <point x="165" y="593"/>
      <point x="191.333" y="566.667"/>
    </contour>
  </outline>
</glyph>
<glyph name="eth" format="2">
  <advance width="525"/>
  <unicode hex="00F0"/>
  <outline>
    <contour>
      <point x="255" y="-10" type="curve" smooth="yes"/>
      <point x="386.667" y="-10"/>
      <point x="471.667" y="74.6667"/>
      <point x="471.667" y="225" type="curve" smooth="yes"/>
      <point x="471.667" y="325" type="line" smooth="yes"/>
      <point x="471.667" y="482"/>
      <point x="427" y="574.333"/>
      <point x="337.333" y="627" type="curve"/>
      <point x="365" y="687.667" type="line"/>
      <point x="294" y="718.667" type="line"/>
      <point x="266.667" y="658.333" type="line"/>
      <point x="247.333" y="664.667"/>
      <point x="226.667" y="669.333"/>
      <point x="205" y="673.333" type="curve" smooth="yes"/>
      <point x="143.333" y="685" type="line"/>
      <point x="130" y="610" type="line"/>
      <point x="190" y="598.667" type="line"/>
      <point x="204.538" y="595.517"/>
      <point x="222.718" y="591.083"/>
      <point x="235" y="587.333" type="curve"/>
      <point x="206.333" y="524.333" type="line"/>
      <point x="276.667" y="492.667" type="line"/>
      <point x="304.667" y="554.333" type="line"/>
      <point x="354" y="519.667"/>
      <point x="376.667" y="466.333"/>
      <point x="376.667" y="393.333" type="curve"/>
      <point x="345.667" y="439"/>
      <point x="297.333" y="460"/>
      <point x="230" y="460" type="curve" smooth="yes"/>
      <point x="123.333" y="460"/>
      <point x="38.3333" y="375"/>
      <point x="38.3333" y="225" type="curve" smooth="yes"/>
      <point x="38.3333" y="74.6667"/>
      <point x="123.333" y="-10"/>
    </contour>
    <contour>
      <point x="255" y="66.6667" type="curve" smooth="yes"/>
      <point x="198" y="66.6667"/>
      <point x="151.667" y="113.333"/>
      <point x="151.667" y="225" type="curve" smooth="yes"/>
      <point x="151.667" y="331"/>
      <point x="198" y="378.333"/>
      <point x="255" y="378.333" type="curve" smooth="yes"/>
      <point x="312" y="378.333"/>
      <point x="358.333" y="331"/>
      <point x="358.333" y="225" type="curve" smooth="yes"/>
      <point x="358.333" y="113.333"/>
      <point x="312" y="66.6667"/>
    </contour>
  </outline>
</glyph>
<glyph name="divide" format="2">
  <advance width="470"/>
  <unicode hex="00F7"/>
  <outline>
    <contour>
      <point x="440" y="286.667" type="line"/>
      <point x="440" y="373.333" type="line"/>
      <point x="30" y="373.333" type="line"/>
      <point x="30" y="286.667" type="line"/>
    </contour>
    <contour>
      <point x="235" y="93.3333" type="curve" smooth="yes"/>
      <point x="271.667" y="93.3333"/>
      <point x="300" y="121.667"/>
      <point x="300" y="158.333" type="curve" smooth="yes"/>
      <point x="300" y="195"/>
      <point x="271.667" y="223.333"/>
      <point x="235" y="223.333" type="curve" smooth="yes"/>
      <point x="198.333" y="223.333"/>
      <point x="170" y="195"/>
      <point x="170" y="158.333" type="curve" smooth="yes"/>
      <point x="170" y="121.667"/>
      <point x="198.333" y="93.3333"/>
    </contour>
    <contour>
      <point x="235" y="436.667" type="curve" smooth="yes"/>
      <point x="271.667" y="436.667"/>
      <point x="300" y="465"/>
      <point x="300" y="501.667" type="curve" smooth="yes"/>
      <point x="300" y="538.333"/>
      <point x="271.667" y="566.667"/>
      <point x="235" y="566.667" type="curve" smooth="yes"/>
      <point x="198.333" y="566.667"/>
      <point x="170" y="538.333"/>
      <point x="170" y="501.667" type="curve" smooth="yes"/>
      <point x="170" y="465"/>
      <point x="198.333" y="436.667"/>
    </contour>
  </outline>
</glyph>
<glyph name="oslash" format="2">
  <advance width="533"/>
  <unicode hex="00F8"/>
  <outline>
    <contour>
      <point x="266.667" y="-10" type="curve" smooth="yes"/>
      <point x="401.667" y="-10"/>
      <point x="486.667" y="74.6667"/>
      <point x="486.667" y="250" type="curve" smooth="yes"/>
      <point x="486.667" y="332"/>
      <point x="468" y="392.333"/>
      <point x="435.333" y="435.333" type="curve"/>
      <point x="479.667" y="500" type="line"/>
      <point x="395" y="500" type="line"/>
      <point x="382.667" y="482" type="line"/>
      <point x="351" y="501"/>
      <point x="312" y="510"/>
      <point x="266.667" y="510" type="curve" smooth="yes"/>
      <point x="131" y="510"/>
      <point x="46.6667" y="425.333"/>
      <point x="46.6667" y="250" type="curve" smooth="yes"/>
      <point x="46.6667" y="170.333"/>
      <point x="63.3333" y="108.667"/>
      <point x="97" y="64.6667" type="curve"/>
      <point x="53.3333" y="0" type="line"/>
      <point x="138.333" y="0" type="line"/>
      <point x="150.333" y="17.6667" type="line"/>
      <point x="183.667" y="-1"/>
      <point x="222.667" y="-10"/>
    </contour>
    <contour>
      <point x="266.667" y="66.6667" type="curve" smooth="yes"/>
      <point x="241" y="66.6667"/>
      <point x="219.333" y="73.6667"/>
      <point x="201.667" y="93" type="curve"/>
      <point x="365" y="333" type="line"/>
      <point x="370.333" y="309.333"/>
      <point x="373.333" y="281"/>
      <point x="373.333" y="250" type="curve" smooth="yes"/>
      <point x="373.333" y="113.333"/>
      <point x="326.333" y="66.6667"/>
    </contour>
    <contour>
      <point x="168" y="167" type="line"/>
      <point x="162.333" y="190.333"/>
      <point x="160" y="218.333"/>
      <point x="160" y="250" type="curve" smooth="yes"/>
      <point x="160" y="386.667"/>
      <point x="207" y="433.333"/>
      <point x="266.667" y="433.333" type="curve" smooth="yes"/>
      <point x="292.333" y="433.333"/>
      <point x="314" y="424.333"/>
      <point x="331" y="407" type="curve"/>
    </contour>
  </outline>
</glyph>
<glyph name="thorn" format="2">
  <advance width="547"/>
  <unicode hex="00FE"/>
  <outline>
    <contour>
      <point x="190" y="-200" type="line"/>
      <point x="190" y="20" type="line"/>
      <point x="198.333" y="14"/>
      <point x="208.667" y="9"/>
      <point x="220.333" y="5" type="curve"/>
      <point x="239.333" y="-3"/>
      <point x="265.667" y="-10"/>
      <point x="296.667" y="-10" type="curve" smooth="yes"/>
      <point x="415" y="-10"/>
      <point x="500" y="75"/>
      <point x="500" y="250" type="curve" smooth="yes"/>
      <point x="500" y="425"/>
      <point x="415" y="510"/>
      <point x="296.667" y="510" type="curve" smooth="yes"/>
      <point x="265.667" y="510"/>
      <point x="239.333" y="502"/>
      <point x="220.333" y="495" type="curve"/>
      <point x="208.667" y="490"/>
      <point x="198.333" y="485"/>
      <point x="190" y="480" type="curve"/>
      <point x="190" y="700" type="line"/>
      <point x="110" y="700" type="line"/>
      <point x="76.6667" y="666.667" type="line"/>
      <point x="76.6667" y="-200" type="line"/>
    </contour>
    <contour>
      <point x="278.333" y="66.6667" type="curve" smooth="yes"/>
      <point x="252" y="66.6667"/>
      <point x="230.667" y="72.3333"/>
      <point x="215" y="78.3333" type="curve" smooth="yes"/>
      <point x="206" y="81.6667"/>
      <point x="197.667" y="85.3333"/>
      <point x="190" y="90" type="curve"/>
      <point x="190" y="410" type="line"/>
      <point x="196.419" y="413.442"/>
      <point x="207.066" y="418.761"/>
      <point x="215" y="421.667" type="curve" smooth="yes"/>
      <point x="230.667" y="427.333"/>
      <point x="252" y="433.333"/>
      <point x="278.333" y="433.333" type="curve" smooth="yes"/>
      <point x="339.333" y="433.333"/>
      <point x="386.667" y="386.667"/>
      <point x="386.667" y="250" type="curve" smooth="yes"/>
      <point x="386.667" y="113.333"/>
      <point x="339.333" y="66.6667"/>
    </contour>
  </outline>
</glyph>
<glyph name="dcaron" format="2">
  <advance width="648"/>
  <unicode hex="010F"/>
  <outline>
    <contour>
      <point x="233.333" y="-10" type="curve" smooth="yes"/>
      <point x="282.333" y="-10"/>
      <point x="316.667" y="6"/>
      <point x="340.333" y="25" type="curve"/>
      <point x="354" y="35"/>
      <point x="365.667" y="47"/>
      <point x="375" y="60" type="curve"/>
      <point x="380" y="60" type="line"/>
      <point x="390" y="0" type="line"/>
      <point x="470" y="0" type="line"/>
      <point x="470" y="700" type="line"/>
      <point x="390" y="700" type="line"/>
      <point x="356.667" y="666.667" type="line"/>
      <point x="356.667" y="480" type="line"/>
      <point x="325.333" y="495" type="line"/>
      <point x="305.667" y="502"/>
      <point x="281" y="510"/>
      <point x="250" y="510" type="curve" smooth="yes"/>
      <point x="131.667" y="510"/>
      <point x="46.6667" y="425"/>
      <point x="46.6667" y="250" type="curve" smooth="yes"/>
      <point x="46.6667" y="75"/>
      <point x="131.667" y="-10"/>
    </contour>
    <contour>
      <point x="258.333" y="71.6667" type="curve" smooth="yes"/>
      <point x="206" y="71.6667"/>
      <point x="160" y="118.333"/>
      <point x="160" y="250" type="curve" smooth="yes"/>
      <point x="160" y="386.667"/>
      <point x="207.333" y="433.333"/>
      <point x="268.333" y="433.333" type="curve" smooth="yes"/>
      <point x="294" y="433.333"/>
      <point x="316" y="427.333"/>
      <point x="331.667" y="421.667" type="curve" smooth="yes"/>
      <point x="339.601" y="418.761"/>
      <point x="350.248" y="413.442"/>
      <point x="356.667" y="410" type="curve"/>
      <point x="356.667" y="131.667" type="line"/>
      <point x="348.333" y="120.667"/>
      <point x="339.333" y="110.667"/>
      <point x="329.333" y="101.667" type="curve"/>
      <point x="311.667" y="86.6667"/>
      <point x="288" y="71.6667"/>
    </contour>
    <contour>
      <point x="558.333" y="484" type="line"/>
      <point x="573.333" y="493"/>
      <point x="586.333" y="505"/>
      <point x="598.333" y="520" type="curve" smooth="yes"/>
      <point x="618.333" y="545"/>
      <point x="638.333" y="583"/>
      <point x="638.333" y="636" type="curve" smooth="yes"/>
      <point x="638.333" y="675"/>
      <point x="613.333" y="700"/>
      <point x="578.333" y="700" type="curve" smooth="yes"/>
      <point x="553.333" y="700"/>
      <point x="528.333" y="676"/>
      <point x="528.333" y="645" type="curve" smooth="yes"/>
      <point x="528.333" y="614"/>
      <point x="553.333" y="590"/>
      <point x="578.333" y="590" type="curve"/>
      <point x="578.333" y="570"/>
      <point x="565.333" y="552"/>
      <point x="553.333" y="537" type="curve"/>
      <point x="546.333" y="529"/>
      <point x="537.333" y="522"/>
      <point x="528.333" y="515" type="curve"/>
    </contour>
  </outline>
</glyph>
<glyph name="Dcroat" format="2">
  <advance width="597"/>
  <unicode hex="0110"/>
  <outline>
    <contour>
      <point x="246.667" y="0" type="line" smooth="yes"/>
      <point x="440" y="0"/>
      <point x="543.333" y="102.667"/>
      <point x="543.333" y="350" type="curve" smooth="yes"/>
      <point x="543.333" y="597.333"/>
      <point x="440" y="700"/>
      <point x="246.667" y="700" type="curve" smooth="yes"/>
      <point x="90" y="700" type="line"/>
      <point x="90" y="403.333" type="line"/>
      <point x="35" y="403.333" type="line"/>
      <point x="35" y="316.667" type="line"/>
      <point x="90" y="316.667" type="line"/>
      <point x="90" y="0" type="line"/>
    </contour>
    <contour>
      <point x="203.333" y="316.667" type="line"/>
      <point x="311.667" y="316.667" type="line"/>
      <point x="311.667" y="403.333" type="line"/>
      <point x="203.333" y="403.333" type="line"/>
      <point x="203.333" y="623.333" type="line"/>
      <point x="246.667" y="623.333" type="line" smooth="yes"/>
      <point x="363.333" y="623.333"/>
      <point x="430" y="557.333"/>
      <point x="430" y="350" type="curve" smooth="yes"/>
      <point x="430" y="142.667"/>
      <point x="363.333" y="76.6667"/>
      <point x="246.667" y="76.6667" type="curve" smooth="yes"/>
      <point x="203.333" y="76.6667" type="line"/>
    </contour>
  </outline>
</glyph>
<glyph name="idotless" format="2">
  <advance width="260"/>
  <unicode hex="0131"/>
  <outline>
    <contour>
      <point x="186.667" y="0" type="line"/>
      <point x="186.667" y="500" type="line"/>
      <point x="73.3333" y="500" type="line"/>
      <point x="73.3333" y="0" type="line"/>
    </contour>
  </outline>
</glyph>
<glyph name="ij" format="2">
  <advance width="515"/>
  <unicode hex="0133"/>
  <outline>
    <contour>
      <point x="266.667" y="-200" type="curve" smooth="yes"/>
      <point x="375" y="-200"/>
      <point x="441.667" y="-134"/>
      <point x="441.667" y="-36.6667" type="curve" smooth="yes"/>
      <point x="441.667" y="500" type="line"/>
      <point x="73.3333" y="500" type="line"/>
      <point x="73.3333" y="0" type="line"/>
      <point x="186.667" y="0" type="line"/>
      <point x="186.667" y="423.333" type="line"/>
      <point x="328.333" y="423.333" type="line"/>
      <point x="328.333" y="-36.6667" type="line" smooth="yes"/>
      <point x="328.333" y="-95.3333"/>
      <point x="300" y="-123.333"/>
      <point x="256.667" y="-123.333" type="curve" smooth="yes"/>
      <point x="241.667" y="-123.333"/>
      <point x="228.667" y="-118.333"/>
      <point x="217.667" y="-111.333" type="curve"/>
      <point x="211.667" y="-108.333"/>
      <point x="206.667" y="-103.333"/>
      <point x="201.667" y="-98.3333" type="curve"/>
      <point x="191.667" y="-98.3333" type="line"/>
      <point x="163.333" y="-170" type="line"/>
      <point x="171" y="-176"/>
      <point x="180.667" y="-181"/>
      <point x="192" y="-185" type="curve"/>
      <point x="210" y="-193"/>
      <point x="235.667" y="-200"/>
    </contour>
    <contour>
      <point x="130" y="575" type="curve" smooth="yes"/>
      <point x="166.667" y="575"/>
      <point x="195" y="603.333"/>
      <point x="195" y="640" type="curve" smooth="yes"/>
      <point x="195" y="676.667"/>
      <point x="166.667" y="705"/>
      <point x="130" y="705" type="curve" smooth="yes"/>
      <point x="93.3333" y="705"/>
      <point x="65" y="676.667"/>
      <point x="65" y="640" type="curve" smooth="yes"/>
      <point x="65" y="603.333"/>
      <point x="93.3333" y="575"/>
    </contour>
    <contour>
      <point x="385" y="575" type="curve" smooth="yes"/>
      <point x="421.667" y="575"/>
      <point x="450" y="603.333"/>
      <point x="450" y="640" type="curve" smooth="yes"/>
      <point x="450" y="676.667"/>
      <point x="421.667" y="705"/>
      <point x="385" y="705" type="curve" smooth="yes"/>
      <point x="348.333" y="705"/>
      <point x="320" y="676.667"/>
      <point x="320" y="640" type="curve" smooth="yes"/>
      <point x="320" y="603.333"/>
      <point x="348.333" y="575"/>
    </contour>
  </outline>
</glyph>
<glyph name="lcaron" format="2">
  <advance width="380"/>
  <unicode hex="013E"/>
  <outline>
    <contour>
      <point x="186.667" y="0" type="line"/>
      <point x="186.667" y="700" type="line"/>
      <point x="106.667" y="700" type="line"/>
      <point x="73.3333" y="666.667" type="line"/>
      <point x="73.3333" y="0" type="line"/>
    </contour>
    <contour>
      <point x="288.333" y="476" type="line"/>
      <point x="303.667" y="485.333"/>
      <point x="317" y="497.667"/>
      <point x="329" y="513" type="curve" smooth="yes"/>
      <point x="349.333" y="538.667"/>
      <point x="370" y="577.333"/>
      <point x="370" y="632.333" type="curve" smooth="yes"/>
      <point x="370" y="674"/>
      <point x="344.333" y="700"/>
      <point x="306.667" y="700" type="curve" smooth="yes"/>
      <point x="279.333" y="700"/>
      <point x="253.333" y="674.667"/>
      <point x="253.333" y="641.667" type="curve" smooth="yes"/>
      <point x="253.333" y="610.333"/>
      <point x="279" y="585"/>
      <point x="310" y="585" type="curve"/>
      <point x="310" y="564"/>
      <point x="297" y="545.667"/>
      <point x="284" y="530.667" type="curve" smooth="yes"/>
      <point x="276.667" y="522.333"/>
      <point x="267.667" y="515"/>
      <point x="258.333" y="508" type="curve"/>
    </contour>
  </outline>
</glyph>
<glyph name="lslash" format="2">
  <advance width="302"/>
  <unicode hex="0142"/>
  <outline>
    <contour>
      <point x="201.667" y="0" type="line"/>
      <point x="201.667" y="353.667" type="line"/>
      <point x="278.333" y="420" type="line"/>
      <point x="278.333" y="536.667" type="line"/>
      <point x="201.667" y="470.333" type="line"/>
      <point x="201.667" y="700" type="line"/>
      <point x="121.667" y="700" type="line"/>
      <point x="88.3333" y="666.667" type="line"/>
      <point x="88.3333" y="379.333" type="line"/>
      <point x="31.6667" y="333.333" type="line"/>
      <point x="31.6667" y="216.667" type="line"/>
      <point x="88.3333" y="262.667" type="line"/>
      <point x="88.3333" y="0" type="line"/>
    </contour>
  </outline>
</glyph>
<glyph name="OE" format="2">
  <advance width="822"/>
  <unicode hex="0152"/>
  <outline>
    <contour>
      <point x="793.333" y="0" type="line"/>
      <point x="793.333" y="76.6667" type="line"/>
      <point x="510" y="76.6667" type="line"/>
      <point x="510" y="326.667" type="line"/>
      <point x="733.333" y="326.667" type="line"/>
      <point x="733.333" y="403.333" type="line"/>
      <point x="510" y="403.333" type="line"/>
      <point x="510" y="623.333" type="line"/>
      <point x="793.333" y="623.333" type="line"/>
      <point x="793.333" y="700" type="line"/>
      <point x="353.333" y="700" type="line" smooth="yes"/>
      <point x="156.333" y="700"/>
      <point x="53.3333" y="597.333"/>
      <point x="53.3333" y="350" type="curve" smooth="yes"/>
      <point x="53.3333" y="102.667"/>
      <point x="156.333" y="0"/>
      <point x="353.333" y="0" type="curve" smooth="yes"/>
    </contour>
    <contour>
      <point x="353.333" y="76.6667" type="line" smooth="yes"/>
      <point x="233" y="76.6667"/>
      <point x="166.667" y="142.667"/>
      <point x="166.667" y="350" type="curve" smooth="yes"/>
      <point x="166.667" y="557.333"/>
      <point x="233" y="623.333"/>
      <point x="353.333" y="623.333" type="curve" smooth="yes"/>
      <point x="396.667" y="623.333" type="line"/>
      <point x="396.667" y="76.6667" type="line"/>
    </contour>
  </outline>
</glyph>
<glyph name="caron" format="2">
  <advance width="327"/>
  <unicode hex="02C7"/>
  <outline>
    <contour>
      <point x="203.333" y="562" type="line"/>
      <point x="310" y="693.333" type="line"/>
      <point x="235" y="693.333" type="line"/>
      <point x="163.333" y="626.667" type="line"/>
      <point x="91.6667" y="693.333" type="line"/>
      <point x="16.6667" y="693.333" type="line"/>
      <point x="123.333" y="562" type="line"/>
    </contour>
  </outline>
</glyph>
<glyph name="breve" format="2">
  <advance width="327"/>
  <unicode hex="02D8"/>
  <outline>
    <contour>
      <point x="163.333" y="560" type="curve" smooth="yes"/>
      <point x="267" y="560"/>
      <point x="316.667" y="609.667"/>
      <point x="316.667" y="693.333" type="curve"/>
      <point x="220" y="693.333" type="line"/>
      <point x="220" y="642.333"/>
      <point x="200.333" y="623.333"/>
      <point x="163.333" y="623.333" type="curve" smooth="yes"/>
      <point x="126.333" y="623.333"/>
      <point x="106.667" y="642.333"/>
      <point x="106.667" y="693.333" type="curve"/>
      <point x="10" y="693.333" type="line"/>
      <point x="10" y="609.667"/>
      <point x="59.6667" y="560"/>
    </contour>
  </outline>
</glyph>
<glyph name="dotaccent" format="2">
  <advance width="150"/>
  <unicode hex="02D9"/>
  <outline>
    <contour>
      <point x="75" y="560" type="curve" smooth="yes"/>
      <point x="111.667" y="560"/>
      <point x="140" y="588.333"/>
      <point x="140" y="625" type="curve" smooth="yes"/>
      <point x="140" y="661.667"/>
      <point x="111.667" y="690"/>
      <point x="75" y="690" type="curve" smooth="yes"/>
      <point x="38.3333" y="690"/>
      <point x="10" y="661.667"/>
      <point x="10" y="625" type="curve" smooth="yes"/>
      <point x="10" y="588.333"/>
      <point x="38.3333" y="560"/>
    </contour>
  </outline>
</glyph>
<glyph name="ring" format="2">
  <advance width="227"/>
  <unicode hex="02DA"/>
  <outline>
    <contour>
      <point x="113.333" y="541.667" type="curve" smooth="yes"/>
      <point x="175" y="541.667"/>
      <point x="216.667" y="582.667"/>
      <point x="216.667" y="640" type="curve" smooth="yes"/>
      <point x="216.667" y="697.333"/>
      <point x="175" y="738.333"/>
      <point x="113.333" y="738.333" type="curve" smooth="yes"/>
      <point x="51.6667" y="738.333"/>
      <point x="10" y="697.333"/>
      <point x="10" y="640" type="curve" smooth="yes"/>
      <point x="10" y="582.667"/>
      <point x="51.6667" y="541.667"/>
    </contour>
    <contour>
      <point x="113.333" y="596.667" type="curve" smooth="yes"/>
      <point x="93.3333" y="596.667"/>
      <point x="75" y="611"/>
      <point x="75" y="640" type="curve" smooth="yes"/>
      <point x="75" y="669"/>
      <point x="93.3333" y="683.333"/>
      <point x="113.333" y="683.333" type="curve" smooth="yes"/>
      <point x="133.333" y="683.333"/>
      <point x="151.667" y="669"/>
      <point x="151.667" y="640" type="curve" smooth="yes"/>
      <point x="151.667" y="611"/>
      <point x="133.333" y="596.667"/>
    </contour>
  </outline>
</glyph>
<glyph name="ogonek" format="2">
  <advance width="197"/>
  <unicode hex="02DB"/>
  <outline>
    <contour>
      <point x="106.667" y="-165" type="curve" smooth="yes"/>
      <point x="131.667" y="-165"/>
      <point x="150.667" y="-160"/>
      <point x="165.667" y="-153" type="curve"/>
      <point x="173.667" y="-150"/>
      <point x="180.667" y="-145"/>
      <point x="186.667" y="-140" type="curve"/>
      <point x="186.667" y="-83" type="line"/>
      <point x="177.667" y="-83" type="line"/>
      <point x="178" y="-83"/>
      <point x="153.333" y="-105"/>
      <point x="123.333" y="-105" type="curve" smooth="yes"/>
      <point x="101.667" y="-105"/>
      <point x="86.6667" y="-90"/>
      <point x="86.6667" y="-70" type="curve" smooth="yes"/>
      <point x="86.6667" y="-51"/>
      <point x="100" y="-33.3333"/>
      <point x="115" y="-20.3333" type="curve"/>
      <point x="123" y="-13"/>
      <point x="133" y="-5.66667"/>
      <point x="143.333" y="0" type="curve"/>
      <point x="62" y="0" type="line"/>
      <point x="52.3333" y="-7.33333"/>
      <point x="43.3333" y="-15.6667"/>
      <point x="36" y="-24.3333" type="curve" smooth="yes"/>
      <point x="22.3333" y="-40"/>
      <point x="10" y="-60.6667"/>
      <point x="10" y="-85" type="curve" smooth="yes"/>
      <point x="10" y="-133.667"/>
      <point x="41.3333" y="-165"/>
    </contour>
  </outline>
</glyph>
<glyph name="acutecomb" format="2">
  <advance width="183"/>
  <unicode hex="0301"/>
  <anchor x="43.3333" y="500" name="_top"/>
  <anchor x="92" y="700" name="top"/>
  <outline>
    <contour>
      <point x="80" y="550" type="line"/>
      <point x="173.333" y="700" type="line"/>
      <point x="55" y="700" type="line"/>
      <point x="10" y="550" type="line"/>
    </contour>
  </outline>
</glyph>
<glyph name="dieresiscomb" format="2">
  <advance width="322"/>
  <unicode hex="0308"/>
  <anchor x="161.333" y="500" name="_top"/>
  <anchor x="161.333" y="686.667" name="top"/>
  <outline>
    <contour>
      <point x="251.667" y="566.667" type="curve" smooth="yes"/>
      <point x="285.333" y="566.667"/>
      <point x="311.667" y="593"/>
      <point x="311.667" y="626.667" type="curve" smooth="yes"/>
      <point x="311.667" y="660.333"/>
      <point x="285.333" y="686.667"/>
      <point x="251.667" y="686.667" type="curve" smooth="yes"/>
      <point x="218" y="686.667"/>
      <point x="191.667" y="660.333"/>
      <point x="191.667" y="626.667" type="curve" smooth="yes"/>
      <point x="191.667" y="593"/>
      <point x="218" y="566.667"/>
    </contour>
    <contour>
      <point x="70" y="566.667" type="curve" smooth="yes"/>
      <point x="103.667" y="566.667"/>
      <point x="130" y="593"/>
      <point x="130" y="626.667" type="curve" smooth="yes"/>
      <point x="130" y="660.333"/>
      <point x="103.667" y="686.667"/>
      <point x="70" y="686.667" type="curve" smooth="yes"/>
      <point x="36.3333" y="686.667"/>
      <point x="10" y="660.333"/>
      <point x="10" y="626.667" type="curve" smooth="yes"/>
      <point x="10" y="593"/>
      <point x="36.3333" y="566.667"/>
    </contour>
  </outline>
</glyph>
<glyph name="hungarumlautcomb" format="2">
  <advance width="307"/>
  <unicode hex="030B"/>
  <anchor x="108.333" y="500" name="_top"/>
  <anchor x="153.667" y="700" name="top"/>
  <outline>
    <contour>
      <point x="210" y="550" type="line"/>
      <point x="296.667" y="700" type="line"/>
      <point x="196.667" y="700" type="line"/>
      <point x="151.667" y="550" type="line"/>
    </contour>
    <contour>
      <point x="68.3333" y="550" type="line"/>
      <point x="155" y="700" type="line"/>
      <point x="55" y="700" type="line"/>
      <point x="10" y="550" type="line"/>
    </contour>
  </outline>
</glyph>
<glyph name="commaaccentcomb" format="2">
  <advance width="137"/>
  <unicode hex="0326"/>
  <anchor x="68.3333" y="0" name="_bottom"/>
  <anchor x="68.3333" y="-240.667" name="bottom"/>
  <outline>
    <contour>
      <point x="45" y="-240.667" type="line"/>
      <point x="60.3333" y="-231.333"/>
      <point x="73.6667" y="-219"/>
      <point x="85.6667" y="-203.667" type="curve" smooth="yes"/>
      <point x="106" y="-178"/>
      <point x="126.667" y="-139.333"/>
      <point x="126.667" y="-84.3333" type="curve" smooth="yes"/>
      <point x="126.667" y="-42.6667"/>
      <point x="101" y="-16.6667"/>
      <point x="63.3333" y="-16.6667" type="curve" smooth="yes"/>
      <point x="36" y="-16.6667"/>
      <point x="10" y="-42"/>
      <point x="10" y="-75" type="curve" smooth="yes"/>
      <point x="10" y="-106.333"/>
      <point x="35.6667" y="-131.667"/>
      <point x="66.6667" y="-131.667" type="curve"/>
      <point x="66.6667" y="-152.667"/>
      <point x="53.6667" y="-171"/>
      <point x="40.6667" y="-186" type="curve" smooth="yes"/>
      <point x="33.3333" y="-194.333"/>
      <point x="24.3333" y="-201.667"/>
      <point x="15" y="-208.667" type="curve"/>
    </contour>
  </outline>
</glyph>
<glyph name="strokeshortcomb" format="2">
  <advance width="443"/>
  <unicode hex="0335"/>
  <anchor x="203.333" y="335" name="_center"/>
  <outline>
    <contour>
      <point x="350" y="296.667" type="line"/>
      <point x="350" y="373.333" type="line"/>
      <point x="56.6667" y="373.333" type="line"/>
      <point x="56.6667" y="296.667" type="line"/>
    </contour>
  </outline>
</glyph>
<glyph name="Lje-cy" format="2">
  <advance width="891"/>
  <unicode hex="0409"/>
  <outline>
    <contour>
      <point x="68.3333" y="-10" type="curve" smooth="yes"/>
      <point x="152.333" y="-10"/>
      <point x="204.667" y="45.6667"/>
      <point x="211.667" y="160" type="curve"/>
      <point x="236.667" y="623.333" type="line"/>
      <point x="410" y="623.333" type="line"/>
      <point x="410" y="0" type="line"/>
      <point x="607.333" y="0" type="line" smooth="yes"/>
      <point x="781.667" y="0"/>
      <point x="860.667" y="79.3333"/>
      <point x="860.667" y="221.667" type="curve" smooth="yes"/>
      <point x="860.667" y="364"/>
      <point x="781.667" y="443.333"/>
      <point x="607.333" y="443.333" type="curve" smooth="yes"/>
      <point x="524" y="443.333" type="line"/>
      <point x="524" y="700" type="line"/>
      <point x="128.333" y="700" type="line"/>
      <point x="98.3333" y="160" type="line" smooth="yes"/>
      <point x="94.6667" y="90"/>
      <point x="71.3333" y="66.6667"/>
      <point x="46.6667" y="66.6667" type="curve" smooth="yes"/>
      <point x="42.6667" y="66.6667"/>
      <point x="37.6667" y="67.6667"/>
      <point x="32" y="68.6667" type="curve"/>
      <point x="25" y="71.6667" type="line"/>
      <point x="15" y="71.6667" type="line"/>
      <point x="8.33333" y="1.66667" type="line"/>
      <point x="12.8414" y="-0.0938554"/>
      <point x="21.0064" y="-3.18414"/>
      <point x="26.3333" y="-4.33333" type="curve"/>
      <point x="38" y="-7.66667"/>
      <point x="52" y="-10"/>
    </contour>
    <contour>
      <point x="524" y="366.667" type="line"/>
      <point x="607.333" y="366.667" type="line" smooth="yes"/>
      <point x="702.333" y="366.667"/>
      <point x="747.333" y="320.333"/>
      <point x="747.333" y="221.667" type="curve" smooth="yes"/>
      <point x="747.333" y="123"/>
      <point x="702.333" y="76.6667"/>
      <point x="607.333" y="76.6667" type="curve" smooth="yes"/>
      <point x="524" y="76.6667" type="line"/>
    </contour>
  </outline>
</glyph>
<glyph name="Nje-cy" format="2">
  <advance width="907"/>
  <unicode hex="040A"/>
  <outline>
    <contour>
      <point x="201.667" y="0" type="line"/>
      <point x="201.667" y="346.667" type="line"/>
      <point x="426.667" y="346.667" type="line"/>
      <point x="426.667" y="0" type="line"/>
      <point x="623.333" y="0" type="line" smooth="yes"/>
      <point x="796.333" y="0"/>
      <point x="876.667" y="79.3333"/>
      <point x="876.667" y="211.667" type="curve" smooth="yes"/>
      <point x="876.667" y="342.667"/>
      <point x="796.333" y="423.333"/>
      <point x="623.333" y="423.333" type="curve" smooth="yes"/>
      <point x="540" y="423.333" type="line"/>
      <point x="540" y="700" type="line"/>
      <point x="426.667" y="700" type="line"/>
      <point x="426.667" y="423.333" type="line"/>
      <point x="201.667" y="423.333" type="line"/>
      <point x="201.667" y="700" type="line"/>
      <point x="88.3333" y="700" type="line"/>
      <point x="88.3333" y="0" type="line"/>
    </contour>
    <contour>
      <point x="540" y="346.667" type="line"/>
      <point x="623.333" y="346.667" type="line" smooth="yes"/>
      <point x="717.667" y="346.667"/>
      <point x="763.333" y="300.667"/>
      <point x="763.333" y="211.667" type="curve" smooth="yes"/>
      <point x="763.333" y="122.667"/>
      <point x="717.667" y="76.6667"/>
      <point x="623.333" y="76.6667" type="curve" smooth="yes"/>
      <point x="540" y="76.6667" type="line"/>
    </contour>
  </outline>
</glyph>
<glyph name="Tshe-cy" format="2">
  <advance width="657"/>
  <unicode hex="040B"/>
  <outline>
    <contour>
      <point x="250" y="0" type="line"/>
      <point x="250" y="361.667" type="line"/>
      <point x="281" y="368.667" type="line" smooth="yes"/>
      <point x="300.667" y="372.667"/>
      <point x="327" y="376.667"/>
      <point x="358.333" y="376.667" type="curve" smooth="yes"/>
      <point x="440.667" y="376.667"/>
      <point x="486.667" y="331.333"/>
      <point x="486.667" y="255" type="curve" smooth="yes"/>
      <point x="486.667" y="0" type="line"/>
      <point x="600" y="0" type="line"/>
      <point x="600" y="255" type="line" smooth="yes"/>
      <point x="600" y="373.333"/>
      <point x="521" y="453.333"/>
      <point x="383.333" y="453.333" type="curve" smooth="yes"/>
      <point x="345" y="453.333"/>
      <point x="311.667" y="449.333"/>
      <point x="288" y="445.333" type="curve"/>
      <point x="279.25" y="443.502"/>
      <point x="257.96" y="439.751"/>
      <point x="250" y="438.333" type="curve"/>
      <point x="250" y="623.333" type="line"/>
      <point x="426.667" y="623.333" type="line"/>
      <point x="426.667" y="700" type="line"/>
      <point x="0" y="700" type="line"/>
      <point x="0" y="623.333" type="line"/>
      <point x="136.667" y="623.333" type="line"/>
      <point x="136.667" y="0" type="line"/>
    </contour>
  </outline>
</glyph>
<glyph name="Be-cy" format="2">
  <advance width="580"/>
  <unicode hex="0411"/>
  <outline>
    <contour>
      <point x="283.333" y="0" type="line" smooth="yes"/>
      <point x="456.333" y="0"/>
      <point x="536.667" y="79.3333"/>
      <point x="536.667" y="211.667" type="curve" smooth="yes"/>
      <point x="536.667" y="339.333"/>
      <point x="456.333" y="423.333"/>
      <point x="283.333" y="423.333" type="curve" smooth="yes"/>
      <point x="201.667" y="423.333" type="line"/>
      <point x="201.667" y="623.333" type="line"/>
      <point x="488.333" y="623.333" type="line"/>
      <point x="488.333" y="700" type="line"/>
      <point x="88.3333" y="700" type="line"/>
      <point x="88.3333" y="0" type="line"/>
    </contour>
    <contour>
      <point x="201.667" y="346.667" type="line"/>
      <point x="283.333" y="346.667" type="line" smooth="yes"/>
      <point x="377.667" y="346.667"/>
      <point x="423.333" y="300.667"/>
      <point x="423.333" y="211.667" type="curve" smooth="yes"/>
      <point x="423.333" y="122.667"/>
      <point x="377.667" y="76.6667"/>
      <point x="283.333" y="76.6667" type="curve" smooth="yes"/>
      <point x="201.667" y="76.6667" type="line"/>
    </contour>
  </outline>
</glyph>
<glyph name="Ge-cy" format="2">
  <advance width="498"/>
  <unicode hex="0413"/>
  <anchor x="88.3333" y="0" name="bottomright"/>
  <anchor x="171" y="350" name="center"/>
  <anchor x="306" y="700" name="top"/>
  <outline>
    <contour>
      <point x="201.667" y="0" type="line"/>
      <point x="201.667" y="623.333" type="line"/>
      <point x="488.333" y="623.333" type="line"/>
      <point x="488.333" y="700" type="line"/>
      <point x="88.3333" y="700" type="line"/>
      <point x="88.3333" y="0" type="line"/>
    </contour>
  </outline>
</glyph>
<glyph name="Ie-cy" format="2">
  <advance width="517"/>
  <unicode hex="0415"/>
  <anchor x="302.333" y="700" name="top"/>
  <outline>
    <contour>
      <point x="488.333" y="0" type="line"/>
      <point x="488.333" y="76.6667" type="line"/>
      <point x="201.667" y="76.6667" type="line"/>
      <point x="201.667" y="326.667" type="line"/>
      <point x="428.333" y="326.667" type="line"/>
      <point x="428.333" y="403.333" type="line"/>
      <point x="201.667" y="403.333" type="line"/>
      <point x="201.667" y="623.333" type="line"/>
      <point x="488.333" y="623.333" type="line"/>
      <point x="488.333" y="700" type="line"/>
      <point x="88.3333" y="700" type="line"/>
      <point x="88.3333" y="0" type="line"/>
    </contour>
  </outline>
</glyph>
<glyph name="Zhe-cy" format="2">
  <advance width="873"/>
  <unicode hex="0416"/>
  <anchor x="674.667" y="0" name="bottomright"/>
  <anchor x="436.667" y="700" name="top"/>
  <outline>
    <contour>
      <point x="93.3333" y="-10" type="curve" smooth="yes"/>
      <point x="160.333" y="-10"/>
      <point x="199" y="31.3333"/>
      <point x="211.667" y="90" type="curve" smooth="yes"/>
      <point x="246.667" y="250" type="line"/>
      <point x="257.667" y="295"/>
      <point x="282.667" y="321.667"/>
      <point x="331.667" y="321.667" type="curve" smooth="yes"/>
      <point x="380" y="321.667" type="line"/>
      <point x="380" y="0" type="line"/>
      <point x="493.333" y="0" type="line"/>
      <point x="493.333" y="321.667" type="line"/>
      <point x="541.667" y="321.667" type="line" smooth="yes"/>
      <point x="590.667" y="321.667"/>
      <point x="615.667" y="295"/>
      <point x="626.667" y="250" type="curve"/>
      <point x="661.667" y="90" type="line" smooth="yes"/>
      <point x="674.333" y="31.3333"/>
      <point x="713" y="-10"/>
      <point x="780" y="-10" type="curve" smooth="yes"/>
      <point x="806" y="-10"/>
      <point x="827.333" y="-6.66667"/>
      <point x="848.333" y="1.66667" type="curve"/>
      <point x="838.333" y="71.6667" type="line"/>
      <point x="833.333" y="71.6667" type="line"/>
      <point x="826" y="67.6667"/>
      <point x="822" y="66.6667"/>
      <point x="813.667" y="66.6667" type="curve" smooth="yes"/>
      <point x="794" y="66.6667"/>
      <point x="781.333" y="80.6667"/>
      <point x="775" y="108.333" type="curve" smooth="yes"/>
      <point x="741.667" y="261.667" type="line"/>
      <point x="730.667" y="306"/>
      <point x="705" y="331.333"/>
      <point x="680" y="346.667" type="curve" smooth="yes"/>
      <point x="665.667" y="355"/>
      <point x="650" y="361.333"/>
      <point x="633.333" y="365" type="curve"/>
      <point x="650" y="368"/>
      <point x="665" y="373.333"/>
      <point x="678.333" y="381" type="curve" smooth="yes"/>
      <point x="701.667" y="394"/>
      <point x="726.667" y="417.667"/>
      <point x="735" y="460" type="curve" smooth="yes"/>
      <point x="760" y="591.667" type="line" smooth="yes"/>
      <point x="765" y="620"/>
      <point x="778.667" y="633.333"/>
      <point x="798.333" y="633.333" type="curve" smooth="yes"/>
      <point x="803.333" y="633.333"/>
      <point x="808.333" y="631.333"/>
      <point x="812.333" y="630.333" type="curve"/>
      <point x="815.333" y="629.333"/>
      <point x="817.333" y="629.333"/>
      <point x="818.333" y="628.333" type="curve"/>
      <point x="823.333" y="628.333" type="line"/>
      <point x="833.333" y="698.333" type="line"/>
      <point x="815.333" y="704" type="line"/>
      <point x="803" y="707.333"/>
      <point x="786.667" y="710"/>
      <point x="765" y="710" type="curve" smooth="yes"/>
      <point x="698" y="710"/>
      <point x="658" y="668.667"/>
      <point x="646.667" y="610" type="curve" smooth="yes"/>
      <point x="620" y="471.667" type="line" smooth="yes"/>
      <point x="611" y="424.667"/>
      <point x="584.333" y="398.333"/>
      <point x="530" y="398.333" type="curve" smooth="yes"/>
      <point x="493.333" y="398.333" type="line"/>
      <point x="493.333" y="700" type="line"/>
      <point x="380" y="700" type="line"/>
      <point x="380" y="398.333" type="line"/>
      <point x="343.333" y="398.333" type="line" smooth="yes"/>
      <point x="289" y="398.333"/>
      <point x="262.333" y="424.667"/>
      <point x="253.333" y="471.667" type="curve" smooth="yes"/>
      <point x="226.667" y="610" type="line" smooth="yes"/>
      <point x="215.333" y="668.667"/>
      <point x="175.333" y="710"/>
      <point x="108.333" y="710" type="curve" smooth="yes"/>
      <point x="86.6667" y="710"/>
      <point x="70.3333" y="707.333"/>
      <point x="58" y="704" type="curve"/>
      <point x="40" y="698.333" type="line"/>
      <point x="50" y="628.333" type="line"/>
      <point x="55" y="628.333" type="line"/>
      <point x="56" y="629.333"/>
      <point x="58" y="629.333"/>
      <point x="61" y="630.333" type="curve"/>
      <point x="65" y="631.333"/>
      <point x="70" y="633.333"/>
      <point x="75" y="633.333" type="curve" smooth="yes"/>
      <point x="95.3333" y="633.333"/>
      <point x="108.333" y="619.333"/>
      <point x="113.333" y="591.667" type="curve" smooth="yes"/>
      <point x="138.333" y="460" type="line" smooth="yes"/>
      <point x="146.667" y="417.667"/>
      <point x="171.667" y="394"/>
      <point x="195" y="381" type="curve" smooth="yes"/>
      <point x="208.333" y="373.333"/>
      <point x="223.333" y="368"/>
      <point x="240" y="365" type="curve"/>
      <point x="223.333" y="361.333"/>
      <point x="207.667" y="355"/>
      <point x="193.333" y="346.667" type="curve" smooth="yes"/>
      <point x="168.333" y="331.333"/>
      <point x="141.333" y="306"/>
      <point x="131.667" y="261.667" type="curve" smooth="yes"/>
      <point x="98.3333" y="108.333" type="line" smooth="yes"/>
      <point x="92" y="80.6667"/>
      <point x="78.6667" y="66.6667"/>
      <point x="59.6667" y="66.6667" type="curve" smooth="yes"/>
      <point x="55.3333" y="66.6667"/>
      <point x="50.6667" y="67.6667"/>
      <point x="46" y="68.6667" type="curve"/>
      <point x="40" y="71.6667" type="line"/>
      <point x="35" y="71.6667" type="line"/>
      <point x="25" y="1.66667" type="line"/>
      <point x="28.6996" y="-0.042262"/>
      <point x="36.9285" y="-3.1558"/>
      <point x="42.3333" y="-4.33333" type="curve"/>
      <point x="54.6667" y="-7.66667"/>
      <point x="71.3333" y="-10"/>
    </contour>
  </outline>
</glyph>
<glyph name="Ze-cy" format="2">
  <advance width="525"/>
  <unicode hex="0417"/>
  <anchor x="219.333" y="0" name="bottom"/>
  <anchor x="220" y="700" name="top"/>
  <outline>
    <contour>
      <point x="216.667" y="-10" type="curve" smooth="yes"/>
      <point x="397" y="-10"/>
      <point x="476.667" y="70"/>
      <point x="476.667" y="186.667" type="curve" smooth="yes"/>
      <point x="476.667" y="267.333"/>
      <point x="440" y="311.667"/>
      <point x="405" y="338" type="curve"/>
      <point x="383.667" y="353"/>
      <point x="360" y="363.667"/>
      <point x="333.333" y="370" type="curve"/>
      <point x="357" y="376.333"/>
      <point x="378.333" y="386"/>
      <point x="397" y="399.667" type="curve" smooth="yes"/>
      <point x="429.333" y="423.333"/>
      <point x="461.667" y="462.333"/>
      <point x="461.667" y="528.333" type="curve" smooth="yes"/>
      <point x="461.667" y="630"/>
      <point x="381.333" y="710"/>
      <point x="225" y="710" type="curve" smooth="yes"/>
      <point x="163.667" y="710"/>
      <point x="116.667" y="697"/>
      <point x="85" y="682" type="curve"/>
      <point x="66.6667" y="674"/>
      <point x="50.3333" y="665"/>
      <point x="36.6667" y="655" type="curve"/>
      <point x="75" y="588.333" type="line"/>
      <point x="85" y="588.333" type="line"/>
      <point x="94.6667" y="596.333"/>
      <point x="106.333" y="603.333"/>
      <point x="119.333" y="610.333" type="curve"/>
      <point x="142.333" y="621.333"/>
      <point x="174" y="633.333"/>
      <point x="215" y="633.333" type="curve" smooth="yes"/>
      <point x="304" y="633.333"/>
      <point x="348.333" y="587.333"/>
      <point x="348.333" y="518.333" type="curve" smooth="yes"/>
      <point x="348.333" y="449.333"/>
      <point x="302" y="403.333"/>
      <point x="223.333" y="403.333" type="curve" smooth="yes"/>
      <point x="131.667" y="403.333" type="line"/>
      <point x="131.667" y="326.667" type="line"/>
      <point x="223.333" y="326.667" type="line" smooth="yes"/>
      <point x="317.667" y="326.667"/>
      <point x="363.333" y="280"/>
      <point x="363.333" y="196.667" type="curve" smooth="yes"/>
      <point x="363.333" y="113.333"/>
      <point x="317.333" y="66.6667"/>
      <point x="206.667" y="66.6667" type="curve" smooth="yes"/>
      <point x="160.667" y="66.6667"/>
      <point x="125.667" y="77.6667"/>
      <point x="102" y="88.6667" type="curve"/>
      <point x="88.3333" y="95.6667"/>
      <point x="76.3333" y="102.667"/>
      <point x="66.6667" y="111.667" type="curve"/>
      <point x="56.6667" y="111.667" type="line"/>
      <point x="18.3333" y="45" type="line"/>
      <point x="32" y="34"/>
      <point x="49" y="25"/>
      <point x="68.3333" y="17" type="curve"/>
      <point x="101.333" y="2"/>
      <point x="150.667" y="-10"/>
    </contour>
  </outline>
</glyph>
<glyph name="Ka-cy" format="2">
  <advance width="595"/>
  <unicode hex="041A"/>
  <anchor x="401.667" y="0" name="bottomright"/>
  <anchor x="291.333" y="350" name="center"/>
  <anchor x="294.667" y="700" name="top"/>
  <outline>
    <contour>
      <point x="501.667" y="-10" type="curve" smooth="yes"/>
      <point x="523.333" y="-10"/>
      <point x="540.333" y="-7.66667"/>
      <point x="552.667" y="-4.33333" type="curve"/>
      <point x="558.072" y="-3.1558"/>
      <point x="566.3" y="-0.042262"/>
      <point x="570" y="1.66667" type="curve"/>
      <point x="560" y="71.6667" type="line"/>
      <point x="555" y="71.6667" type="line"/>
      <point x="549" y="68.6667" type="line"/>
      <point x="544" y="67.6667"/>
      <point x="539" y="66.6667"/>
      <point x="535.333" y="66.6667" type="curve" smooth="yes"/>
      <point x="515.667" y="66.6667"/>
      <point x="503" y="80.6667"/>
      <point x="496.667" y="108.333" type="curve" smooth="yes"/>
      <point x="463.333" y="261.667" type="line"/>
      <point x="452.333" y="306"/>
      <point x="426.667" y="331.333"/>
      <point x="401.667" y="346.667" type="curve" smooth="yes"/>
      <point x="387.333" y="355"/>
      <point x="371.667" y="361.333"/>
      <point x="355" y="365" type="curve"/>
      <point x="371.667" y="368"/>
      <point x="386.667" y="373.333"/>
      <point x="400" y="381" type="curve" smooth="yes"/>
      <point x="423.333" y="394"/>
      <point x="448.333" y="417.667"/>
      <point x="456.667" y="460" type="curve" smooth="yes"/>
      <point x="481.667" y="591.667" type="line" smooth="yes"/>
      <point x="486.667" y="620"/>
      <point x="500.333" y="633.333"/>
      <point x="520" y="633.333" type="curve" smooth="yes"/>
      <point x="525" y="633.333"/>
      <point x="530" y="631.333"/>
      <point x="534" y="630.333" type="curve"/>
      <point x="537" y="629.333"/>
      <point x="539" y="629.333"/>
      <point x="540" y="628.333" type="curve"/>
      <point x="545" y="628.333" type="line"/>
      <point x="555" y="698.333" type="line"/>
      <point x="537" y="704" type="line"/>
      <point x="524.667" y="707.333"/>
      <point x="508.333" y="710"/>
      <point x="486.667" y="710" type="curve" smooth="yes"/>
      <point x="419.667" y="710"/>
      <point x="379.667" y="668.667"/>
      <point x="368.333" y="610" type="curve" smooth="yes"/>
      <point x="341.667" y="471.667" type="line" smooth="yes"/>
      <point x="332.667" y="424.667"/>
      <point x="306" y="398.333"/>
      <point x="251.667" y="398.333" type="curve" smooth="yes"/>
      <point x="201.667" y="398.333" type="line"/>
      <point x="201.667" y="700" type="line"/>
      <point x="88.3333" y="700" type="line"/>
      <point x="88.3333" y="0" type="line"/>
      <point x="201.667" y="0" type="line"/>
      <point x="201.667" y="321.667" type="line"/>
      <point x="263.333" y="321.667" type="line" smooth="yes"/>
      <point x="312.333" y="321.667"/>
      <point x="337.333" y="295"/>
      <point x="348.333" y="250" type="curve"/>
      <point x="383.333" y="90" type="line" smooth="yes"/>
      <point x="396" y="31.3333"/>
      <point x="434.667" y="-10"/>
    </contour>
  </outline>
</glyph>
<glyph name="El-cy" format="2">
  <advance width="618"/>
  <unicode hex="041B"/>
  <outline>
    <contour>
      <point x="68.3333" y="-10" type="curve" smooth="yes"/>
      <point x="152.333" y="-10"/>
      <point x="204.667" y="45.6667"/>
      <point x="211.667" y="160" type="curve"/>
      <point x="236.667" y="623.333" type="line"/>
      <point x="416.667" y="623.333" type="line"/>
      <point x="416.667" y="0" type="line"/>
      <point x="530" y="0" type="line"/>
      <point x="530" y="700" type="line"/>
      <point x="128.333" y="700" type="line"/>
      <point x="98.3333" y="160" type="line" smooth="yes"/>
      <point x="94.6667" y="90"/>
      <point x="71.6667" y="66.6667"/>
      <point x="46.6667" y="66.6667" type="curve" smooth="yes"/>
      <point x="42.6667" y="66.6667"/>
      <point x="37.6667" y="67.6667"/>
      <point x="32" y="68.6667" type="curve"/>
      <point x="25" y="71.6667" type="line"/>
      <point x="15" y="71.6667" type="line"/>
      <point x="8.33333" y="1.66667" type="line"/>
      <point x="12.8414" y="-0.0938554"/>
      <point x="21.0064" y="-3.18414"/>
      <point x="26.3333" y="-4.33333" type="curve"/>
      <point x="38" y="-7.66667"/>
      <point x="52" y="-10"/>
    </contour>
  </outline>
</glyph>
<glyph name="U-cy" format="2">
  <advance width="549"/>
  <unicode hex="0423"/>
  <anchor x="274.667" y="700" name="top"/>
  <outline>
    <contour>
      <point x="174" y="-15" type="curve" smooth="yes"/>
      <point x="265.667" y="-15"/>
      <point x="330.667" y="50"/>
      <point x="355.667" y="128.333" type="curve" smooth="yes"/>
      <point x="539" y="700" type="line"/>
      <point x="424" y="700" type="line"/>
      <point x="310.667" y="345" type="line" smooth="yes"/>
      <point x="306.658" y="332.61"/>
      <point x="300.599" y="306.242"/>
      <point x="298.333" y="296.667" type="curve"/>
      <point x="296" y="288"/>
      <point x="294.333" y="278.667"/>
      <point x="293.667" y="270" type="curve"/>
      <point x="289.667" y="270" type="line"/>
      <point x="288.561" y="275.757"/>
      <point x="285.123" y="290.839"/>
      <point x="283.667" y="296.667" type="curve" smooth="yes"/>
      <point x="280" y="312.333"/>
      <point x="274.667" y="330"/>
      <point x="269" y="345" type="curve" smooth="yes"/>
      <point x="128.333" y="700" type="line"/>
      <point x="10" y="700" type="line"/>
      <point x="218.667" y="185" type="line"/>
      <point x="262.333" y="185" type="line"/>
      <point x="244" y="128.333" type="line" smooth="yes"/>
      <point x="231.667" y="90"/>
      <point x="202.333" y="61.6667"/>
      <point x="164" y="61.6667" type="curve" smooth="yes"/>
      <point x="145" y="61.6667"/>
      <point x="132" y="66.6667"/>
      <point x="121" y="73.6667" type="curve"/>
      <point x="114" y="76.6667"/>
      <point x="109" y="81.6667"/>
      <point x="104" y="86.6667" type="curve"/>
      <point x="94" y="86.6667" type="line"/>
      <point x="65.6667" y="15" type="line"/>
      <point x="74.3333" y="9"/>
      <point x="84" y="4"/>
      <point x="95.3333" y="0" type="curve"/>
      <point x="115" y="-8"/>
      <point x="141" y="-15"/>
    </contour>
  </outline>
</glyph>
<glyph name="Ef-cy" format="2">
  <advance width="777"/>
  <unicode hex="0424"/>
  <outline>
    <contour>
      <point x="445" y="-30" type="line"/>
      <point x="445" y="40" type="line"/>
      <point x="629.667" y="51"/>
      <point x="735" y="156"/>
      <point x="735" y="350" type="curve" smooth="yes"/>
      <point x="735" y="544"/>
      <point x="629.667" y="649"/>
      <point x="445" y="660" type="curve"/>
      <point x="445" y="730" type="line"/>
      <point x="331.667" y="730" type="line"/>
      <point x="331.667" y="660" type="line"/>
      <point x="147" y="649"/>
      <point x="41.6667" y="544"/>
      <point x="41.6667" y="350" type="curve" smooth="yes"/>
      <point x="41.6667" y="156"/>
      <point x="147" y="51"/>
      <point x="331.667" y="40" type="curve"/>
      <point x="331.667" y="-30" type="line"/>
    </contour>
    <contour>
      <point x="331.667" y="116.667" type="line"/>
      <point x="225" y="126.333"/>
      <point x="155" y="196.667"/>
      <point x="155" y="350" type="curve" smooth="yes"/>
      <point x="155" y="504"/>
      <point x="225" y="572.333"/>
      <point x="331.667" y="583.333" type="curve"/>
    </contour>
    <contour>
      <point x="445" y="583.333" type="line"/>
      <point x="551.667" y="572.333"/>
      <point x="621.667" y="504"/>
      <point x="621.667" y="350" type="curve" smooth="yes"/>
      <point x="621.667" y="196.667"/>
      <point x="551.667" y="126.333"/>
      <point x="445" y="116.667" type="curve"/>
    </contour>
  </outline>
</glyph>
<glyph name="Che-cy" format="2">
  <advance width="610"/>
  <unicode hex="0427"/>
  <anchor x="408.333" y="0" name="bottomright"/>
  <anchor x="301.667" y="296.667" name="center"/>
  <anchor x="285" y="700" name="top"/>
  <outline>
    <contour>
      <point x="521.667" y="0" type="line"/>
      <point x="521.667" y="700" type="line"/>
      <point x="408.333" y="700" type="line"/>
      <point x="408.333" y="345" type="line"/>
      <point x="399" y="342"/>
      <point x="388.667" y="340"/>
      <point x="377.333" y="337" type="curve"/>
      <point x="357.667" y="333"/>
      <point x="330.333" y="330"/>
      <point x="300" y="330" type="curve" smooth="yes"/>
      <point x="217.667" y="330"/>
      <point x="171.667" y="375.333"/>
      <point x="171.667" y="451.667" type="curve" smooth="yes"/>
      <point x="171.667" y="700" type="line"/>
      <point x="58.3333" y="700" type="line"/>
      <point x="58.3333" y="451.667" type="line" smooth="yes"/>
      <point x="58.3333" y="333.333"/>
      <point x="137.333" y="253.333"/>
      <point x="275" y="253.333" type="curve" smooth="yes"/>
      <point x="313.333" y="253.333"/>
      <point x="346.667" y="256.333"/>
      <point x="370.333" y="260.333" type="curve"/>
      <point x="382.458" y="262.833"/>
      <point x="398.616" y="265.929"/>
      <point x="408.333" y="268.333" type="curve"/>
      <point x="408.333" y="0" type="line"/>
    </contour>
  </outline>
</glyph>
<glyph name="Softsign-cy" format="2">
  <advance width="572"/>
  <unicode hex="042C"/>
  <outline>
    <contour>
      <point x="283.333" y="0" type="line" smooth="yes"/>
      <point x="457.667" y="0"/>
      <point x="536.667" y="79.3333"/>
      <point x="536.667" y="221.667" type="curve" smooth="yes"/>
      <point x="536.667" y="364"/>
      <point x="457.667" y="443.333"/>
      <point x="283.333" y="443.333" type="curve" smooth="yes"/>
      <point x="201.667" y="443.333" type="line"/>
      <point x="201.667" y="700" type="line"/>
      <point x="88.3333" y="700" type="line"/>
      <point x="88.3333" y="0" type="line"/>
    </contour>
    <contour>
      <point x="201.667" y="366.667" type="line"/>
      <point x="283.333" y="366.667" type="line" smooth="yes"/>
      <point x="378.333" y="366.667"/>
      <point x="423.333" y="320.333"/>
      <point x="423.333" y="221.667" type="curve" smooth="yes"/>
      <point x="423.333" y="123"/>
      <point x="378.333" y="76.6667"/>
      <point x="283.333" y="76.6667" type="curve" smooth="yes"/>
      <point x="201.667" y="76.6667" type="line"/>
    </contour>
  </outline>
</glyph>
<glyph name="Ereversed-cy" format="2">
  <advance width="522"/>
  <unicode hex="042D"/>
  <outline>
    <contour>
      <point x="201.667" y="-10" type="curve" smooth="yes"/>
      <point x="367" y="-10"/>
      <point x="468.333" y="91.6667"/>
      <point x="468.333" y="350" type="curve" smooth="yes"/>
      <point x="468.333" y="608.333"/>
      <point x="366" y="710"/>
      <point x="211.667" y="710" type="curve" smooth="yes"/>
      <point x="154.667" y="710"/>
      <point x="111.667" y="697"/>
      <point x="80.3333" y="682" type="curve" smooth="yes"/>
      <point x="62.6667" y="674"/>
      <point x="46.6667" y="665"/>
      <point x="33.3333" y="655" type="curve"/>
      <point x="71.6667" y="588.333" type="line"/>
      <point x="81.6667" y="588.333" type="line"/>
      <point x="92" y="596.333"/>
      <point x="103" y="603.333"/>
      <point x="115" y="610.333" type="curve"/>
      <point x="136" y="621.333"/>
      <point x="165.333" y="633.333"/>
      <point x="201.667" y="633.333" type="curve" smooth="yes"/>
      <point x="282.667" y="633.333"/>
      <point x="345.333" y="576"/>
      <point x="354.333" y="393.333" type="curve"/>
      <point x="123.333" y="393.333" type="line"/>
      <point x="123.333" y="316.667" type="line"/>
      <point x="355" y="316.667" type="line"/>
      <point x="348" y="126"/>
      <point x="283.333" y="66.6667"/>
      <point x="191.667" y="66.6667" type="curve" smooth="yes"/>
      <point x="155.333" y="66.6667"/>
      <point x="126" y="77.6667"/>
      <point x="105" y="88.6667" type="curve"/>
      <point x="93" y="95.6667"/>
      <point x="82" y="102.667"/>
      <point x="71.6667" y="111.667" type="curve"/>
      <point x="61.6667" y="111.667" type="line"/>
      <point x="23.3333" y="45" type="line"/>
      <point x="36.6667" y="34"/>
      <point x="52.6667" y="25"/>
      <point x="70.3333" y="17" type="curve" smooth="yes"/>
      <point x="101.667" y="2"/>
      <point x="144.667" y="-10"/>
    </contour>
  </outline>
</glyph>
<glyph name="Iu-cy" format="2">
  <advance width="827"/>
  <unicode hex="042E"/>
  <outline>
    <contour>
      <point x="531.667" y="-10" type="curve" smooth="yes"/>
      <point x="672" y="-10"/>
      <point x="773.333" y="91.6667"/>
      <point x="773.333" y="350" type="curve" smooth="yes"/>
      <point x="773.333" y="608.333"/>
      <point x="672" y="710"/>
      <point x="531.667" y="710" type="curve" smooth="yes"/>
      <point x="396" y="710"/>
      <point x="301" y="617"/>
      <point x="290" y="393.333" type="curve"/>
      <point x="201.667" y="393.333" type="line"/>
      <point x="201.667" y="700" type="line"/>
      <point x="88.3333" y="700" type="line"/>
      <point x="88.3333" y="0" type="line"/>
      <point x="201.667" y="0" type="line"/>
      <point x="201.667" y="316.667" type="line"/>
      <point x="290" y="316.667" type="line"/>
      <point x="301" y="83.3333"/>
      <point x="396" y="-10"/>
    </contour>
    <contour>
      <point x="531.667" y="66.6667" type="curve" smooth="yes"/>
      <point x="469.667" y="66.6667"/>
      <point x="403.333" y="133"/>
      <point x="403.333" y="350" type="curve" smooth="yes"/>
      <point x="403.333" y="567"/>
      <point x="469.667" y="633.333"/>
      <point x="531.667" y="633.333" type="curve" smooth="yes"/>
      <point x="593.667" y="633.333"/>
      <point x="660" y="567"/>
      <point x="660" y="350" type="curve" smooth="yes"/>
      <point x="660" y="133"/>
      <point x="593.667" y="66.6667"/>
    </contour>
  </outline>
</glyph>
<glyph name="be-cy" format="2">
  <advance width="535"/>
  <unicode hex="0431"/>
  <outline>
    <contour>
      <point x="270" y="-10" type="curve" smooth="yes"/>
      <point x="401.667" y="-10"/>
      <point x="486.667" y="74"/>
      <point x="486.667" y="230" type="curve" smooth="yes"/>
      <point x="486.667" y="386"/>
      <point x="401.667" y="470"/>
      <point x="295" y="470" type="curve" smooth="yes"/>
      <point x="229.667" y="470"/>
      <point x="181" y="441.333"/>
      <point x="150" y="388.333" type="curve"/>
      <point x="150" y="521"/>
      <point x="202.667" y="574.333"/>
      <point x="336.667" y="598.333" type="curve" smooth="yes"/>
      <point x="480" y="623.333" type="line"/>
      <point x="463.333" y="715" type="line"/>
      <point x="320" y="690" type="line" smooth="yes"/>
      <point x="136.667" y="658"/>
      <point x="53.3333" y="577.333"/>
      <point x="53.3333" y="325" type="curve" smooth="yes"/>
      <point x="53.3333" y="230" type="line" smooth="yes"/>
      <point x="53.3333" y="74"/>
      <point x="138.333" y="-10"/>
    </contour>
    <contour>
      <point x="270" y="66.6667" type="curve" smooth="yes"/>
      <point x="213" y="66.6667"/>
      <point x="166.667" y="113.667"/>
      <point x="166.667" y="230" type="curve" smooth="yes"/>
      <point x="166.667" y="341.667"/>
      <point x="213" y="388.333"/>
      <point x="270" y="388.333" type="curve" smooth="yes"/>
      <point x="327" y="388.333"/>
      <point x="373.333" y="341.667"/>
      <point x="373.333" y="230" type="curve" smooth="yes"/>
      <point x="373.333" y="113.667"/>
      <point x="327" y="66.6667"/>
    </contour>
  </outline>
</glyph>
<glyph name="ve-cy" format="2">
  <advance width="517"/>
  <unicode hex="0432"/>
  <outline>
    <contour>
      <point x="266.667" y="0" type="line" smooth="yes"/>
      <point x="415" y="0"/>
      <point x="475" y="60"/>
      <point x="475" y="135" type="curve" smooth="yes"/>
      <point x="475" y="191"/>
      <point x="445" y="220"/>
      <point x="415.333" y="239" type="curve"/>
      <point x="398" y="249"/>
      <point x="378.333" y="256"/>
      <point x="356.667" y="260" type="curve"/>
      <point x="374.333" y="265"/>
      <point x="391" y="272"/>
      <point x="405.333" y="281" type="curve" smooth="yes"/>
      <point x="430.333" y="297"/>
      <point x="455" y="325"/>
      <point x="455" y="370" type="curve" smooth="yes"/>
      <point x="455" y="439"/>
      <point x="394.333" y="500"/>
      <point x="266.667" y="500" type="curve" smooth="yes"/>
      <point x="73.3333" y="500" type="line"/>
      <point x="73.3333" y="0" type="line"/>
    </contour>
    <contour>
      <point x="186.667" y="216.667" type="line"/>
      <point x="266.667" y="216.667" type="line" smooth="yes"/>
      <point x="334" y="216.667"/>
      <point x="361.667" y="188.333"/>
      <point x="361.667" y="146.667" type="curve" smooth="yes"/>
      <point x="361.667" y="105"/>
      <point x="334" y="76.6667"/>
      <point x="266.667" y="76.6667" type="curve" smooth="yes"/>
      <point x="186.667" y="76.6667" type="line"/>
    </contour>
    <contour>
      <point x="186.667" y="423.333" type="line"/>
      <point x="266.667" y="423.333" type="line" smooth="yes"/>
      <point x="314" y="423.333"/>
      <point x="341.667" y="395.333"/>
      <point x="341.667" y="358.333" type="curve" smooth="yes"/>
      <point x="341.667" y="321.333"/>
      <point x="314" y="293.333"/>
      <point x="266.667" y="293.333" type="curve" smooth="yes"/>
      <point x="186.667" y="293.333" type="line"/>
    </contour>
  </outline>
</glyph>
<glyph name="ge-cy" format="2">
  <advance width="420"/>
  <unicode hex="0433"/>
  <anchor x="73.3333" y="0" name="bottomright"/>
  <anchor x="161.667" y="250" name="center"/>
  <anchor x="265" y="500" name="top"/>
  <outline>
    <contour>
      <point x="186.667" y="0" type="line"/>
      <point x="186.667" y="423.333" type="line"/>
      <point x="410" y="423.333" type="line"/>
      <point x="410" y="500" type="line"/>
      <point x="73.3333" y="500" type="line"/>
      <point x="73.3333" y="0" type="line"/>
    </contour>
  </outline>
</glyph>
<glyph name="de-cy" format="2">
  <advance width="573"/>
  <unicode hex="0434"/>
  <outline>
    <contour>
      <point x="98.3333" y="-140" type="line"/>
      <point x="115" y="0" type="line"/>
      <point x="433.333" y="0" type="line"/>
      <point x="450" y="-140" type="line"/>
      <point x="538.333" y="-140" type="line"/>
      <point x="538.333" y="76.6667" type="line"/>
      <point x="473.333" y="76.6667" type="line"/>
      <point x="473.333" y="500" type="line"/>
      <point x="125" y="500" type="line"/>
      <point x="108.333" y="216.667" type="line" smooth="yes"/>
      <point x="105.333" y="170.333"/>
      <point x="92.6667" y="136.333"/>
      <point x="80" y="112" type="curve" smooth="yes"/>
      <point x="73" y="98.3333"/>
      <point x="64.3333" y="86.3333"/>
      <point x="55" y="76.6667" type="curve"/>
      <point x="5" y="76.6667" type="line"/>
      <point x="5" y="-140" type="line"/>
    </contour>
    <contour>
      <point x="167" y="76.6667" type="line"/>
      <point x="176.333" y="86.3333"/>
      <point x="185" y="98.3333"/>
      <point x="192" y="112" type="curve" smooth="yes"/>
      <point x="204.667" y="136.333"/>
      <point x="217.333" y="170.333"/>
      <point x="220.333" y="216.667" type="curve" smooth="yes"/>
      <point x="231.667" y="423.333" type="line"/>
      <point x="360" y="423.333" type="line"/>
      <point x="360" y="76.6667" type="line"/>
    </contour>
  </outline>
</glyph>
<glyph name="ka-cy" format="2">
  <advance width="520"/>
  <unicode hex="043A"/>
  <anchor x="333.333" y="0" name="bottomright"/>
  <anchor x="243.333" y="250" name="center"/>
  <anchor x="260" y="500" name="top"/>
  <outline>
    <contour>
      <point x="430" y="-10" type="curve" smooth="yes"/>
      <point x="449" y="-10"/>
      <point x="464.667" y="-7.66667"/>
      <point x="477.667" y="-4.33333" type="curve"/>
      <point x="485" y="-2.66667"/>
      <point x="491" y="-0.666667"/>
      <point x="496.667" y="1.66667" type="curve"/>
      <point x="485" y="71.6667" type="line"/>
      <point x="480" y="71.6667" type="line"/>
      <point x="474" y="68.6667" type="line"/>
      <point x="469" y="67.6667"/>
      <point x="464" y="66.6667"/>
      <point x="460" y="66.6667" type="curve" smooth="yes"/>
      <point x="446.333" y="66.6667"/>
      <point x="436.333" y="76.6667"/>
      <point x="431.667" y="95" type="curve" smooth="yes"/>
      <point x="408.333" y="185" type="line" smooth="yes"/>
      <point x="399.667" y="217"/>
      <point x="376.667" y="236"/>
      <point x="355.667" y="247" type="curve"/>
      <point x="343.333" y="254"/>
      <point x="329.667" y="258"/>
      <point x="315" y="260" type="curve"/>
      <point x="328.333" y="261.667"/>
      <point x="340" y="265.667"/>
      <point x="351.333" y="270.667" type="curve" smooth="yes"/>
      <point x="370.667" y="279.667"/>
      <point x="391" y="295"/>
      <point x="398.333" y="325" type="curve" smooth="yes"/>
      <point x="418.333" y="405" type="line" smooth="yes"/>
      <point x="423" y="423.333"/>
      <point x="433" y="433.333"/>
      <point x="446.667" y="433.333" type="curve" smooth="yes"/>
      <point x="451.667" y="433.333"/>
      <point x="456.667" y="431.333"/>
      <point x="460.667" y="430.333" type="curve"/>
      <point x="463.667" y="429.333"/>
      <point x="465.667" y="429.333"/>
      <point x="466.667" y="428.333" type="curve"/>
      <point x="471.667" y="428.333" type="line"/>
      <point x="483.333" y="498.333" type="line"/>
      <point x="479.285" y="499.504"/>
      <point x="469.013" y="502.408"/>
      <point x="464.333" y="504" type="curve"/>
      <point x="452" y="507.333"/>
      <point x="435.667" y="510"/>
      <point x="416.667" y="510" type="curve" smooth="yes"/>
      <point x="355" y="510"/>
      <point x="324.333" y="479"/>
      <point x="311.667" y="426.667" type="curve" smooth="yes"/>
      <point x="290" y="340" type="line" smooth="yes"/>
      <point x="283" y="311"/>
      <point x="266.333" y="293.333"/>
      <point x="230" y="293.333" type="curve" smooth="yes"/>
      <point x="186.667" y="293.333" type="line"/>
      <point x="186.667" y="500" type="line"/>
      <point x="73.3333" y="500" type="line"/>
      <point x="73.3333" y="0" type="line"/>
      <point x="186.667" y="0" type="line"/>
      <point x="186.667" y="216.667" type="line"/>
      <point x="240" y="216.667" type="line" smooth="yes"/>
      <point x="273.667" y="216.667"/>
      <point x="292.333" y="199"/>
      <point x="300" y="170" type="curve" smooth="yes"/>
      <point x="325" y="73.3333" type="line" smooth="yes"/>
      <point x="338.667" y="21.6667"/>
      <point x="369" y="-10"/>
    </contour>
  </outline>
</glyph>
<glyph name="pe-cy" format="2">
  <advance width="560"/>
  <unicode hex="043F"/>
  <anchor x="373.333" y="0" name="bottomright"/>
  <outline>
    <contour>
      <point x="186.667" y="0" type="line"/>
      <point x="186.667" y="423.333" type="line"/>
      <point x="373.333" y="423.333" type="line"/>
      <point x="373.333" y="0" type="line"/>
      <point x="486.667" y="0" type="line"/>
      <point x="486.667" y="500" type="line"/>
      <point x="73.3333" y="500" type="line"/>
      <point x="73.3333" y="0" type="line"/>
    </contour>
  </outline>
</glyph>
<glyph name="ef-cy" format="2">
  <advance width="690"/>
  <unicode hex="0444"/>
  <outline>
    <contour>
      <point x="401.667" y="-200" type="line"/>
      <point x="401.667" y="-10" type="line"/>
      <point x="559.333" y="-5"/>
      <point x="646.667" y="81.6667"/>
      <point x="646.667" y="250" type="curve" smooth="yes"/>
      <point x="646.667" y="418.333"/>
      <point x="559.333" y="505"/>
      <point x="401.667" y="510" type="curve"/>
      <point x="401.667" y="700" type="line"/>
      <point x="321.667" y="700" type="line"/>
      <point x="288.333" y="666.667" type="line"/>
      <point x="288.333" y="510" type="line"/>
      <point x="130.667" y="505"/>
      <point x="43.3333" y="418.333"/>
      <point x="43.3333" y="250" type="curve" smooth="yes"/>
      <point x="43.3333" y="81.6667"/>
      <point x="130.667" y="-5"/>
      <point x="288.333" y="-10" type="curve"/>
      <point x="288.333" y="-200" type="line"/>
    </contour>
    <contour>
      <point x="288.333" y="66.6667" type="line"/>
      <point x="206.333" y="71.6667"/>
      <point x="156.667" y="121"/>
      <point x="156.667" y="250" type="curve" smooth="yes"/>
      <point x="156.667" y="379"/>
      <point x="206.333" y="428.333"/>
      <point x="288.333" y="433.333" type="curve"/>
    </contour>
    <contour>
      <point x="401.667" y="433.333" type="line"/>
      <point x="483.667" y="428.333"/>
      <point x="533.333" y="379"/>
      <point x="533.333" y="250" type="curve" smooth="yes"/>
      <point x="533.333" y="121"/>
      <point x="483.667" y="71.6667"/>
      <point x="401.667" y="66.6667" type="curve"/>
    </contour>
  </outline>
</glyph>
<glyph name="shcha-cy" format="2">
  <advance width="827"/>
  <unicode hex="0449"/>
  <outline>
    <contour>
      <point x="791.667" y="-140" type="line"/>
      <point x="791.667" y="76.6667" type="line"/>
      <point x="726.667" y="76.6667" type="line"/>
      <point x="726.667" y="500" type="line"/>
      <point x="613.333" y="500" type="line"/>
      <point x="613.333" y="76.6667" type="line"/>
      <point x="456.667" y="76.6667" type="line"/>
      <point x="456.667" y="500" type="line"/>
      <point x="343.333" y="500" type="line"/>
      <point x="343.333" y="76.6667" type="line"/>
      <point x="186.667" y="76.6667" type="line"/>
      <point x="186.667" y="500" type="line"/>
      <point x="73.3333" y="500" type="line"/>
      <point x="73.3333" y="0" type="line"/>
      <point x="686.667" y="0" type="line"/>
      <point x="703.333" y="-140" type="line"/>
    </contour>
  </outline>
</glyph>
<glyph name="hardsign-cy" format="2">
  <advance width="563"/>
  <unicode hex="044A"/>
  <outline>
    <contour>
      <point x="333.333" y="0" type="line" smooth="yes"/>
      <point x="466" y="0"/>
      <point x="540" y="50.6667"/>
      <point x="540" y="166.667" type="curve" smooth="yes"/>
      <point x="540" y="273.333"/>
      <point x="480" y="333.333"/>
      <point x="331.667" y="333.333" type="curve" smooth="yes"/>
      <point x="250" y="333.333" type="line"/>
      <point x="250" y="500" type="line"/>
      <point x="10" y="500" type="line"/>
      <point x="10" y="423.333" type="line"/>
      <point x="136.667" y="423.333" type="line"/>
      <point x="136.667" y="0" type="line"/>
    </contour>
    <contour>
      <point x="250" y="256.667" type="line"/>
      <point x="331.667" y="256.667" type="line" smooth="yes"/>
      <point x="397.667" y="256.667"/>
      <point x="426.667" y="227"/>
      <point x="426.667" y="166.667" type="curve" smooth="yes"/>
      <point x="426.667" y="106.333"/>
      <point x="397.667" y="76.6667"/>
      <point x="331.667" y="76.6667" type="curve" smooth="yes"/>
      <point x="250" y="76.6667" type="line"/>
    </contour>
  </outline>
</glyph>
<glyph name="softsign-cy" format="2">
  <advance width="500"/>
  <unicode hex="044C"/>
  <outline>
    <contour>
      <point x="268.333" y="0" type="line" smooth="yes"/>
      <point x="416.667" y="0"/>
      <point x="476.667" y="60"/>
      <point x="476.667" y="166.667" type="curve" smooth="yes"/>
      <point x="476.667" y="273.333"/>
      <point x="416.667" y="333.333"/>
      <point x="268.333" y="333.333" type="curve" smooth="yes"/>
      <point x="186.667" y="333.333" type="line"/>
      <point x="186.667" y="500" type="line"/>
      <point x="73.3333" y="500" type="line"/>
      <point x="73.3333" y="0" type="line"/>
    </contour>
    <contour>
      <point x="186.667" y="256.667" type="line"/>
      <point x="268.333" y="256.667" type="line" smooth="yes"/>
      <point x="334.333" y="256.667"/>
      <point x="363.333" y="227"/>
      <point x="363.333" y="166.667" type="curve" smooth="yes"/>
      <point x="363.333" y="106.333"/>
      <point x="334.333" y="76.6667"/>
      <point x="268.333" y="76.6667" type="curve" smooth="yes"/>
      <point x="186.667" y="76.6667" type="line"/>
    </contour>
  </outline>
</glyph>
<glyph name="ereversed-cy" format="2">
  <advance width="462"/>
  <unicode hex="044D"/>
  <outline>
    <contour>
      <point x="186.667" y="-10" type="curve" smooth="yes"/>
      <point x="330.333" y="-10"/>
      <point x="415" y="74.6667"/>
      <point x="415" y="250" type="curve" smooth="yes"/>
      <point x="415" y="425.333"/>
      <point x="330.333" y="510"/>
      <point x="196.667" y="510" type="curve" smooth="yes"/>
      <point x="145.667" y="510"/>
      <point x="105.333" y="497"/>
      <point x="75.6667" y="483" type="curve" smooth="yes"/>
      <point x="58.6667" y="475.333"/>
      <point x="43.3333" y="466.333"/>
      <point x="30" y="456.667" type="curve"/>
      <point x="68.3333" y="390" type="line"/>
      <point x="78.3333" y="390" type="line"/>
      <point x="87" y="397.667"/>
      <point x="97.3333" y="404.667"/>
      <point x="109" y="411.333" type="curve" smooth="yes"/>
      <point x="128.667" y="422.333"/>
      <point x="155" y="433.333"/>
      <point x="186.667" y="433.333" type="curve" smooth="yes"/>
      <point x="248" y="433.333"/>
      <point x="288.333" y="397.667"/>
      <point x="299.333" y="293.333" type="curve"/>
      <point x="122.667" y="293.333" type="line"/>
      <point x="122.667" y="216.667" type="line"/>
      <point x="301" y="216.667" type="line"/>
      <point x="294" y="106.667"/>
      <point x="247" y="66.6667"/>
      <point x="176.667" y="66.6667" type="curve" smooth="yes"/>
      <point x="145" y="66.6667"/>
      <point x="118.667" y="77"/>
      <point x="99" y="88" type="curve" smooth="yes"/>
      <point x="87.3333" y="94.6667"/>
      <point x="77" y="101.667"/>
      <point x="68.3333" y="110" type="curve"/>
      <point x="58.3333" y="110" type="line"/>
      <point x="20" y="43.3333" type="line"/>
      <point x="33.3333" y="33"/>
      <point x="48.6667" y="24"/>
      <point x="65.6667" y="16.3333" type="curve"/>
      <point x="95.3333" y="2"/>
      <point x="135.667" y="-10"/>
    </contour>
  </outline>
</glyph>
<glyph name="iu-cy" format="2">
  <advance width="727"/>
  <unicode hex="044E"/>
  <outline>
    <contour>
      <point x="470" y="-10" type="curve" smooth="yes"/>
      <point x="595" y="-10"/>
      <point x="680" y="75"/>
      <point x="680" y="250" type="curve" smooth="yes"/>
      <point x="680" y="425"/>
      <point x="595" y="510"/>
      <point x="470" y="510" type="curve" smooth="yes"/>
      <point x="351.667" y="510"/>
      <point x="272.333" y="435.667"/>
      <point x="260" y="293.333" type="curve"/>
      <point x="186.667" y="293.333" type="line"/>
      <point x="186.667" y="500" type="line"/>
      <point x="73.3333" y="500" type="line"/>
      <point x="73.3333" y="0" type="line"/>
      <point x="186.667" y="0" type="line"/>
      <point x="186.667" y="216.667" type="line"/>
      <point x="260" y="216.667" type="line"/>
      <point x="272.333" y="67.6667"/>
      <point x="347.667" y="-10"/>
    </contour>
    <contour>
      <point x="470" y="66.6667" type="curve" smooth="yes"/>
      <point x="417.667" y="66.6667"/>
      <point x="373.333" y="111.667"/>
      <point x="373.333" y="250" type="curve" smooth="yes"/>
      <point x="373.333" y="388.333"/>
      <point x="417.667" y="433.333"/>
      <point x="470" y="433.333" type="curve" smooth="yes"/>
      <point x="522.333" y="433.333"/>
      <point x="566.667" y="388.333"/>
      <point x="566.667" y="250" type="curve" smooth="yes"/>
      <point x="566.667" y="111.667"/>
      <point x="522.333" y="66.6667"/>
    </contour>
  </outline>
</glyph>
<glyph name="dje-cy" format="2">
  <advance width="563"/>
  <unicode hex="0452"/>
  <outline>
    <contour>
      <point x="335" y="-140" type="curve" smooth="yes"/>
      <point x="434.333" y="-140"/>
      <point x="500" y="-74"/>
      <point x="500" y="23.3333" type="curve" smooth="yes"/>
      <point x="500" y="273.333" type="line" smooth="yes"/>
      <point x="500" y="380.333"/>
      <point x="430.333" y="450"/>
      <point x="323.333" y="450" type="curve" smooth="yes"/>
      <point x="283" y="450"/>
      <point x="253.333" y="437.333"/>
      <point x="231.667" y="425.667" type="curve" smooth="yes"/>
      <point x="219.333" y="418.667"/>
      <point x="208.667" y="410.333"/>
      <point x="200" y="401.667" type="curve"/>
      <point x="200" y="513.333" type="line"/>
      <point x="331.667" y="513.333" type="line"/>
      <point x="331.667" y="590" type="line"/>
      <point x="200" y="590" type="line"/>
      <point x="200" y="700" type="line"/>
      <point x="120" y="700" type="line"/>
      <point x="86.6667" y="666.667" type="line"/>
      <point x="86.6667" y="590" type="line"/>
      <point x="25" y="590" type="line"/>
      <point x="25" y="513.333" type="line"/>
      <point x="86.6667" y="513.333" type="line"/>
      <point x="86.6667" y="0" type="line"/>
      <point x="200" y="0" type="line"/>
      <point x="200" y="308.333" type="line"/>
      <point x="208.333" y="319.333"/>
      <point x="217.333" y="329.333"/>
      <point x="227.333" y="338.333" type="curve"/>
      <point x="245" y="353.333"/>
      <point x="268.333" y="368.333"/>
      <point x="298.333" y="368.333" type="curve" smooth="yes"/>
      <point x="350.667" y="368.333"/>
      <point x="386.667" y="332.333"/>
      <point x="386.667" y="273.333" type="curve" smooth="yes"/>
      <point x="386.667" y="23.3333" type="line" smooth="yes"/>
      <point x="386.667" y="-35.3333"/>
      <point x="358.667" y="-63.3333"/>
      <point x="318.333" y="-63.3333" type="curve" smooth="yes"/>
      <point x="306.333" y="-63.3333"/>
      <point x="296.333" y="-61.3333"/>
      <point x="287.667" y="-58.3333" type="curve"/>
      <point x="282.667" y="-57.3333"/>
      <point x="278.333" y="-55.3333"/>
      <point x="275" y="-53.3333" type="curve"/>
      <point x="265" y="-53.3333" type="line"/>
      <point x="253.333" y="-123.333" type="line"/>
      <point x="260.333" y="-126.667"/>
      <point x="268.333" y="-129"/>
      <point x="276.667" y="-132" type="curve"/>
      <point x="291.667" y="-136.333"/>
      <point x="311.333" y="-140"/>
    </contour>
  </outline>
</glyph>
<glyph name="nje-cy" format="2">
  <advance width="783"/>
  <unicode hex="045A"/>
  <outline>
    <contour>
      <point x="186.667" y="0" type="line"/>
      <point x="186.667" y="236.667" type="line"/>
      <point x="356.667" y="236.667" type="line"/>
      <point x="356.667" y="0" type="line"/>
      <point x="551.667" y="0" type="line" smooth="yes"/>
      <point x="700" y="0"/>
      <point x="760" y="60"/>
      <point x="760" y="156.667" type="curve" smooth="yes"/>
      <point x="760" y="253.333"/>
      <point x="700" y="313.333"/>
      <point x="551.667" y="313.333" type="curve" smooth="yes"/>
      <point x="470" y="313.333" type="line"/>
      <point x="470" y="500" type="line"/>
      <point x="356.667" y="500" type="line"/>
      <point x="356.667" y="313.333" type="line"/>
      <point x="186.667" y="313.333" type="line"/>
      <point x="186.667" y="500" type="line"/>
      <point x="73.3333" y="500" type="line"/>
      <point x="73.3333" y="0" type="line"/>
    </contour>
    <contour>
      <point x="470" y="236.667" type="line"/>
      <point x="551.667" y="236.667" type="line" smooth="yes"/>
      <point x="617.667" y="236.667"/>
      <point x="646.667" y="207.333"/>
      <point x="646.667" y="156.667" type="curve" smooth="yes"/>
      <point x="646.667" y="106"/>
      <point x="617.667" y="76.6667"/>
      <point x="551.667" y="76.6667" type="curve" smooth="yes"/>
      <point x="470" y="76.6667" type="line"/>
    </contour>
  </outline>
</glyph>
<glyph name="tshe-cy" format="2">
  <advance width="568"/>
  <unicode hex="045B"/>
  <outline>
    <contour>
      <point x="200" y="0" type="line"/>
      <point x="200" y="308.333" type="line"/>
      <point x="208.333" y="319.333"/>
      <point x="217.333" y="329.333"/>
      <point x="227.333" y="338.333" type="curve"/>
      <point x="245" y="353.333"/>
      <point x="268.333" y="368.333"/>
      <point x="298.333" y="368.333" type="curve" smooth="yes"/>
      <point x="350.667" y="368.333"/>
      <point x="386.667" y="332.333"/>
      <point x="386.667" y="273.333" type="curve" smooth="yes"/>
      <point x="386.667" y="0" type="line"/>
      <point x="500" y="0" type="line"/>
      <point x="500" y="273.333" type="line" smooth="yes"/>
      <point x="500" y="380.333"/>
      <point x="430.333" y="450"/>
      <point x="323.333" y="450" type="curve" smooth="yes"/>
      <point x="283" y="450"/>
      <point x="253.333" y="437.333"/>
      <point x="231.667" y="425.667" type="curve" smooth="yes"/>
      <point x="219.333" y="418.667"/>
      <point x="208.667" y="410.333"/>
      <point x="200" y="401.667" type="curve"/>
      <point x="200" y="513.333" type="line"/>
      <point x="331.667" y="513.333" type="line"/>
      <point x="331.667" y="590" type="line"/>
      <point x="200" y="590" type="line"/>
      <point x="200" y="700" type="line"/>
      <point x="120" y="700" type="line"/>
      <point x="86.6667" y="666.667" type="line"/>
      <point x="86.6667" y="590" type="line"/>
      <point x="25" y="590" type="line"/>
      <point x="25" y="513.333" type="line"/>
      <point x="86.6667" y="513.333" type="line"/>
      <point x="86.6667" y="0" type="line"/>
    </contour>
  </outline>
</glyph>
<glyph name="dzhe-cy" format="2">
  <advance width="560"/>
  <unicode hex="045F"/>
  <outline>
    <contour>
      <point x="323.333" y="-140" type="line"/>
      <point x="335" y="0" type="line"/>
      <point x="486.667" y="0" type="line"/>
      <point x="486.667" y="500" type="line"/>
      <point x="373.333" y="500" type="line"/>
      <point x="373.333" y="76.6667" type="line"/>
      <point x="186.667" y="76.6667" type="line"/>
      <point x="186.667" y="500" type="line"/>
      <point x="73.3333" y="500" type="line"/>
      <point x="73.3333" y="0" type="line"/>
      <point x="225" y="0" type="line"/>
      <point x="236.667" y="-140" type="line"/>
    </contour>
  </outline>
</glyph>
<glyph name="Yat-cy" format="2">
  <advance width="642"/>
  <unicode hex="0462"/>
  <outline>
    <contour>
      <point x="354" y="0" type="line" smooth="yes"/>
      <point x="528.333" y="0"/>
      <point x="607.333" y="79.3333"/>
      <point x="607.333" y="221.667" type="curve" smooth="yes"/>
      <point x="607.333" y="364"/>
      <point x="528.333" y="443.333"/>
      <point x="354" y="443.333" type="curve" smooth="yes"/>
      <point x="272.333" y="443.333" type="line"/>
      <point x="272.333" y="730" type="line"/>
      <point x="159" y="730" type="line"/>
      <point x="159" y="0" type="line"/>
    </contour>
    <contour>
      <point x="272.333" y="366.667" type="line"/>
      <point x="354" y="366.667" type="line" smooth="yes"/>
      <point x="449" y="366.667"/>
      <point x="494" y="320.333"/>
      <point x="494" y="221.667" type="curve" smooth="yes"/>
      <point x="494" y="123"/>
      <point x="449" y="76.6667"/>
      <point x="354" y="76.6667" type="curve" smooth="yes"/>
      <point x="272.333" y="76.6667" type="line"/>
    </contour>
    <contour>
      <point x="465" y="530" type="line"/>
      <point x="465" y="606.667" type="line"/>
      <point x="15" y="606.667" type="line"/>
      <point x="15" y="530" type="line"/>
    </contour>
  </outline>
</glyph>
<glyph name="Gheupturn-cy" format="2">
  <advance width="498"/>
  <unicode hex="0490"/>
  <outline>
    <contour>
      <point x="201.667" y="0" type="line"/>
      <point x="201.667" y="623.333" type="line"/>
      <point x="488.333" y="623.333" type="line"/>
      <point x="488.333" y="803.333" type="line"/>
      <point x="403.333" y="803.333" type="line"/>
      <point x="391.667" y="700" type="line"/>
      <point x="88.3333" y="700" type="line"/>
      <point x="88.3333" y="0" type="line"/>
    </contour>
  </outline>
</glyph>
<glyph name="ghemiddlehook-cy" format="2">
  <advance width="518"/>
  <unicode hex="0495"/>
  <outline>
    <component base="ge-cy"/>
    <contour>
      <point x="321.667" y="-140" type="curve" smooth="yes"/>
      <point x="421" y="-140"/>
      <point x="486.667" y="-74"/>
      <point x="486.667" y="23.3333" type="curve" smooth="yes"/>
      <point x="486.667" y="153.333" type="line" smooth="yes"/>
      <point x="486.667" y="265.333"/>
      <point x="404.333" y="324"/>
      <point x="299" y="324" type="curve" smooth="yes"/>
      <point x="263.333" y="324"/>
      <point x="225" y="317.667"/>
      <point x="186.667" y="304" type="curve"/>
      <point x="186.667" y="222.667" type="line"/>
      <point x="217" y="234.333"/>
      <point x="248.333" y="241.333"/>
      <point x="277.333" y="241.333" type="curve" smooth="yes"/>
      <point x="331.333" y="241.333"/>
      <point x="373.333" y="215"/>
      <point x="373.333" y="140" type="curve" smooth="yes"/>
      <point x="373.333" y="23.3333" type="line" smooth="yes"/>
      <point x="373.333" y="-35.3333"/>
      <point x="345.333" y="-63.3333"/>
      <point x="305" y="-63.3333" type="curve" smooth="yes"/>
      <point x="293" y="-63.3333"/>
      <point x="271" y="-59"/>
      <point x="261.667" y="-53.3333" type="curve"/>
      <point x="251.667" y="-53.3333" type="line"/>
      <point x="240" y="-123.333" type="line"/>
      <point x="262.333" y="-133"/>
      <point x="290.333" y="-140"/>
    </contour>
  </outline>
</glyph>
<glyph name="Zhedescender-cy" format="2">
  <advance width="873"/>
  <unicode hex="0496"/>
  <outline>
    <component base="Zhe-cy"/>
    <contour>
      <point x="848.333" y="-150" type="line"/>
      <point x="848.333" y="1.66667" type="line"/>
      <point x="743.333" y="0" type="line"/>
      <point x="760" y="-150" type="line"/>
    </contour>
  </outline>
</glyph>
<glyph name="Zedescender-cy" format="2">
  <advance width="525"/>
  <unicode hex="0498"/>
  <outline>
    <component base="Ze-cy"/>
    <contour>
      <point x="300" y="-150" type="line"/>
      <point x="300" y="1.66667" type="line"/>
      <point x="195" y="0" type="line"/>
      <point x="211.667" y="-150" type="line"/>
    </contour>
  </outline>
</glyph>
<glyph name="zedescender-cy" format="2">
  <advance width="455"/>
  <unicode hex="0499"/>
  <outline>
    <component base="ze-cy"/>
    <contour>
      <point x="274.667" y="-140" type="line"/>
      <point x="274.667" y="1.66667" type="line"/>
      <point x="169.667" y="0" type="line"/>
      <point x="186.333" y="-140" type="line"/>
    </contour>
  </outline>
</glyph>
<glyph name="Kabashkir-cy" format="2">
  <advance width="713"/>
  <unicode hex="04A0"/>
  <outline>
    <component base="Ka-cy" xScale="1" xOffset="118.333"/>
    <contour>
      <point x="206.667" y="623.333" type="line"/>
      <point x="320" y="700" type="line"/>
      <point x="10" y="700" type="line"/>
      <point x="10" y="623.333" type="line"/>
    </contour>
  </outline>
</glyph>
<glyph name="Enghe-cy" format="2">
  <advance width="808"/>
  <unicode hex="04A4"/>
  <outline>
    <component base="En-cy"/>
    <contour>
      <point x="798.333" y="623.333" type="line"/>
      <point x="798.333" y="700" type="line"/>
      <point x="438.333" y="700" type="line"/>
      <point x="551.667" y="623.333" type="line"/>
    </contour>
  </outline>
</glyph>
<glyph name="enghe-cy" format="2">
  <advance width="670"/>
  <unicode hex="04A5"/>
  <outline>
    <component base="en-cy"/>
    <contour>
      <point x="660" y="423.333" type="line"/>
      <point x="660" y="500" type="line"/>
      <point x="373.333" y="500" type="line"/>
      <point x="486.667" y="423.333" type="line"/>
    </contour>
  </outline>
</glyph>
<glyph name="esdescender-cy" format="2">
  <advance width="462"/>
  <unicode hex="04AB"/>
  <outline>
    <component base="es-cy"/>
    <contour>
      <point x="327.667" y="-140" type="line"/>
      <point x="327.667" y="1.66667" type="line"/>
      <point x="222.667" y="0" type="line"/>
      <point x="239.333" y="-140" type="line"/>
    </contour>
  </outline>
</glyph>
<glyph name="Ustrait-cy" format="2">
  <advance width="543"/>
  <unicode hex="04AE"/>
  <anchor x="272.333" y="207.333" name="center"/>
  <outline>
    <contour>
      <point x="328.333" y="0" type="line"/>
      <point x="328.333" y="230" type="line"/>
      <point x="543.333" y="700" type="line"/>
      <point x="437.667" y="700" type="line"/>
      <point x="295.333" y="371.667" type="line"/>
      <point x="289.333" y="359.333"/>
      <point x="286.333" y="346.667"/>
      <point x="283.333" y="335.667" type="curve" smooth="yes"/>
      <point x="281.832" y="330.158"/>
      <point x="279.83" y="322.151"/>
      <point x="279" y="316.667" type="curve"/>
      <point x="275" y="316.667" type="line"/>
      <point x="274.17" y="322.151"/>
      <point x="272.168" y="330.158"/>
      <point x="270.667" y="335.667" type="curve" smooth="yes"/>
      <point x="268.166" y="345.17"/>
      <point x="262.564" y="361.307"/>
      <point x="258.667" y="371.667" type="curve"/>
      <point x="118.333" y="700" type="line"/>
      <point x="0" y="700" type="line"/>
      <point x="215" y="230" type="line"/>
      <point x="215" y="0" type="line"/>
    </contour>
  </outline>
</glyph>
<glyph name="chekhakassian-cy" format="2">
  <advance width="530"/>
  <unicode hex="04CC"/>
  <outline>
    <component base="che-cy"/>
    <contour>
      <point x="366.667" y="-140" type="line"/>
      <point x="383.333" y="0" type="line"/>
      <point x="456.667" y="0" type="line"/>
      <point x="456.667" y="76.6667" type="line"/>
      <point x="278.333" y="76.6667" type="line"/>
      <point x="278.333" y="-140" type="line"/>
    </contour>
  </outline>
</glyph>
<glyph name="Schwa-cy" format="2">
  <advance width="599"/>
  <unicode hex="04D8"/>
  <outline>
    <contour>
      <point x="301.667" y="-10.3333" type="curve" smooth="yes"/>
      <point x="445.667" y="-10.3333"/>
      <point x="546.333" y="105"/>
      <point x="545.667" y="343.333" type="curve" smooth="yes"/>
      <point x="545" y="597.333"/>
      <point x="447.667" y="710"/>
      <point x="286.333" y="710" type="curve" smooth="yes"/>
      <point x="210.333" y="710"/>
      <point x="144" y="683"/>
      <point x="75.6667" y="623.333" type="curve"/>
      <point x="107.333" y="572.667" type="line"/>
      <point x="121.333" y="572.667" type="line"/>
      <point x="175.667" y="616.667"/>
      <point x="228" y="633.333"/>
      <point x="277.667" y="633.333" type="curve" smooth="yes"/>
      <point x="394" y="633.333"/>
      <point x="438" y="542.667"/>
      <point x="436.333" y="369.667" type="curve"/>
      <point x="436.333" y="344" type="line"/>
      <point x="438" y="151"/>
      <point x="389" y="67.3333"/>
      <point x="301.667" y="67.3333" type="curve" smooth="yes"/>
      <point x="219" y="67.3333"/>
      <point x="159.667" y="143"/>
      <point x="159.667" y="316.667" type="curve"/>
      <point x="475.667" y="316.667" type="line"/>
      <point x="475.667" y="393.333" type="line"/>
      <point x="86" y="393.333" type="line"/>
      <point x="53.3333" y="360.667" type="line"/>
      <point x="53.3333" y="339.333" type="line" smooth="yes"/>
      <point x="53.3333" y="103"/>
      <point x="157.667" y="-10.3333"/>
    </contour>
  </outline>
</glyph>
<glyph name="Obarred-cy" format="2">
  <advance width="610"/>
  <unicode hex="04E8"/>
  <outline>
    <contour>
      <point x="305" y="-10" type="curve" smooth="yes"/>
      <point x="455" y="-10"/>
      <point x="556.667" y="91.6667"/>
      <point x="556.667" y="350" type="curve" smooth="yes"/>
      <point x="556.667" y="608.333"/>
      <point x="455" y="710"/>
      <point x="305" y="710" type="curve" smooth="yes"/>
      <point x="155" y="710"/>
      <point x="53.3333" y="608.333"/>
      <point x="53.3333" y="350" type="curve" smooth="yes"/>
      <point x="53.3333" y="91.6667"/>
      <point x="155" y="-10"/>
    </contour>
    <contour>
      <point x="305" y="66.6667" type="curve" smooth="yes"/>
      <point x="233.333" y="66.6667"/>
      <point x="166.667" y="133"/>
      <point x="166.667" y="350" type="curve" smooth="yes"/>
      <point x="166.667" y="567"/>
      <point x="233.333" y="633.333"/>
      <point x="305" y="633.333" type="curve" smooth="yes"/>
      <point x="376.667" y="633.333"/>
      <point x="443.333" y="567"/>
      <point x="443.333" y="350" type="curve" smooth="yes"/>
      <point x="443.333" y="133"/>
      <point x="376.667" y="66.6667"/>
    </contour>
    <contour>
      <point x="451.667" y="311.667" type="line"/>
      <point x="451.667" y="388.333" type="line"/>
      <point x="158.333" y="388.333" type="line"/>
      <point x="158.333" y="311.667" type="line"/>
    </contour>
  </outline>
</glyph>
<glyph name="obarred-cy" format="2">
  <advance width="533"/>
  <unicode hex="04E9"/>
  <outline>
    <contour>
      <point x="266.667" y="-10" type="curve" smooth="yes"/>
      <point x="401.667" y="-10"/>
      <point x="486.667" y="74.6667"/>
      <point x="486.667" y="250" type="curve" smooth="yes"/>
      <point x="486.667" y="425.333"/>
      <point x="401.667" y="510"/>
      <point x="266.667" y="510" type="curve" smooth="yes"/>
      <point x="131" y="510"/>
      <point x="46.6667" y="425.333"/>
      <point x="46.6667" y="250" type="curve" smooth="yes"/>
      <point x="46.6667" y="74.6667"/>
      <point x="131" y="-10"/>
    </contour>
    <contour>
      <point x="266.667" y="66.6667" type="curve" smooth="yes"/>
      <point x="207" y="66.6667"/>
      <point x="160" y="113.333"/>
      <point x="160" y="250" type="curve" smooth="yes"/>
      <point x="160" y="386.667"/>
      <point x="207" y="433.333"/>
      <point x="266.667" y="433.333" type="curve" smooth="yes"/>
      <point x="326.333" y="433.333"/>
      <point x="373.333" y="386.667"/>
      <point x="373.333" y="250" type="curve" smooth="yes"/>
      <point x="373.333" y="113.333"/>
      <point x="326.333" y="66.6667"/>
    </contour>
    <contour>
      <point x="413.333" y="211.667" type="line"/>
      <point x="413.333" y="288.333" type="line"/>
      <point x="120" y="288.333" type="line"/>
      <point x="120" y="211.667" type="line"/>
    </contour>
  </outline>
</glyph>
<glyph name="endash" format="2">
  <advance width="517"/>
  <unicode hex="2013"/>
  <outline>
    <contour>
      <point x="486.667" y="246.667" type="line"/>
      <point x="486.667" y="333.333" type="line"/>
      <point x="30" y="333.333" type="line"/>
      <point x="30" y="246.667" type="line"/>
    </contour>
  </outline>
</glyph>
<glyph name="emdash" format="2">
  <advance width="727"/>
  <unicode hex="2014"/>
  <outline>
    <contour>
      <point x="696.667" y="246.667" type="line"/>
      <point x="696.667" y="333.333" type="line"/>
      <point x="30" y="333.333" type="line"/>
      <point x="30" y="246.667" type="line"/>
    </contour>
  </outline>
</glyph>
<glyph name="quoteleft" format="2">
  <advance width="207"/>
  <unicode hex="2018"/>
  <outline>
    <contour>
      <point x="108.333" y="458.333" type="curve" smooth="yes"/>
      <point x="140.667" y="458.333"/>
      <point x="168.333" y="486.667"/>
      <point x="168.333" y="523.333" type="curve" smooth="yes"/>
      <point x="168.333" y="560"/>
      <point x="140.667" y="588.333"/>
      <point x="106.667" y="588.333" type="curve"/>
      <point x="106.667" y="612"/>
      <point x="120" y="632.333"/>
      <point x="135.333" y="648" type="curve"/>
      <point x="143.667" y="657"/>
      <point x="153.333" y="665.667"/>
      <point x="165" y="673.333" type="curve"/>
      <point x="135" y="710" type="line"/>
      <point x="116.667" y="699.333"/>
      <point x="100.667" y="685.333"/>
      <point x="86.6667" y="668.333" type="curve"/>
      <point x="62" y="640"/>
      <point x="38.3333" y="595.333"/>
      <point x="38.3333" y="533.333" type="curve" smooth="yes"/>
      <point x="38.3333" y="486.333"/>
      <point x="66.6667" y="458.333"/>
    </contour>
  </outline>
</glyph>
<glyph name="quoteright" format="2">
  <advance width="207"/>
  <unicode hex="2019"/>
  <outline>
    <contour>
      <point x="71.6667" y="458.333" type="line"/>
      <point x="89.6667" y="469"/>
      <point x="105.667" y="483"/>
      <point x="120" y="500" type="curve" smooth="yes"/>
      <point x="144.333" y="528.333"/>
      <point x="168.333" y="571.333"/>
      <point x="168.333" y="635" type="curve" smooth="yes"/>
      <point x="168.333" y="682"/>
      <point x="140" y="710"/>
      <point x="98.3333" y="710" type="curve" smooth="yes"/>
      <point x="66" y="710"/>
      <point x="38.3333" y="681.667"/>
      <point x="38.3333" y="645" type="curve" smooth="yes"/>
      <point x="38.3333" y="608.333"/>
      <point x="66" y="580"/>
      <point x="100" y="580" type="curve"/>
      <point x="100" y="556.333"/>
      <point x="85.6667" y="536"/>
      <point x="70.3333" y="520.333" type="curve"/>
      <point x="62" y="511.333"/>
      <point x="52.3333" y="502.667"/>
      <point x="41.6667" y="495" type="curve"/>
    </contour>
  </outline>
</glyph>
<glyph name="daggerdbl" format="2">
  <advance width="460"/>
  <unicode hex="2021"/>
  <outline>
    <contour>
      <point x="286.667" y="-200" type="line"/>
      <point x="286.667" y="16.6667" type="line"/>
      <point x="440" y="16.6667" type="line"/>
      <point x="440" y="93.3333" type="line"/>
      <point x="286.667" y="93.3333" type="line"/>
      <point x="286.667" y="406.667" type="line"/>
      <point x="440" y="406.667" type="line"/>
      <point x="440" y="483.333" type="line"/>
      <point x="286.667" y="483.333" type="line"/>
      <point x="286.667" y="700" type="line"/>
      <point x="173.333" y="700" type="line"/>
      <point x="173.333" y="483.333" type="line"/>
      <point x="20" y="483.333" type="line"/>
      <point x="20" y="406.667" type="line"/>
      <point x="173.333" y="406.667" type="line"/>
      <point x="173.333" y="93.3333" type="line"/>
      <point x="20" y="93.3333" type="line"/>
      <point x="20" y="16.6667" type="line"/>
      <point x="173.333" y="16.6667" type="line"/>
      <point x="173.333" y="-200" type="line"/>
    </contour>
  </outline>
</glyph>
<glyph name="ellipsis" format="2">
  <advance width="607"/>
  <unicode hex="2026"/>
  <outline>
    <contour>
      <point x="503.333" y="-10" type="curve" smooth="yes"/>
      <point x="540" y="-10"/>
      <point x="568.333" y="18.3333"/>
      <point x="568.333" y="55" type="curve" smooth="yes"/>
      <point x="568.333" y="91.6667"/>
      <point x="540" y="120"/>
      <point x="503.333" y="120" type="curve" smooth="yes"/>
      <point x="466.667" y="120"/>
      <point x="438.333" y="91.6667"/>
      <point x="438.333" y="55" type="curve" smooth="yes"/>
      <point x="438.333" y="18.3333"/>
      <point x="466.667" y="-10"/>
    </contour>
    <contour>
      <point x="103.333" y="-10" type="curve" smooth="yes"/>
      <point x="140" y="-10"/>
      <point x="168.333" y="18.3333"/>
      <point x="168.333" y="55" type="curve" smooth="yes"/>
      <point x="168.333" y="91.6667"/>
      <point x="140" y="120"/>
      <point x="103.333" y="120" type="curve" smooth="yes"/>
      <point x="66.6667" y="120"/>
      <point x="38.3333" y="91.6667"/>
      <point x="38.3333" y="55" type="curve" smooth="yes"/>
      <point x="38.3333" y="18.3333"/>
      <point x="66.6667" y="-10"/>
    </contour>
    <contour>
      <point x="303.333" y="-10" type="curve" smooth="yes"/>
      <point x="340" y="-10"/>
      <point x="368.333" y="18.3333"/>
      <point x="368.333" y="55" type="curve" smooth="yes"/>
      <point x="368.333" y="91.6667"/>
      <point x="340" y="120"/>
      <point x="303.333" y="120" type="curve" smooth="yes"/>
      <point x="266.667" y="120"/>
      <point x="238.333" y="91.6667"/>
      <point x="238.333" y="55" type="curve" smooth="yes"/>
      <point x="238.333" y="18.3333"/>
      <point x="266.667" y="-10"/>
    </contour>
  </outline>
</glyph>
<glyph name="perthousand" format="2">
  <advance width="1154"/>
  <unicode hex="2030"/>
  <outline>
    <contour>
      <point x="228.333" y="0" type="line"/>
      <point x="698.333" y="700" type="line"/>
      <point x="575" y="700" type="line"/>
      <point x="105" y="0" type="line"/>
    </contour>
    <contour>
      <point x="185" y="350" type="curve" smooth="yes"/>
      <point x="282.333" y="350"/>
      <point x="350" y="418"/>
      <point x="350" y="530" type="curve" smooth="yes"/>
      <point x="350" y="642"/>
      <point x="282.333" y="710"/>
      <point x="185" y="710" type="curve" smooth="yes"/>
      <point x="87.6667" y="710"/>
      <point x="20" y="642"/>
      <point x="20" y="530" type="curve" smooth="yes"/>
      <point x="20" y="418"/>
      <point x="87.6667" y="350"/>
    </contour>
    <contour>
      <point x="185" y="416.667" type="curve" smooth="yes"/>
      <point x="148" y="416.667"/>
      <point x="120" y="444.333"/>
      <point x="120" y="530" type="curve" smooth="yes"/>
      <point x="120" y="614.333"/>
      <point x="148" y="643.333"/>
      <point x="185" y="643.333" type="curve" smooth="yes"/>
      <point x="221.333" y="643.333"/>
      <point x="250" y="614.333"/>
      <point x="250" y="530" type="curve" smooth="yes"/>
      <point x="250" y="444.333"/>
      <point x="221.333" y="416.667"/>
    </contour>
    <contour>
      <point x="611.667" y="-10" type="curve" smooth="yes"/>
      <point x="709" y="-10"/>
      <point x="776.667" y="58"/>
      <point x="776.667" y="170" type="curve" smooth="yes"/>
      <point x="776.667" y="282"/>
      <point x="709" y="350"/>
      <point x="611.667" y="350" type="curve" smooth="yes"/>
      <point x="514.333" y="350"/>
      <point x="446.667" y="282"/>
      <point x="446.667" y="170" type="curve" smooth="yes"/>
      <point x="446.667" y="58"/>
      <point x="514.333" y="-10"/>
    </contour>
    <contour>
      <point x="611.667" y="56.6667" type="curve" smooth="yes"/>
      <point x="574.667" y="56.6667"/>
      <point x="546.667" y="84.3333"/>
      <point x="546.667" y="170" type="curve" smooth="yes"/>
      <point x="546.667" y="254.333"/>
      <point x="574.667" y="283.333"/>
      <point x="611.667" y="283.333" type="curve" smooth="yes"/>
      <point x="648" y="283.333"/>
      <point x="676.667" y="254.333"/>
      <point x="676.667" y="170" type="curve" smooth="yes"/>
      <point x="676.667" y="84.3333"/>
      <point x="648" y="56.6667"/>
    </contour>
    <contour>
      <point x="969" y="-10" type="curve" smooth="yes"/>
      <point x="1066.33" y="-10"/>
      <point x="1134" y="58"/>
      <point x="1134" y="170" type="curve" smooth="yes"/>
      <point x="1134" y="282"/>
      <point x="1066.33" y="350"/>
      <point x="969" y="350" type="curve" smooth="yes"/>
      <point x="871.667" y="350"/>
      <point x="804" y="282"/>
      <point x="804" y="170" type="curve" smooth="yes"/>
      <point x="804" y="58"/>
      <point x="871.667" y="-10"/>
    </contour>
    <contour>
      <point x="969" y="56.6667" type="curve" smooth="yes"/>
      <point x="932" y="56.6667"/>
      <point x="904" y="84.3333"/>
      <point x="904" y="170" type="curve" smooth="yes"/>
      <point x="904" y="254.333"/>
      <point x="932" y="283.333"/>
      <point x="969" y="283.333" type="curve" smooth="yes"/>
      <point x="1005.33" y="283.333"/>
      <point x="1034" y="254.333"/>
      <point x="1034" y="170" type="curve" smooth="yes"/>
      <point x="1034" y="84.3333"/>
      <point x="1005.33" y="56.6667"/>
    </contour>
  </outline>
</glyph>
<glyph name="guilsinglleft" format="2">
  <advance width="333"/>
  <unicode hex="2039"/>
  <outline>
    <contour>
      <point x="326.667" y="50" type="line"/>
      <point x="136.667" y="260" type="line"/>
      <point x="326.667" y="470" type="line"/>
      <point x="196.667" y="470" type="line"/>
      <point x="6.66667" y="260" type="line"/>
      <point x="196.667" y="50" type="line"/>
    </contour>
  </outline>
</glyph>
<glyph name="guilsinglright" format="2">
  <advance width="340"/>
  <unicode hex="203A"/>
  <outline>
    <contour>
      <point x="136.667" y="50" type="line"/>
      <point x="326.667" y="260" type="line"/>
      <point x="136.667" y="470" type="line"/>
      <point x="6.66667" y="470" type="line"/>
      <point x="196.667" y="260" type="line"/>
      <point x="6.66667" y="50" type="line"/>
    </contour>
  </outline>
</glyph>
<glyph name="tenge" format="2">
  <advance width="490"/>
  <unicode hex="20B8"/>
  <outline>
    <contour>
      <point x="301.667" y="0" type="line"/>
      <point x="301.667" y="501.667" type="line"/>
      <point x="480" y="501.667" type="line"/>
      <point x="480" y="578.333" type="line"/>
      <point x="10" y="578.333" type="line"/>
      <point x="10" y="501.667" type="line"/>
      <point x="188.333" y="501.667" type="line"/>
      <point x="188.333" y="0" type="line"/>
    </contour>
    <contour>
      <point x="480" y="628.333" type="line"/>
      <point x="480" y="700" type="line"/>
      <point x="10" y="700" type="line"/>
      <point x="10" y="628.333" type="line"/>
    </contour>
  </outline>
</glyph>
<glyph name="ruble" format="2">
  <advance width="575"/>
  <unicode hex="20BD"/>
  <outline>
    <component base="P" xOffset="10"/>
    <contour>
      <point x="310" y="106.667" type="line"/>
      <point x="310" y="183.333" type="line"/>
      <point x="16.6667" y="183.333" type="line"/>
      <point x="16.6667" y="106.667" type="line"/>
    </contour>
    <contour>
      <point x="203.333" y="236.667" type="line"/>
      <point x="203.333" y="313.333" type="line"/>
      <point x="16.6667" y="313.333" type="line"/>
      <point x="16.6667" y="236.667" type="line"/>
    </contour>
  </outline>
</glyph>
<glyph name="trademark" format="2">
  <advance width="865"/>
  <unicode hex="2122"/>
  <outline>
    <contour>
      <point x="481.667" y="320" type="line"/>
      <point x="481.667" y="488.333" type="line" smooth="yes"/>
      <point x="481.667" y="500.333"/>
      <point x="480.667" y="514.667"/>
      <point x="479.667" y="526" type="curve"/>
      <point x="478.667" y="533"/>
      <point x="478.667" y="539.333"/>
      <point x="478.667" y="545" type="curve"/>
      <point x="483.667" y="545" type="line"/>
      <point x="484.753" y="540.622"/>
      <point x="488.522" y="529.869"/>
      <point x="490.333" y="525.333" type="curve"/>
      <point x="494.333" y="514"/>
      <point x="499.667" y="500.333"/>
      <point x="506.667" y="488.333" type="curve"/>
      <point x="563.333" y="383.333" type="line"/>
      <point x="643.333" y="383.333" type="line"/>
      <point x="700" y="488.333" type="line"/>
      <point x="707" y="500.333"/>
      <point x="712.333" y="514"/>
      <point x="716.333" y="525.333" type="curve"/>
      <point x="718.145" y="529.869"/>
      <point x="721.913" y="540.622"/>
      <point x="723" y="545" type="curve"/>
      <point x="728" y="545" type="line"/>
      <point x="726" y="526" type="line" smooth="yes"/>
      <point x="725" y="514.667"/>
      <point x="725" y="500.333"/>
      <point x="725" y="488.333" type="curve" smooth="yes"/>
      <point x="725" y="320" type="line"/>
      <point x="825" y="320" type="line"/>
      <point x="825" y="700" type="line"/>
      <point x="721.667" y="700" type="line"/>
      <point x="618.667" y="510" type="line" smooth="yes"/>
      <point x="614.903" y="503.044"/>
      <point x="610.169" y="489.588"/>
      <point x="608.333" y="485.333" type="curve"/>
      <point x="605.333" y="473.333" type="line"/>
      <point x="601.333" y="473.333" type="line"/>
      <point x="597.667" y="485.333" type="line" smooth="yes"/>
      <point x="595.333" y="493"/>
      <point x="592.333" y="501.667"/>
      <point x="588" y="510" type="curve" smooth="yes"/>
      <point x="485" y="700" type="line"/>
      <point x="381.667" y="700" type="line"/>
      <point x="381.667" y="320" type="line"/>
    </contour>
    <contour>
      <point x="226.667" y="320" type="line"/>
      <point x="226.667" y="630" type="line"/>
      <point x="343.333" y="630" type="line"/>
      <point x="343.333" y="700" type="line"/>
      <point x="10" y="700" type="line"/>
      <point x="10" y="630" type="line"/>
      <point x="126.667" y="630" type="line"/>
      <point x="126.667" y="320" type="line"/>
    </contour>
  </outline>
</glyph>
<glyph name="Decyr.loclBGR" format="2">
  <advance width="663"/>
  <outline>
    <contour>
      <point x="391.333" y="700" type="line"/>
      <point x="279.333" y="700" type="line"/>
      <point x="103.667" y="76.6667" type="line"/>
      <point x="40" y="76.6667" type="line"/>
      <point x="40" y="-150" type="line"/>
      <point x="133.333" y="-150" type="line"/>
      <point x="150" y="0" type="line"/>
      <point x="518.333" y="0" type="line"/>
      <point x="535" y="-150" type="line"/>
      <point x="623.333" y="-150" type="line"/>
      <point x="623.333" y="76.6667" type="line"/>
      <point x="566" y="76.6667" type="line"/>
    </contour>
    <contour>
      <point x="317" y="503.333" type="line" smooth="yes"/>
      <point x="321.333" y="518.667"/>
      <point x="324" y="535.667"/>
      <point x="327" y="550.667" type="curve"/>
      <point x="330" y="575" type="line"/>
      <point x="334" y="575" type="line"/>
      <point x="338" y="550.333" type="line"/>
      <point x="341" y="535.333"/>
      <point x="343" y="518.667"/>
      <point x="347" y="503.333" type="curve" smooth="yes"/>
      <point x="463.667" y="76.6667" type="line"/>
      <point x="199.333" y="76.6667" type="line"/>
    </contour>
  </outline>
</glyph>
<glyph name="brevecomb-cy.case" format="2">
  <advance width="407"/>
  <anchor x="203.333" y="700" name="_top"/>
  <outline>
    <contour>
      <point x="203.333" y="750" type="curve" smooth="yes"/>
      <point x="307" y="750"/>
      <point x="356.667" y="799.667"/>
      <point x="356.667" y="883.333" type="curve"/>
      <point x="260" y="883.333" type="line"/>
      <point x="260" y="832.333"/>
      <point x="240.333" y="813.333"/>
      <point x="203.333" y="813.333" type="curve" smooth="yes"/>
      <point x="166.333" y="813.333"/>
      <point x="146.667" y="832.333"/>
      <point x="146.667" y="883.333" type="curve"/>
      <point x="50" y="883.333" type="line"/>
      <point x="50" y="799.667"/>
      <point x="99.6667" y="750"/>
    </contour>
  </outline>
</glyph>
<glyph name="descender-cy.case" format="2">
  <advance width="228"/>
  <anchor x="97.6667" y="0" name="_bottom"/>
  <anchor x="0" y="0" name="_bottomright"/>
  <outline>
    <contour>
      <point x="178.333" y="-150" type="line"/>
      <point x="178.333" y="76.6667" type="line"/>
      <point x="0" y="76.6667" type="line"/>
      <point x="0" y="0" type="line"/>
      <point x="73.3333" y="0" type="line"/>
      <point x="90" y="-150" type="line"/>
    </contour>
  </outline>
</glyph>
<glyph name="shacyr.loclBGR" format="2">
  <advance width="815"/>
  <outline>
    <contour>
      <point x="508.333" y="206.667" type="curve"/>
      <point x="517.121" y="176"/>
      <point x="522.008" y="160"/>
      <point x="548.333" y="160" type="curve"/>
      <point x="585" y="139.32"/>
      <point x="615.667" y="81.0274"/>
      <point x="638.333" y="88.3333" type="curve"/>
      <point x="634.519" y="78.6667"/>
      <point x="627.761" y="68.3333"/>
      <point x="616.667" y="68.3333" type="curve"/>
      <point x="605.906" y="62.8972"/>
      <point x="599.984" y="48.429"/>
      <point x="601.667" y="60" type="curve"/>
      <point x="648.333" y="166.667" type="line"/>
      <point x="601.667" y="500" type="line"/>
      <point x="535" y="378.333" type="line"/>
      <point x="528.667" y="329.802"/>
      <point x="521.333" y="156.686"/>
      <point x="510" y="111.667" type="curve"/>
      <point x="483" y="93"/>
      <point x="449.667" y="81.6667"/>
      <point x="425" y="103.333" type="curve"/>
      <point x="395" y="120.214"/>
      <point x="368.333" y="214.992"/>
      <point x="368.333" y="273.333" type="curve"/>
      <point x="321.667" y="500" type="line"/>
      <point x="255" y="393.333" type="line"/>
      <point x="255" y="300.478"/>
      <point x="278" y="121.515"/>
      <point x="315" y="73.3333" type="curve"/>
      <point x="317" y="56.6667"/>
      <point x="313.667" y="49"/>
      <point x="301.667" y="63.3333" type="curve"/>
      <point x="280.333" y="47.3333"/>
      <point x="270.667" y="66"/>
      <point x="288.333" y="103.333" type="curve"/>
      <point x="305" y="141.347"/>
      <point x="320.667" y="301.92"/>
      <point x="330" y="353.333" type="curve"/>
      <point x="265" y="353.333" type="line"/>
      <point x="268.333" y="106.667" type="line"/>
      <point x="274.714" y="40"/>
      <point x="342.591" y="-6.66667"/>
      <point x="408.333" y="-6.66667" type="curve"/>
      <point x="445.667" y="20.7444"/>
      <point x="483" y="151.97"/>
    </contour>
  </outline>
</glyph>
<glyph name="yucyr.loclBGR" format="2">
  <advance width="727"/>
  <outline>
    <contour>
      <point x="186.667" y="566.667" type="line"/>
      <point x="140" y="700" type="line"/>
      <point x="86.6667" y="680" type="line"/>
      <point x="73.3333" y="220" type="line"/>
      <point x="140" y="0" type="line"/>
      <point x="186.667" y="146.667" type="line"/>
      <point x="240" y="216.667" type="line"/>
      <point x="251.879" y="112.667"/>
      <point x="315.961" y="63.3333"/>
      <point x="396.667" y="63.3333" type="curve"/>
      <point x="481.667" y="18.3333"/>
      <point x="561.667" y="46.6667"/>
      <point x="606.667" y="163.333" type="curve" smooth="yes"/>
      <point x="651.667" y="280"/>
      <point x="623.333" y="365"/>
      <point x="543.333" y="423.333" type="curve"/>
      <point x="470" y="481.667"/>
      <point x="385.667" y="462.667"/>
      <point x="333.333" y="363.333" type="curve"/>
      <point x="277.683" y="363.333"/>
      <point x="221.912" y="336.333"/>
      <point x="206.667" y="293.333" type="curve"/>
    </contour>
    <contour>
      <point x="540" y="193.333" type="curve" smooth="yes"/>
      <point x="525" y="100"/>
      <point x="480.667" y="78.3333"/>
      <point x="443.333" y="123.333" type="curve" smooth="yes"/>
      <point x="406" y="168.333"/>
      <point x="385" y="213.333"/>
      <point x="400" y="306.667" type="curve" smooth="yes"/>
      <point x="415" y="400"/>
      <point x="459.333" y="421.667"/>
      <point x="496.667" y="376.667" type="curve" smooth="yes"/>
      <point x="534" y="331.667"/>
      <point x="555" y="286.667"/>
    </contour>
  </outline>
</glyph>
<glyph name="zhecyr.loclBGR" format="2">
  <advance width="720"/>
  <outline>
    <contour>
      <point x="303.333" y="446.667" type="line"/>
      <point x="350" y="180" type="line"/>
      <point x="236.667" y="411.667" type="line"/>
      <point x="206.667" y="333.333" type="line"/>
      <point x="378.333" y="173.333" type="line"/>
      <point x="195" y="86.6667" type="line"/>
      <point x="325" y="166.667" type="line"/>
      <point x="393.333" y="333.333" type="line"/>
      <point x="350" y="95" type="line"/>
      <point x="416.667" y="233.333" type="line"/>
      <point x="383.333" y="400" type="line"/>
      <point x="490" y="220" type="line"/>
      <point x="566.667" y="95" type="line"/>
      <point x="396.667" y="340" type="line"/>
      <point x="465" y="500" type="line"/>
      <point x="441.667" y="420" type="line"/>
      <point x="271.667" y="180" type="line"/>
      <point x="323.333" y="466.667" type="line"/>
      <point x="323.333" y="545" type="line"/>
    </contour>
  </outline>
</glyph>
